<?xml version="1.0" encoding="utf-8"?>
<!-- Generator: Adobe Illustrator 18.1.1, SVG Export Plug-In . SVG Version: 6.00 Build 0)  -->
<!DOCTYPE svg PUBLIC "-//W3C//DTD SVG 1.1//EN" "http://www.w3.org/Graphics/SVG/1.1/DTD/svg11.dtd">
<svg version="1.1" id="Слой_1" xmlns="http://www.w3.org/2000/svg" xmlns:xlink="http://www.w3.org/1999/xlink" x="0px" y="0px"
	 viewBox="0 0 300 300" enable-background="new 0 0 300 300" xml:space="preserve">
<g id="amateur">
	<path fill-rule="evenodd" clip-rule="evenodd" fill="#204D6F" d="M162.4,22.4l1.6,6.3l-4.7-1.6v-8.7L162.4,22.4z"/>
	<g>
		<path fill-rule="evenodd" clip-rule="evenodd" fill="#F1A07B" d="M184.4,248.7h-26v37.9h0c0,0.1,0,0.3,0,0.4c0,7.2,5.8,13,13,13
			c7.2,0,13-5.8,13-13c0-0.1,0-0.3,0-0.4h0V248.7z"/>
		<path fill-rule="evenodd" clip-rule="evenodd" fill="#F1A07B" d="M86.1,286.6L86.1,286.6c0,0.1,0,0.3,0,0.4c0,7.2,5.8,13,13,13
			c7.2,0,13-5.8,13-13c0-0.1,0-0.3,0-0.4h0v-37.9h-26V286.6z"/>
	</g>
	<path fill-rule="evenodd" clip-rule="evenodd" fill="#2B6D9E" d="M186,270.1c0-4.3,0-14.8,0-29.4c0-10.1-14.9-66.1-14.9-66.1H142
		c0,0,14.9,57,14.9,65.7c0,14.6,0,25.1,0,29.6c0,1.6,1,2.5,2.6,2.5c5.6,0,18.9,0,24.2,0C185.1,272.4,186,271.6,186,270.1z"/>
	<path fill-rule="evenodd" clip-rule="evenodd" fill="#2B6D9E" d="M113.7,270.2c0-4.4,0-15,0-29.9c0-8.7,14.9-65.7,14.9-65.7H99.5
		c0,0-14.9,56-14.9,66.1c0,14,0,24.1,0,28.8c0,1.9,1,2.9,2.6,2.9c5.6,0,18.9,0,24.2,0C112.8,272.4,113.7,271.6,113.7,270.2z"/>
	<path fill="#3B84C2" d="M106,78l-0.2,0.4c0,0-9.1-0.1-14.2,0c-5.1,0.1-8.6,3.9-10.2,7.1c-0.9,1.7-9,11.1-23.6,30
		c-1,1.3-2.1,2.6-3.3,4c-3.9,3.9-18.3,19.9-1.5,23.6c0,0,27.9-2.7,41.7-4.1c0,1.8,0,3.5,0,4.8c-7.6,7.1-1.2,9.6,2.4,12.6
		c0,1.9-1.3,0.6-2.4,3.2c1,1.6,2.8,2.5,2.4,4.7c-0.5,2.3-2.3,2.9-3.9,6.3c-0.4,3.1-3.1,25.7-3.1,29.2c0,3.5,1.8,4.7,4.7,4.7
		c0.4,0,1.3,0,2.6,0l31.5-72.2L106,78z M94.8,114.1c-1.1,0.1-2.4,0.2-3.8,0.4c2.6-3.1,3.8-4.6,3.8-4.6S94.8,111.6,94.8,114.1z"/>
	<path fill-rule="evenodd" clip-rule="evenodd" fill="#F1A07B" d="M249,37.8c-5.4-2.8-12.1-0.7-14.9,4.7c-0.1,0.1-0.1,0.2-0.1,0.3
		l0,0l-20.1,38.9l19.6,10.3L253.5,53l0,0c0.1-0.1,0.1-0.2,0.2-0.3C256.4,47.3,254.4,40.6,249,37.8z"/>
	<path fill-rule="evenodd" clip-rule="evenodd" fill="#214E70" d="M135.7,117l-23.6-54.4l23.6-6.3l23.6,6.4L135.7,117z"/>
	<path fill-rule="evenodd" clip-rule="evenodd" fill="#F1A07B" d="M111.1,114.5c-0.1,0-0.2,0-0.3,0.1l0,0l-9.3,0.6l1.6,21.9l9.3-0.6
		l0,0c0.1,0,0.2,0,0.3,0c6-0.5,10.6-5.8,10.1-11.8C122.4,118.5,117.1,114,111.1,114.5z"/>
	<path fill-rule="evenodd" clip-rule="evenodd" fill="#F1A07B" d="M146.7,61.8h-11h-11c0,7.3,1.7,17.4-5.5,17.4l16.5,40.2l16.5-40.2
		C145,79.2,146.7,69.1,146.7,61.8z"/>
	<path fill="none" d="M94.8,114.1c0-2.6,0-4.2,0-4.2s-1.2,1.5-3.8,4.6C92.4,114.4,93.7,114.2,94.8,114.1z"/>
	<path fill="#3B84C2" d="M228.5,100.5c6.3-5.6,24.1-39.4,23.6-42.6c-0.3-2.3-14.3-8.1-18.1-9.5c-5.4-1.9-4.6-0.5-7.1,4.7
		c-2,4.3-7.8,16.4-10.2,20.5c-1.9,3.2-31.9,4.9-37,4.7c-5.1-0.1-14.2,0-14.2,0l-0.1-0.3l-54.4,126.5c11.4,0,24.6,0,24.6,0
		s37.9,0,40.9,0c2.9,0,4.7-1.3,4.7-4.7c0-3.5-2.8-26.1-3.1-29.2c-1.7-3.4-3.4-4.1-3.9-6.3c-0.5-2.3,1.4-3.1,2.4-4.7
		c-1.1-2.5-2.3-1.3-2.4-3.2c3.6-3,9.9-5.5,2.4-12.6c0-9.9,0.8-36.3,0.8-36.3S226.1,102.5,228.5,100.5z"/>
	<polygon fill="#6DA3D2" points="105.8,77.6 106,78 112.1,62.6 	"/>
	<path fill="#6DA3D2" d="M159.3,62.7l-23.8,54.6l-23.4-54.7L106,78l22.9,54.4l-31.5,72.2c3,0,8.2,0,13.7,0l54.4-126.5L159.3,62.7z"
		/>
	<path fill-rule="evenodd" clip-rule="evenodd" fill="#214E70" d="M175,142.3H94.8c-3.9,0-7.1,3.2-7.1,7.1v0c0,3.9,3.2,7.1,7.1,7.1
		H125c-7.7,13.4-16.8,29.2-16.8,29.2c-0.5,0.9-0.2,2.2,0.7,2.7l6.9,4c0.9,0.5,2.2,0.2,2.7-0.7c0,0,9.4-16.3,17.2-29.9
		c7.8,13.5,17.2,29.9,17.2,29.9c0.5,0.9,1.8,1.3,2.7,0.7l6.9-4c0.9-0.5,1.3-1.8,0.7-2.7c0,0-9.1-15.8-16.8-29.2H175
		c3.9,0,7.1-3.2,7.1-7.1v0C182.1,145.4,178.9,142.3,175,142.3z"/>
	<path fill-rule="evenodd" clip-rule="evenodd" fill="#F5B291" d="M160.1,27.9c-12.8-10.1-24.4-5.5-24.4-5.5s-11.6-4.6-24.4,5.5
		c0,0-3.5,22.5,3.1,29.2c6.7,6.7,21.2,10.3,21.2,10.3s14.6-3.6,21.2-10.3C163.6,50.4,160.1,27.9,160.1,27.9z"/>
	<path fill-rule="evenodd" clip-rule="evenodd" fill="#FFFFFF" d="M128.6,52.4c0,0,5.7,1.5,14.2,0C142.8,52.4,134.6,52,128.6,52.4z"
		/>
	<path fill-rule="evenodd" clip-rule="evenodd" fill="#214B6E" d="M125.5,32.6c2.2,0,3.9,1.8,3.9,3.9c0,2.2-1.8,3.9-3.9,3.9
		s-3.9-1.8-3.9-3.9C121.5,34.4,123.3,32.6,125.5,32.6z"/>
	<g>
		<path fill="#6DA3D2" d="M128.2,47.3c-1.1,0-3.9-0.1-8.6-0.8l0.6-3.9c5.5,0.9,8.2,0.8,8.3,0.8l0.2,4
			C128.7,47.2,128.5,47.3,128.2,47.3z"/>
	</g>
	<g>
		<path fill="#6DA3D2" d="M143.9,47.3c-0.3,0-0.4,0-0.5,0l0.2-4c0,0,2.8,0.1,8.3-0.8l0.6,3.9C147.8,47.2,145,47.3,143.9,47.3z"/>
	</g>
	<path fill-rule="evenodd" clip-rule="evenodd" fill="#214B6E" d="M145.9,32.6c2.2,0,3.9,1.8,3.9,3.9c0,2.2-1.8,3.9-3.9,3.9
		c-2.2,0-3.9-1.8-3.9-3.9C142,34.4,143.7,32.6,145.9,32.6z"/>
	<path fill-rule="evenodd" clip-rule="evenodd" fill="#204D6F" d="M150.6,2.7c0,0-11.1,19.6-20.5,21c0,0,3.5-2.3,4.2-6.6
		c0,0-11.4,3.6-11.8,11.6c0,0-2-6.5,5.9-13.3c0,0-12.7,11-21,14.1C107.4,29.5,106.2-10.5,150.6,2.7z"/>
	<path fill-rule="evenodd" clip-rule="evenodd" fill="#204D6F" d="M150.6,2.7c0,0,12.6,4.4,14.9,22.9c0,0-12.6-5.6-24.4-11.8
		L150.6,2.7z"/>
	<path fill-rule="evenodd" clip-rule="evenodd" fill="#3A85C3" d="M111.9,17.2c0,0,19.2-11.7,48.2-0.3c0,0,1.8,12.8,1.6,12.7
		c-4.1-1.4-26.5-15.7-52,1.5C109.7,31.1,109.8,22.4,111.9,17.2z"/>
	<path fill-rule="evenodd" clip-rule="evenodd" fill="#204D6F" d="M145.9,12.9l-9.4,3.9l0.8-3.9c0,0-0.8,1-3.9,2.4v-2.4
		c0,0-8.4-0.4-14.9,6.3v-2.4c0,0-0.6-5.1-5.5,0.8c-4.9,5.9-7.9,7.9-7.9,7.9l3.1-6.3c0,0,2.3-5.1,16.5-8.7S145.9,12.9,145.9,12.9z"/>
</g>
</svg>
