<?xml version="1.0" encoding="utf-8"?>
<!-- Generator: Adobe Illustrator 18.1.1, SVG Export Plug-In . SVG Version: 6.00 Build 0)  -->
<!DOCTYPE svg PUBLIC "-//W3C//DTD SVG 1.1//EN" "http://www.w3.org/Graphics/SVG/1.1/DTD/svg11.dtd">
<svg version="1.1" id="Слой_1" xmlns="http://www.w3.org/2000/svg" xmlns:xlink="http://www.w3.org/1999/xlink" x="0px" y="0px"
	 viewBox="0 0 300 300" enable-background="new 0 0 300 300" xml:space="preserve">
<g id="expert">
	<g>
		<path fill-rule="evenodd" clip-rule="evenodd" fill="#204D6F" d="M212.4,282.2c0-0.1-0.1-0.2-0.2-0.4l0,0l-13.5-35.7l-24.5,9.3
			l13.5,35.7l0,0c0,0.1,0.1,0.3,0.1,0.4c2.6,6.8,10.1,10.2,16.9,7.6C211.6,296.6,215,289,212.4,282.2z"/>
		<path fill-rule="evenodd" clip-rule="evenodd" fill="#204D6F" d="M87.6,286.1L87.6,286.1c0,0.1,0,0.3,0,0.4
			c0,7.3,5.9,13.1,13.1,13.1c7.2,0,13.1-5.9,13.1-13.1c0-0.1,0-0.3,0-0.4h0v-38.2H87.6V286.1z"/>
	</g>
	<path fill-rule="evenodd" clip-rule="evenodd" fill="#296DA0" d="M208.7,266.8c-1.9-5.4-6.3-17.7-12.4-34.8
		c-3.6-10.2-27.7-77.4-27.7-77.4l-28.2,10.8c0,0,23.6,66,27.8,77.9c6.1,17.2,10.5,29.4,12.4,34.6c0.6,1.8,2,2.3,3.6,1.7
		c5.5-2.1,18.1-6.9,23.2-8.9C208.9,270.2,209.4,268.8,208.7,266.8z"/>
	<path fill-rule="evenodd" clip-rule="evenodd" fill="#296DA0" d="M115.4,272.7c0-4.4,0-15.1,0-30.1c0-8.8,16.7-55.2,16.7-55.2
		h-29.4c0,0-16.7,45.4-16.7,55.6c0,14.7,0,25.2,0,29.6c0,1.5,0.9,2.3,2.5,2.3c5.6,0,19.2,0,24.6,0
		C114.5,274.9,115.4,274.1,115.4,272.7z"/>
	<path fill-rule="evenodd" clip-rule="evenodd" fill="#204D6F" d="M67.4,29.7L67.4,29.7c0-0.1,0-0.2,0-0.3
		c-0.1-6.1-5.2-11-11.2-10.9c-6,0.1-10.8,5.2-10.7,11.3c0,0.1,0,0.2,0,0.3l0,0l1.3,54l21.9-0.4L67.4,29.7z"/>
	<path fill-rule="evenodd" clip-rule="evenodd" fill="#204D6F" d="M265.4,123c-0.1,0-0.2-0.1-0.3-0.1l0,0l-40.7-16.8l-8.6,20.5
		l40.7,16.8l0,0c0.1,0,0.2,0.1,0.3,0.2c5.7,2.4,12.2-0.3,14.6-5.9C273.7,131.9,271,125.4,265.4,123z"/>
	<path fill-rule="evenodd" clip-rule="evenodd" fill="#6FA2CF" d="M83.9,26c0,0,95.3-4.9,177.9-14.6c0,0,1.9,4.2-5.9,6.1
		c-19.3,4.7-127,13.9-171.4,15.6L83.9,26z"/>
	<path fill-rule="evenodd" clip-rule="evenodd" fill="#204D6F" d="M84.3,21.2c-0.1-1.3-1.3-2.3-2.6-2.2L77,19.4
		c-1.3,0.1-2.3,1.3-2.2,2.6l0.3,4.1c-0.3-0.1-0.5-0.1-0.8-0.1L30,29.7c-1.3,0.1-2.3,1.3-2.2,2.6l0.3,4c0.1,1.3,1.3,2.3,2.6,2.2
		L75,34.8c0.3,0,0.5-0.1,0.8-0.2l0.3,4.1c0.1,1.3,1.3,2.3,2.6,2.2l4.7-0.4c1.3-0.1,2.3-1.3,2.2-2.6L84.3,21.2z"/>
	<path fill="#3B84C2" d="M111.3,76.6c-6,0-12.2,0-14.6,0.1c-5.1,0.1-6.7,0.4-11.9,1.6c-1.4,0.3-4.8,0.8-15.2,3.9
		c0-14.6,0.1-33,0.1-36c0-5.1-0.4-5.4-4.5-5.2c-4.1,0.2-12.3-0.2-16.8,0c-4.4,0.2-4.6,1.4-4.9,6.7c-0.3,5.3,0.7,45.8,0.7,45.8
		s1.2,18.7,12.7,17.5c0.2,0,0.5-0.1,0.7-0.1c0,0,0.1,0.1,0.1,0.1c0,0,7.7-0.6,19.1-2.4c16.7-2.6,22.2-3.2,22.2-3.2
		s0.8,27.4,0.8,37.4c-7.7,7.2-1.2,9.7,2.4,12.7c0,1.9-1.3,0.6-2.4,3.2c1,1.6,2.9,2.5,2.4,4.8c-0.5,2.3-2.3,2.9-4,6.4
		c-0.4,3.1-7.9,22.3-7.9,25.8s6.6,7.7,9.6,7.7c0.4,0,1.4,0,2.8,0l31.5-72.1L111.3,76.6z"/>
	<path fill="#3B84C2" d="M253.9,116.5c-4.3-2-11.1-4.4-31-13.5c-4.2-1.9-12.4-9.5-25.4-21.5c-3.2-3-8.7-4.8-11.9-4.8
		c-5.1,0-14.3,0-14.3,0h-0.2l-54.4,126.7c11.5,0,24.7,0,24.7,0s27.8,0.3,35.6,0c13.4-0.6,12.4-4.6,12.5-7.7c0.1-3.5-5-22.7-5.4-25.8
		c-1.7-3.5-3.5-4.1-4-6.4c-0.5-2.3,1.4-3.2,2.4-4.8c-1.1-2.5-2.4-1.3-2.4-3.2c3.6-3,10-5.5,2.4-12.7c0-10,0.8-36.6,0.8-36.6
		s21.7,17.9,24.6,19.1c23.6,10.3,30.3,13.2,33.4,14.3c12,4.4,10.3,3.7,16.7-12.7C259.6,122.5,263,120.8,253.9,116.5z"/>
	<path fill="#6FA2CF" d="M160.2,76.7c0.9,0.5,2,0.8,3.2,0.8l-22.2,40.6l-23-40.6c1.2,0,2.3-0.3,3.3-0.8c-2.5,0-6.2,0-10.1,0l23,54.6
		l-31.5,72.1c3.1,0,8.3,0,13.8,0l54.4-126.7H160.2z"/>
	<path fill="#2B6D9E" d="M160.2,76.7c-0.6-0.3-1.1-0.7-1.6-1.1c-3.5-3.3-4.8-10.2-4.8-15.6l-12,2.3l-0.7,0.1l-0.8-0.1l-11.9-2.2
		c0,5.2-1.5,11.7-5,15.2c-0.6,0.6-1.3,1.1-2.1,1.5c-1,0.5-2.1,0.8-3.3,0.8l23,40.6l22.2-40.6C162.2,77.5,161.1,77.2,160.2,76.7z"/>
	<path fill-rule="evenodd" clip-rule="evenodd" fill="#204D6F" d="M180,141.2H99.1c-4,0-7.2,3.2-7.2,7.2v0c0,4,3.2,7.2,7.2,7.2h30.5
		c-7.8,13.5-16.9,29.4-16.9,29.4c-0.6,1-0.2,2.2,0.7,2.7l6.9,4c1,0.6,2.2,0.2,2.7-0.7c0,0,9.5-16.5,17.4-30.2
		c7.9,13.7,17.4,30.2,17.4,30.2c0.6,1,1.8,1.3,2.7,0.7l6.9-4c1-0.6,1.3-1.8,0.7-2.7c0,0-9.2-15.9-16.9-29.4H180c4,0,7.2-3.2,7.2-7.2
		v0C187.2,144.4,184,141.2,180,141.2z"/>
	<path fill-rule="evenodd" clip-rule="evenodd" fill="#FFFFFF" d="M87.1,28.9c0,0,105.2-5.8,162.8-13.5
		C249.9,15.3,204.2,24.2,87.1,28.9z"/>
	<path fill="#F5B192" d="M140.4,42.4c12.3,0.1,23.6-3.6,26.4-4.5c0-6.5-0.9-12.2-0.9-12.2c-12.9-10.2-24.6-5.6-24.6-5.6
		s-11.7-4.6-24.6,5.6c0,0-1.1,7.2-0.9,14.7c0-0.1,0.1-0.2,0.1-0.4C115.7,40,126.2,42.3,140.4,42.4z"/>
	<path fill="#214E70" d="M141.1,65.5c0,0,14.7-3.6,21.4-10.4c3.4-3.4,4.2-10.8,4.1-17.3c-2.8,1-14,4.7-26.4,4.5
		c-14.2-0.1-24.6-2.4-24.6-2.4c0,0.1-0.1,0.2-0.1,0.4c0.2,5.8,1.1,11.8,4.1,14.8C126.4,61.9,141.1,65.5,141.1,65.5z"/>
	<path fill-rule="evenodd" clip-rule="evenodd" fill="#214E70" d="M115.7,17.7c0,0,2.9-6.4,7.9-11.9c6.2-6.8,31.2-12,42.1,11.2
		c0,0,1.9,12.9,1.7,12.9c-4.1-1.4-26.8-15.9-52.5,1.5C114.9,31.3,113.7,23,115.7,17.7z"/>
	<path fill="#204D6F" d="M126.8,34.4c0,2.2,1.8,4,4,4c2.2,0,4-1.8,4-4c0-0.1-0.1-0.2-0.1-0.3c-2.1-0.5-5-1.4-7-2.2
		C127.2,32.6,126.8,33.5,126.8,34.4z"/>
	<path fill="#204D6F" d="M147.6,34.1c0,0.1-0.1,0.2-0.1,0.3c0,2.2,1.8,4,4,4s4-1.8,4-4c0-1-0.4-1.8-0.9-2.5
		C152.5,32.7,149.6,33.7,147.6,34.1z"/>
</g>
</svg>
