<?xml version="1.0" encoding="utf-8"?>
<!-- Generator: Adobe Illustrator 18.1.1, SVG Export Plug-In . SVG Version: 6.00 Build 0)  -->
<!DOCTYPE svg PUBLIC "-//W3C//DTD SVG 1.1//EN" "http://www.w3.org/Graphics/SVG/1.1/DTD/svg11.dtd">
<svg version="1.1" id="Слой_1" xmlns="http://www.w3.org/2000/svg" xmlns:xlink="http://www.w3.org/1999/xlink" x="0px" y="0px"
	 viewBox="0 0 300 300" enable-background="new 0 0 300 300" xml:space="preserve">
<g id="newbie">
	<g>
		<path fill-rule="evenodd" clip-rule="evenodd" fill="#F1A07B" d="M182.5,222H156v64.3h0c0,0.1,0,0.3,0,0.4
			c0,7.3,5.9,13.3,13.3,13.3c7.3,0,13.3-5.9,13.3-13.3c0-0.1,0-0.3,0-0.4h0V222z"/>
		<path fill-rule="evenodd" clip-rule="evenodd" fill="#F1A07B" d="M114.3,286.3L114.3,286.3c0,0.1,0,0.3,0,0.4
			c0,7.3,5.9,13.3,13.3,13.3c7.3,0,13.3-5.9,13.3-13.3c0-0.1,0-0.3,0-0.4h0V222h-26.5V286.3z"/>
	</g>
	<path fill-rule="evenodd" clip-rule="evenodd" fill="#2B6D9E" d="M157.3,172.2h23.9c1.6,0,2.9,1.3,2.9,2.9V269
		c0,1.6-1.3,2.9-2.9,2.9h-23.9c-1.6,0-2.9-1.3-2.9-2.9v-93.9C154.4,173.5,155.7,172.2,157.3,172.2z"/>
	<path fill-rule="evenodd" clip-rule="evenodd" fill="#2B6D9E" d="M115.6,172.2h23.9c1.6,0,2.9,1.3,2.9,2.9V269
		c0,1.6-1.3,2.9-2.9,2.9h-23.9c-1.6,0-2.9-1.3-2.9-2.9v-93.9C112.7,173.5,114,172.2,115.6,172.2z"/>
	<path fill-rule="evenodd" clip-rule="evenodd" fill="#F1A07B" d="M243.1,163c-0.1-0.1-0.1-0.2-0.2-0.3l0,0l-25.2-52.8L196,120.3
		l25.2,52.8l0,0c0,0.1,0.1,0.2,0.1,0.3c2.9,6,10.1,8.6,16.1,5.7C243.5,176.2,246,169,243.1,163z"/>
	<path fill-rule="evenodd" clip-rule="evenodd" fill="#F1A07B" d="M104,120.3l-21.7-10.4L57,162.6l0,0c-0.1,0.1-0.1,0.2-0.2,0.3
		c-2.9,6-0.3,13.2,5.7,16.1c6,2.9,13.2,0.3,16.1-5.7c0.1-0.1,0.1-0.2,0.1-0.3l0,0L104,120.3z"/>
	<path fill-rule="evenodd" clip-rule="evenodd" fill="#214E70" d="M149.6,113.5L125.5,58l24.1-5.2l24.1,5.3L149.6,113.5z"/>
	<path fill-rule="evenodd" clip-rule="evenodd" fill="#F1A07B" d="M160.8,59.6h-11.2h-11.2c0,7.4,1.7,15.3-5.6,15.3l16.9,41l16.9-41
		C159.1,74.9,160.8,67,160.8,59.6z"/>
	<path fill="#3B84C2" d="M119.3,73.7l-0.2,0.4c0,0-9.3-0.1-14.5,0c-5.2,0.1-8.8,4-10.4,7.2c-1.7,3.3-31.2,65-33.7,69.1
		c-3.1,5.1-0.9,6.8,1.6,8c2.5,1.2,13.8,8.4,16.9,9.6c3,1.3,5.1-0.3,6.4-3.2c1.3-2.9,22.5-46.6,22.5-46.6s0,12.4,0,22.5
		c-7.7,7.3-1.2,9.8,2.4,12.9c0,1.9-1.3,0.7-2.4,3.2c1,1.6,2.9,2.5,2.4,4.8c-0.5,2.3-2.3,2.9-4,6.4c-0.4,3.1-3.2,26.2-3.2,29.7
		c0,3.5,1.8,4.8,4.8,4.8c0.4,0,1.3,0,2.7,0l32.2-73.5L119.3,73.7z"/>
	<path fill="#3B84C2" d="M238.7,150.5c-2.5-4.1-32.1-65.9-33.7-69.1c-1.7-3.3-5.3-7.1-10.4-7.2c-5.2-0.1-14.5,0-14.5,0l-0.1-0.3
		l-55.5,128.9c11.7,0,25.1,0,25.1,0s38.7,0,41.8,0c3,0,4.8-1.3,4.8-4.8c0-3.5-2.8-26.6-3.2-29.7c-1.7-3.5-3.5-4.1-4-6.4
		c-0.5-2.3,1.4-3.2,2.4-4.8c-1.1-2.6-2.4-1.3-2.4-3.2c3.6-3.1,10.2-5.6,2.4-12.9c0-10.1,0-22.5,0-22.5s21.1,43.7,22.5,46.6
		c1.3,2.9,3.4,4.5,6.4,3.2c3-1.3,14.3-8.4,16.9-9.6C239.6,157.3,241.8,155.5,238.7,150.5z"/>
	<polygon fill="#6CA4D0" points="119.1,73.3 119.3,73.7 125.5,58 	"/>
	<path fill="#6CA4D0" d="M173.7,58.1l-24.3,55.7L125.5,58l-6.3,15.7l23.4,55.5l-32.2,73.5c3.1,0,8.3,0,14,0L180,73.8L173.7,58.1z"/>
	<path fill-rule="evenodd" clip-rule="evenodd" fill="#FFFFFF" d="M189.7,139.2h-81.9c-4,0-7.2,3.2-7.2,7.2v0c0,4,3.2,7.2,7.2,7.2
		h30.8c-7.9,13.6-17.1,29.7-17.1,29.7c-0.6,1-0.2,2.2,0.7,2.8l7,4c1,0.6,2.2,0.2,2.8-0.7c0,0,9.6-16.7,17.6-30.5
		c8,13.8,17.6,30.5,17.6,30.5c0.6,1,1.8,1.3,2.8,0.7l7-4c1-0.6,1.3-1.8,0.7-2.8c0,0-9.3-16.1-17.1-29.7h29.2c4,0,7.2-3.2,7.2-7.2v0
		C197,142.4,193.7,139.2,189.7,139.2z"/>
	<path fill-rule="evenodd" clip-rule="evenodd" fill="#F5B291" d="M149.6,5c16,0,28.9,13,28.9,28.9s-12.9,28.9-28.9,28.9
		c-16,0-28.9-13-28.9-28.9S133.7,5,149.6,5z"/>
	<path fill-rule="evenodd" clip-rule="evenodd" fill="#FFFFFF" d="M142.4,46.8c0,0,6.4,5.6,14.5,0C156.8,46.8,151.5,48.2,142.4,46.8
		z"/>
	<path fill-rule="evenodd" clip-rule="evenodd" fill="#6FA2CF" d="M139.2,27.5c2.2,0,4,1.8,4,4s-1.8,4-4,4c-2.2,0-4-1.8-4-4
		S137,27.5,139.2,27.5z"/>
	<path fill-rule="evenodd" clip-rule="evenodd" fill="#6FA2CF" d="M160,27.5c2.2,0,4,1.8,4,4s-1.8,4-4,4s-4-1.8-4-4
		S157.8,27.5,160,27.5z"/>
	<path fill-rule="evenodd" clip-rule="evenodd" fill="#F5B291" d="M132.7,35.5c3.6,0,6.4,2.9,6.4,6.4c0,3.6-2.9,6.4-6.4,6.4
		c-3.6,0-6.4-2.9-6.4-6.4C126.3,38.4,129.2,35.5,132.7,35.5z"/>
	<path fill-rule="evenodd" clip-rule="evenodd" fill="#F5B291" d="M167.3,35.5c3.6,0,6.4,2.9,6.4,6.4c0,3.6-2.9,6.4-6.4,6.4
		c-3.6,0-6.4-2.9-6.4-6.4C160.8,38.4,163.7,35.5,167.3,35.5z"/>
	<path fill-rule="evenodd" clip-rule="evenodd" fill="#204D6F" d="M163.6,2.5c-43.3-12.9-44.5,27.3-44.5,27.3
		c8.5-3.2,21.5-14.4,21.5-14.4c-8.1,6.9-6,13.5-6,13.5c0.4-8.1,12-11.8,12-11.8c-0.7,4.4-4.3,6.8-4.3,6.8c6-0.9,12.7-8.9,17-14.8
		c8.3,18.1,20.3,17.5,20.3,17.5C177.4,7.1,163.6,2.5,163.6,2.5z"/>
</g>
</svg>
