<?xml version="1.0" encoding="UTF-8" standalone="no"?>
<svg width="28px" height="139px" viewBox="0 0 28 139" version="1.1" xmlns="http://www.w3.org/2000/svg" xmlns:xlink="http://www.w3.org/1999/xlink" xmlns:sketch="http://www.bohemiancoding.com/sketch/ns">
    <!-- Generator: Sketch 3.3.3 (12072) - http://www.bohemiancoding.com/sketch -->
    <title>slider elements</title>
    <desc>Created with Sketch.</desc>
    <defs>
        <rect id="path-1" x="0" y="0" width="34" height="34"></rect>
        <linearGradient x1="50.0152412%" y1="-0.0232469512%" x2="50.0152412%" y2="100.023247%" id="linearGradient-3">
            <stop stop-color="#EDF0F4" offset="0%"></stop>
            <stop stop-color="#E7EAF1" offset="100%"></stop>
        </linearGradient>
        <filter x="-50%" y="-50%" width="200%" height="200%" filterUnits="objectBoundingBox" id="filter-4">
            <feOffset dx="0" dy="1" in="SourceAlpha" result="shadowOffsetOuter1"></feOffset>
            <feGaussianBlur stdDeviation="0.5" in="shadowOffsetOuter1" result="shadowBlurOuter1"></feGaussianBlur>
            <feColorMatrix values="0 0 0 0 1   0 0 0 0 1   0 0 0 0 1  0 0 0 0.35 0" in="shadowBlurOuter1" type="matrix" result="shadowMatrixOuter1"></feColorMatrix>
            <feOffset dx="0" dy="0" in="SourceAlpha" result="shadowOffsetInner1"></feOffset>
            <feGaussianBlur stdDeviation="0.5" in="shadowOffsetInner1" result="shadowBlurInner1"></feGaussianBlur>
            <feComposite in="shadowBlurInner1" in2="SourceAlpha" operator="arithmetic" k2="-1" k3="1" result="shadowInnerInner1"></feComposite>
            <feColorMatrix values="0 0 0 0 0.450980392   0 0 0 0 0.478431373   0 0 0 0 0.529411765  0 0 0 0.14 0" in="shadowInnerInner1" type="matrix" result="shadowMatrixInner1"></feColorMatrix>
            <feMerge>
                <feMergeNode in="shadowMatrixOuter1"></feMergeNode>
                <feMergeNode in="SourceGraphic"></feMergeNode>
                <feMergeNode in="shadowMatrixInner1"></feMergeNode>
            </feMerge>
        </filter>
        <filter x="-50%" y="-50%" width="200%" height="200%" filterUnits="objectBoundingBox" id="filter-5">
            <feOffset dx="0" dy="1" in="SourceAlpha" result="shadowOffsetOuter1"></feOffset>
            <feGaussianBlur stdDeviation="0" in="shadowOffsetOuter1" result="shadowBlurOuter1"></feGaussianBlur>
            <feColorMatrix values="0 0 0 0 1   0 0 0 0 1   0 0 0 0 1  0 0 0 0.353566576 0" in="shadowBlurOuter1" type="matrix" result="shadowMatrixOuter1"></feColorMatrix>
            <feOffset dx="0" dy="2" in="SourceAlpha" result="shadowOffsetInner1"></feOffset>
            <feGaussianBlur stdDeviation="1.5" in="shadowOffsetInner1" result="shadowBlurInner1"></feGaussianBlur>
            <feComposite in="shadowBlurInner1" in2="SourceAlpha" operator="arithmetic" k2="-1" k3="1" result="shadowInnerInner1"></feComposite>
            <feColorMatrix values="0 0 0 0 0   0 0 0 0 0   0 0 0 0 0  0 0 0 0.211022418 0" in="shadowInnerInner1" type="matrix" result="shadowMatrixInner1"></feColorMatrix>
            <feOffset dx="0" dy="0" in="SourceAlpha" result="shadowOffsetInner2"></feOffset>
            <feGaussianBlur stdDeviation="1.5" in="shadowOffsetInner2" result="shadowBlurInner2"></feGaussianBlur>
            <feComposite in="shadowBlurInner2" in2="SourceAlpha" operator="arithmetic" k2="-1" k3="1" result="shadowInnerInner2"></feComposite>
            <feColorMatrix values="0 0 0 0 0   0 0 0 0 0   0 0 0 0 0  0 0 0 0.20652457 0" in="shadowInnerInner2" type="matrix" result="shadowMatrixInner2"></feColorMatrix>
            <feMerge>
                <feMergeNode in="shadowMatrixOuter1"></feMergeNode>
                <feMergeNode in="SourceGraphic"></feMergeNode>
                <feMergeNode in="shadowMatrixInner1"></feMergeNode>
                <feMergeNode in="shadowMatrixInner2"></feMergeNode>
            </feMerge>
        </filter>
        <rect id="path-6" x="0" y="0" width="34" height="10"></rect>
        <filter x="-50%" y="-50%" width="200%" height="200%" filterUnits="objectBoundingBox" id="filter-8">
            <feOffset dx="0" dy="1" in="SourceAlpha" result="shadowOffsetOuter1"></feOffset>
            <feGaussianBlur stdDeviation="0.5" in="shadowOffsetOuter1" result="shadowBlurOuter1"></feGaussianBlur>
            <feColorMatrix values="0 0 0 0 1   0 0 0 0 1   0 0 0 0 1  0 0 0 0.35 0" in="shadowBlurOuter1" type="matrix" result="shadowMatrixOuter1"></feColorMatrix>
            <feOffset dx="0" dy="0" in="SourceAlpha" result="shadowOffsetInner1"></feOffset>
            <feGaussianBlur stdDeviation="0.5" in="shadowOffsetInner1" result="shadowBlurInner1"></feGaussianBlur>
            <feComposite in="shadowBlurInner1" in2="SourceAlpha" operator="arithmetic" k2="-1" k3="1" result="shadowInnerInner1"></feComposite>
            <feColorMatrix values="0 0 0 0 0.450980392   0 0 0 0 0.478431373   0 0 0 0 0.529411765  0 0 0 0.14 0" in="shadowInnerInner1" type="matrix" result="shadowMatrixInner1"></feColorMatrix>
            <feMerge>
                <feMergeNode in="shadowMatrixOuter1"></feMergeNode>
                <feMergeNode in="SourceGraphic"></feMergeNode>
                <feMergeNode in="shadowMatrixInner1"></feMergeNode>
            </feMerge>
        </filter>
        <filter x="-50%" y="-50%" width="200%" height="200%" filterUnits="objectBoundingBox" id="filter-9">
            <feOffset dx="0" dy="1" in="SourceAlpha" result="shadowOffsetOuter1"></feOffset>
            <feGaussianBlur stdDeviation="0" in="shadowOffsetOuter1" result="shadowBlurOuter1"></feGaussianBlur>
            <feColorMatrix values="0 0 0 0 1   0 0 0 0 1   0 0 0 0 1  0 0 0 0.353566576 0" in="shadowBlurOuter1" type="matrix" result="shadowMatrixOuter1"></feColorMatrix>
            <feOffset dx="0" dy="2" in="SourceAlpha" result="shadowOffsetInner1"></feOffset>
            <feGaussianBlur stdDeviation="1.5" in="shadowOffsetInner1" result="shadowBlurInner1"></feGaussianBlur>
            <feComposite in="shadowBlurInner1" in2="SourceAlpha" operator="arithmetic" k2="-1" k3="1" result="shadowInnerInner1"></feComposite>
            <feColorMatrix values="0 0 0 0 0   0 0 0 0 0   0 0 0 0 0  0 0 0 0.211022418 0" in="shadowInnerInner1" type="matrix" result="shadowMatrixInner1"></feColorMatrix>
            <feOffset dx="0" dy="0" in="SourceAlpha" result="shadowOffsetInner2"></feOffset>
            <feGaussianBlur stdDeviation="1.5" in="shadowOffsetInner2" result="shadowBlurInner2"></feGaussianBlur>
            <feComposite in="shadowBlurInner2" in2="SourceAlpha" operator="arithmetic" k2="-1" k3="1" result="shadowInnerInner2"></feComposite>
            <feColorMatrix values="0 0 0 0 0   0 0 0 0 0   0 0 0 0 0  0 0 0 0.20652457 0" in="shadowInnerInner2" type="matrix" result="shadowMatrixInner2"></feColorMatrix>
            <feMerge>
                <feMergeNode in="shadowMatrixOuter1"></feMergeNode>
                <feMergeNode in="SourceGraphic"></feMergeNode>
                <feMergeNode in="shadowMatrixInner1"></feMergeNode>
                <feMergeNode in="shadowMatrixInner2"></feMergeNode>
            </feMerge>
        </filter>
        <rect id="path-10" x="0" y="0" width="34" height="34"></rect>
        <filter x="-50%" y="-50%" width="200%" height="200%" filterUnits="objectBoundingBox" id="filter-12">
            <feOffset dx="0" dy="1" in="SourceAlpha" result="shadowOffsetOuter1"></feOffset>
            <feGaussianBlur stdDeviation="0.5" in="shadowOffsetOuter1" result="shadowBlurOuter1"></feGaussianBlur>
            <feColorMatrix values="0 0 0 0 1   0 0 0 0 1   0 0 0 0 1  0 0 0 0.35 0" in="shadowBlurOuter1" type="matrix" result="shadowMatrixOuter1"></feColorMatrix>
            <feOffset dx="0" dy="0" in="SourceAlpha" result="shadowOffsetInner1"></feOffset>
            <feGaussianBlur stdDeviation="0.5" in="shadowOffsetInner1" result="shadowBlurInner1"></feGaussianBlur>
            <feComposite in="shadowBlurInner1" in2="SourceAlpha" operator="arithmetic" k2="-1" k3="1" result="shadowInnerInner1"></feComposite>
            <feColorMatrix values="0 0 0 0 0.450980392   0 0 0 0 0.478431373   0 0 0 0 0.529411765  0 0 0 0.14 0" in="shadowInnerInner1" type="matrix" result="shadowMatrixInner1"></feColorMatrix>
            <feMerge>
                <feMergeNode in="shadowMatrixOuter1"></feMergeNode>
                <feMergeNode in="SourceGraphic"></feMergeNode>
                <feMergeNode in="shadowMatrixInner1"></feMergeNode>
            </feMerge>
        </filter>
        <filter x="-50%" y="-50%" width="200%" height="200%" filterUnits="objectBoundingBox" id="filter-13">
            <feOffset dx="0" dy="1" in="SourceAlpha" result="shadowOffsetOuter1"></feOffset>
            <feGaussianBlur stdDeviation="0" in="shadowOffsetOuter1" result="shadowBlurOuter1"></feGaussianBlur>
            <feColorMatrix values="0 0 0 0 1   0 0 0 0 1   0 0 0 0 1  0 0 0 0.353566576 0" in="shadowBlurOuter1" type="matrix" result="shadowMatrixOuter1"></feColorMatrix>
            <feOffset dx="0" dy="2" in="SourceAlpha" result="shadowOffsetInner1"></feOffset>
            <feGaussianBlur stdDeviation="1.5" in="shadowOffsetInner1" result="shadowBlurInner1"></feGaussianBlur>
            <feComposite in="shadowBlurInner1" in2="SourceAlpha" operator="arithmetic" k2="-1" k3="1" result="shadowInnerInner1"></feComposite>
            <feColorMatrix values="0 0 0 0 0   0 0 0 0 0   0 0 0 0 0  0 0 0 0.211022418 0" in="shadowInnerInner1" type="matrix" result="shadowMatrixInner1"></feColorMatrix>
            <feOffset dx="0" dy="0" in="SourceAlpha" result="shadowOffsetInner2"></feOffset>
            <feGaussianBlur stdDeviation="1.5" in="shadowOffsetInner2" result="shadowBlurInner2"></feGaussianBlur>
            <feComposite in="shadowBlurInner2" in2="SourceAlpha" operator="arithmetic" k2="-1" k3="1" result="shadowInnerInner2"></feComposite>
            <feColorMatrix values="0 0 0 0 0   0 0 0 0 0   0 0 0 0 0  0 0 0 0.20652457 0" in="shadowInnerInner2" type="matrix" result="shadowMatrixInner2"></feColorMatrix>
            <feMerge>
                <feMergeNode in="shadowMatrixOuter1"></feMergeNode>
                <feMergeNode in="SourceGraphic"></feMergeNode>
                <feMergeNode in="shadowMatrixInner1"></feMergeNode>
                <feMergeNode in="shadowMatrixInner2"></feMergeNode>
            </feMerge>
        </filter>
        <rect id="path-14" x="0" y="0" width="34" height="34"></rect>
        <filter x="-50%" y="-50%" width="200%" height="200%" filterUnits="objectBoundingBox" id="filter-16">
            <feOffset dx="0" dy="1" in="SourceAlpha" result="shadowOffsetOuter1"></feOffset>
            <feGaussianBlur stdDeviation="0.5" in="shadowOffsetOuter1" result="shadowBlurOuter1"></feGaussianBlur>
            <feColorMatrix values="0 0 0 0 1   0 0 0 0 1   0 0 0 0 1  0 0 0 0.35 0" in="shadowBlurOuter1" type="matrix" result="shadowMatrixOuter1"></feColorMatrix>
            <feOffset dx="0" dy="0" in="SourceAlpha" result="shadowOffsetInner1"></feOffset>
            <feGaussianBlur stdDeviation="0.5" in="shadowOffsetInner1" result="shadowBlurInner1"></feGaussianBlur>
            <feComposite in="shadowBlurInner1" in2="SourceAlpha" operator="arithmetic" k2="-1" k3="1" result="shadowInnerInner1"></feComposite>
            <feColorMatrix values="0 0 0 0 0.450980392   0 0 0 0 0.478431373   0 0 0 0 0.529411765  0 0 0 0.14 0" in="shadowInnerInner1" type="matrix" result="shadowMatrixInner1"></feColorMatrix>
            <feMerge>
                <feMergeNode in="shadowMatrixOuter1"></feMergeNode>
                <feMergeNode in="SourceGraphic"></feMergeNode>
                <feMergeNode in="shadowMatrixInner1"></feMergeNode>
            </feMerge>
        </filter>
        <filter x="-50%" y="-50%" width="200%" height="200%" filterUnits="objectBoundingBox" id="filter-17">
            <feOffset dx="0" dy="1" in="SourceAlpha" result="shadowOffsetOuter1"></feOffset>
            <feGaussianBlur stdDeviation="0" in="shadowOffsetOuter1" result="shadowBlurOuter1"></feGaussianBlur>
            <feColorMatrix values="0 0 0 0 1   0 0 0 0 1   0 0 0 0 1  0 0 0 0.353566576 0" in="shadowBlurOuter1" type="matrix" result="shadowMatrixOuter1"></feColorMatrix>
            <feOffset dx="0" dy="2" in="SourceAlpha" result="shadowOffsetInner1"></feOffset>
            <feGaussianBlur stdDeviation="1.5" in="shadowOffsetInner1" result="shadowBlurInner1"></feGaussianBlur>
            <feComposite in="shadowBlurInner1" in2="SourceAlpha" operator="arithmetic" k2="-1" k3="1" result="shadowInnerInner1"></feComposite>
            <feColorMatrix values="0 0 0 0 0   0 0 0 0 0   0 0 0 0 0  0 0 0 0.211022418 0" in="shadowInnerInner1" type="matrix" result="shadowMatrixInner1"></feColorMatrix>
            <feOffset dx="0" dy="0" in="SourceAlpha" result="shadowOffsetInner2"></feOffset>
            <feGaussianBlur stdDeviation="1.5" in="shadowOffsetInner2" result="shadowBlurInner2"></feGaussianBlur>
            <feComposite in="shadowBlurInner2" in2="SourceAlpha" operator="arithmetic" k2="-1" k3="1" result="shadowInnerInner2"></feComposite>
            <feColorMatrix values="0 0 0 0 0   0 0 0 0 0   0 0 0 0 0  0 0 0 0.20652457 0" in="shadowInnerInner2" type="matrix" result="shadowMatrixInner2"></feColorMatrix>
            <feMerge>
                <feMergeNode in="shadowMatrixOuter1"></feMergeNode>
                <feMergeNode in="SourceGraphic"></feMergeNode>
                <feMergeNode in="shadowMatrixInner1"></feMergeNode>
                <feMergeNode in="shadowMatrixInner2"></feMergeNode>
            </feMerge>
        </filter>
    </defs>
    <g id="slider-elements" stroke="none" stroke-width="1" fill="none" fill-rule="evenodd" sketch:type="MSPage">
        <g sketch:type="MSLayerGroup" transform="translate(-3.000000, -4.000000)">
            <g id="part">
                <mask id="mask-2" sketch:name="Mask" fill="white">
                    <use xlink:href="#path-1"></use>
                </mask>
                <use id="Mask" sketch:type="MSShapeGroup" xlink:href="#path-1"></use>
                <g id="Rectangle-1-+-Oval-1" mask="url(#mask-2)" sketch:type="MSShapeGroup">
                    <g transform="translate(4.000000, 4.000000)">
                        <path d="M3,21.307148 L3,134.692852 C1.12663639,136.945489 0,139.841174 0,143 C0,146.158826 1.12663639,149.054511 3,151.307148 L3,264.692852 C1.12663639,266.945489 0,269.841174 0,273 C0,280.179702 5.82029825,286 13,286 C20.1797017,286 26,280.179702 26,273 C26,269.841174 24.8733636,266.945489 23,264.692852 L23,264.692852 L23,151.307148 L23,151.307148 C24.8733636,149.054511 26,146.158826 26,143 C26,139.841174 24.8733636,136.945489 23,134.692852 L23,21.307148 C24.8733636,19.0545115 26,16.1588258 26,13 C26,5.82029825 20.1797017,0 13,0 C5.82029825,0 0,5.82029825 0,13 C0,16.1588258 1.12663639,19.0545115 3,21.307148 Z" id="Rectangle-1" stroke-opacity="0.18" stroke="#737A87" stroke-width="1" fill="url(#linearGradient-3)" filter="url(#filter-4)"></path>
                        <path d="M18,149.245371 C19.828925,147.77925 21,145.526385 21,143 C21,140.473615 19.828925,138.22075 18,136.754629 L18,19.245371 C19.828925,17.7792499 21,15.5263846 21,13 C21,8.581722 17.418278,5 13,5 C8.581722,5 5,8.581722 5,13 C5,15.5263846 6.17107503,17.7792499 8,19.245371 L8,136.754629 C6.17107503,138.22075 5,140.473615 5,143 C5,145.526385 6.17107503,147.77925 8,149.245371 L8,266.754629 C6.17107503,268.22075 5,270.473615 5,273 C5,277.418278 8.581722,281 13,281 C17.418278,281 21,277.418278 21,273 C21,270.473615 19.828925,268.22075 18,266.754629 L18,149.245371 Z" id="Oval-1" stroke="none" fill="#D1D6E1" filter="url(#filter-5)"></path>
                    </g>
                </g>
            </g>
            <g id="part-copy" transform="translate(0.000000, 45.000000)">
                <mask id="mask-7" sketch:name="Mask" fill="white">
                    <use xlink:href="#path-6"></use>
                </mask>
                <use id="Mask" sketch:type="MSShapeGroup" xlink:href="#path-6"></use>
                <g id="Rectangle-1-+-Oval-1" mask="url(#mask-7)" sketch:type="MSShapeGroup">
                    <g transform="translate(4.000000, -56.000000)">
                        <path d="M3,21.307148 L3,134.692852 C1.12663639,136.945489 0,139.841174 0,143 C0,146.158826 1.12663639,149.054511 3,151.307148 L3,264.692852 C1.12663639,266.945489 0,269.841174 0,273 C0,280.179702 5.82029825,286 13,286 C20.1797017,286 26,280.179702 26,273 C26,269.841174 24.8733636,266.945489 23,264.692852 L23,264.692852 L23,151.307148 L23,151.307148 C24.8733636,149.054511 26,146.158826 26,143 C26,139.841174 24.8733636,136.945489 23,134.692852 L23,21.307148 C24.8733636,19.0545115 26,16.1588258 26,13 C26,5.82029825 20.1797017,0 13,0 C5.82029825,0 0,5.82029825 0,13 C0,16.1588258 1.12663639,19.0545115 3,21.307148 Z" id="Rectangle-1" stroke-opacity="0.18" stroke="#737A87" stroke-width="1" fill="url(#linearGradient-3)" filter="url(#filter-8)"></path>
                        <path d="M18,149.245371 C19.828925,147.77925 21,145.526385 21,143 C21,140.473615 19.828925,138.22075 18,136.754629 L18,19.245371 C19.828925,17.7792499 21,15.5263846 21,13 C21,8.581722 17.418278,5 13,5 C8.581722,5 5,8.581722 5,13 C5,15.5263846 6.17107503,17.7792499 8,19.245371 L8,136.754629 C6.17107503,138.22075 5,140.473615 5,143 C5,145.526385 6.17107503,147.77925 8,149.245371 L8,266.754629 C6.17107503,268.22075 5,270.473615 5,273 C5,277.418278 8.581722,281 13,281 C17.418278,281 21,277.418278 21,273 C21,270.473615 19.828925,268.22075 18,266.754629 L18,149.245371 Z" id="Oval-1" stroke="none" fill="#D1D6E1" filter="url(#filter-9)"></path>
                    </g>
                </g>
            </g>
            <g id="part" transform="translate(0.000000, 66.000000)">
                <mask id="mask-11" sketch:name="Mask" fill="white">
                    <use xlink:href="#path-10"></use>
                </mask>
                <use id="Mask" sketch:type="MSShapeGroup" xlink:href="#path-10"></use>
                <g id="Rectangle-1-+-Oval-1" mask="url(#mask-11)" sketch:type="MSShapeGroup">
                    <g transform="translate(4.000000, -126.000000)">
                        <path d="M3,21.307148 L3,134.692852 C1.12663639,136.945489 0,139.841174 0,143 C0,146.158826 1.12663639,149.054511 3,151.307148 L3,264.692852 C1.12663639,266.945489 0,269.841174 0,273 C0,280.179702 5.82029825,286 13,286 C20.1797017,286 26,280.179702 26,273 C26,269.841174 24.8733636,266.945489 23,264.692852 L23,264.692852 L23,151.307148 L23,151.307148 C24.8733636,149.054511 26,146.158826 26,143 C26,139.841174 24.8733636,136.945489 23,134.692852 L23,21.307148 C24.8733636,19.0545115 26,16.1588258 26,13 C26,5.82029825 20.1797017,0 13,0 C5.82029825,0 0,5.82029825 0,13 C0,16.1588258 1.12663639,19.0545115 3,21.307148 Z" id="Rectangle-1" stroke-opacity="0.18" stroke="#737A87" stroke-width="1" fill="url(#linearGradient-3)" filter="url(#filter-12)"></path>
                        <path d="M18,149.245371 C19.828925,147.77925 21,145.526385 21,143 C21,140.473615 19.828925,138.22075 18,136.754629 L18,19.245371 C19.828925,17.7792499 21,15.5263846 21,13 C21,8.581722 17.418278,5 13,5 C8.581722,5 5,8.581722 5,13 C5,15.5263846 6.17107503,17.7792499 8,19.245371 L8,136.754629 C6.17107503,138.22075 5,140.473615 5,143 C5,145.526385 6.17107503,147.77925 8,149.245371 L8,266.754629 C6.17107503,268.22075 5,270.473615 5,273 C5,277.418278 8.581722,281 13,281 C17.418278,281 21,277.418278 21,273 C21,270.473615 19.828925,268.22075 18,266.754629 L18,149.245371 Z" id="Oval-1" stroke="none" fill="#D1D6E1" filter="url(#filter-13)"></path>
                    </g>
                </g>
            </g>
            <g id="part" transform="translate(0.000000, 111.000000)">
                <mask id="mask-15" sketch:name="Mask" fill="white">
                    <use xlink:href="#path-14"></use>
                </mask>
                <use id="Mask" sketch:type="MSShapeGroup" xlink:href="#path-14"></use>
                <g id="Rectangle-1-+-Oval-1" mask="url(#mask-15)" sketch:type="MSShapeGroup">
                    <g transform="translate(4.000000, -256.000000)">
                        <path d="M3,21.307148 L3,134.692852 C1.12663639,136.945489 0,139.841174 0,143 C0,146.158826 1.12663639,149.054511 3,151.307148 L3,264.692852 C1.12663639,266.945489 0,269.841174 0,273 C0,280.179702 5.82029825,286 13,286 C20.1797017,286 26,280.179702 26,273 C26,269.841174 24.8733636,266.945489 23,264.692852 L23,264.692852 L23,151.307148 L23,151.307148 C24.8733636,149.054511 26,146.158826 26,143 C26,139.841174 24.8733636,136.945489 23,134.692852 L23,21.307148 C24.8733636,19.0545115 26,16.1588258 26,13 C26,5.82029825 20.1797017,0 13,0 C5.82029825,0 0,5.82029825 0,13 C0,16.1588258 1.12663639,19.0545115 3,21.307148 Z" id="Rectangle-1" stroke-opacity="0.18" stroke="#737A87" stroke-width="1" fill="url(#linearGradient-3)" filter="url(#filter-16)"></path>
                        <path d="M18,149.245371 C19.828925,147.77925 21,145.526385 21,143 C21,140.473615 19.828925,138.22075 18,136.754629 L18,19.245371 C19.828925,17.7792499 21,15.5263846 21,13 C21,8.581722 17.418278,5 13,5 C8.581722,5 5,8.581722 5,13 C5,15.5263846 6.17107503,17.7792499 8,19.245371 L8,136.754629 C6.17107503,138.22075 5,140.473615 5,143 C5,145.526385 6.17107503,147.77925 8,149.245371 L8,266.754629 C6.17107503,268.22075 5,270.473615 5,273 C5,277.418278 8.581722,281 13,281 C17.418278,281 21,277.418278 21,273 C21,270.473615 19.828925,268.22075 18,266.754629 L18,149.245371 Z" id="Oval-1" stroke="none" fill="#D1D6E1" filter="url(#filter-17)"></path>
                    </g>
                </g>
            </g>
        </g>
    </g>
</svg>