<?xml version="1.0" encoding="UTF-8" standalone="no"?>
<svg width="300px" height="264px" viewBox="0 0 300 264" version="1.1" xmlns="http://www.w3.org/2000/svg" xmlns:xlink="http://www.w3.org/1999/xlink" xmlns:sketch="http://www.bohemiancoding.com/sketch/ns">
    <!-- Generator: Sketch 3.3.2 (12043) - http://www.bohemiancoding.com/sketch -->
    <title>desktop</title>
    <desc>Created with Sketch.</desc>
    <defs>
        <linearGradient x1="50.0152412%" y1="-0.0232469512%" x2="50.0152412%" y2="100.023247%" id="linearGradient-1">
            <stop stop-color="#EDF0F4" offset="0%"></stop>
            <stop stop-color="#E7EAF1" offset="100%"></stop>
        </linearGradient>
        <filter x="-50%" y="-50%" width="200%" height="200%" filterUnits="objectBoundingBox" id="filter-2">
            <feOffset dx="0" dy="1" in="SourceAlpha" result="shadowOffsetInner1"></feOffset>
            <feGaussianBlur stdDeviation="2" in="shadowOffsetInner1" result="shadowBlurInner1"></feGaussianBlur>
            <feComposite in="shadowBlurInner1" in2="SourceAlpha" operator="arithmetic" k2="-1" k3="1" result="shadowInnerInner1"></feComposite>
            <feColorMatrix values="0 0 0 0 0   0 0 0 0 0   0 0 0 0 0  0 0 0 0.21 0" in="shadowInnerInner1" type="matrix" result="shadowMatrixInner1"></feColorMatrix>
            <feMerge>
                <feMergeNode in="SourceGraphic"></feMergeNode>
                <feMergeNode in="shadowMatrixInner1"></feMergeNode>
            </feMerge>
        </filter>
        <filter x="-50%" y="-50%" width="200%" height="200%" filterUnits="objectBoundingBox" id="filter-3">
            <feOffset dx="0" dy="1" in="SourceAlpha" result="shadowOffsetInner1"></feOffset>
            <feGaussianBlur stdDeviation="1.5" in="shadowOffsetInner1" result="shadowBlurInner1"></feGaussianBlur>
            <feComposite in="shadowBlurInner1" in2="SourceAlpha" operator="arithmetic" k2="-1" k3="1" result="shadowInnerInner1"></feComposite>
            <feColorMatrix values="0 0 0 0 0   0 0 0 0 0   0 0 0 0 0  0 0 0 0.211022418 0" in="shadowInnerInner1" type="matrix" result="shadowMatrixInner1"></feColorMatrix>
            <feMerge>
                <feMergeNode in="SourceGraphic"></feMergeNode>
                <feMergeNode in="shadowMatrixInner1"></feMergeNode>
            </feMerge>
        </filter>
    </defs>
    <g id="desktop" stroke="none" stroke-width="1" fill="none" fill-rule="evenodd" sketch:type="MSPage">
        <g sketch:type="MSLayerGroup" id="Shape">
            <path d="M290,10.5 C283.3,3.8 275.2,0.5 265.8,0.5 L34.2,0.5 C24.9,0.5 16.6,4 10,10.5 C3.4,17.2 0,25.3 0,34.7 L0,192.1 C0,201.4 3.5,209.7 10,216.3 C16.7,223 24.8,226.3 34.2,226.3 L98.6,226.3 C97.8,228.1 97,229.8 96.1,231.4 C93.6,236.2 92.5,239.7 92.5,242.9 C92.5,248.4 94.6,253.3 98.5,257.3 C102.4,261.3 107.4,263.3 112.9,263.3 L187,263.3 C192.5,263.3 197.4,261.2 201.4,257.3 C205.3,253.4 207.4,248.4 207.4,242.9 C207.4,239.6 206.3,236.1 203.7,231.3 C202.9,229.8 202.1,228.1 201.3,226.2 L265.8,226.2 C275.1,226.2 283.4,222.7 290,216.2 C296.7,209.5 300,201.4 300,192 L300,34.8 C300.1,25.5 296.6,17.1 290,10.5 L290,10.5 Z M40.7,148.7 L40.7,41.2 L259.3,41.2 L259.3,148.6 L40.7,148.6 L40.7,148.7 Z" fill="url(#linearGradient-1)" filter="url(#filter-2)" sketch:type="MSShapeGroup"></path>
            <path d="M282.2,18.4 C277.6,13.8 272.2,11.6 265.9,11.6 L34.2,11.6 C27.9,11.6 22.4,13.9 17.9,18.4 C13.3,23 11.1,28.4 11.1,34.7 L11.1,192.1 C11.1,198.4 13.4,203.9 17.9,208.4 C22.5,213 27.9,215.2 34.2,215.2 L112.9,215.2 C112.9,218.9 112.1,222.6 110.6,226.5 C109.1,230.4 107.5,233.7 106,236.6 C104.5,239.5 103.7,241.6 103.7,242.9 C103.7,245.4 104.6,247.6 106.5,249.4 C108.3,251.2 110.5,252.2 113,252.2 L187,252.2 C189.5,252.2 191.7,251.3 193.5,249.4 C195.3,247.5 196.3,245.4 196.3,242.9 C196.3,241.7 195.5,239.5 194,236.6 C192.4,233.7 190.9,230.3 189.4,226.3 C187.9,222.3 187.1,218.6 187.1,215.1 L265.9,215.1 C272.2,215.1 277.7,212.8 282.2,208.3 C286.8,203.7 289,198.3 289,192 L289,34.7 C288.9,28.4 286.7,22.9 282.2,18.4 L282.2,18.4 Z M270.4,155.2 C270.4,156.4 270,157.5 269,158.5 C268.1,159.4 267,159.9 265.7,159.9 L34.2,159.9 C33,159.9 31.9,159.5 30.9,158.5 C30,157.6 29.5,156.5 29.5,155.2 L29.5,34.7 C29.5,33.5 29.9,32.4 30.9,31.4 C31.9,30.4 32.9,30 34.2,30 L265.8,30 C267,30 268.1,30.4 269.1,31.4 C270,32.3 270.5,33.4 270.5,34.7 L270.4,155.2 L270.4,155.2 Z" fill="#E4E4E4" filter="url(#filter-3)" sketch:type="MSShapeGroup"></path>
        </g>
    </g>
</svg>