<?xml version="1.0" encoding="UTF-8" standalone="no"?>
<svg width="196px" height="300px" viewBox="0 0 196 300" version="1.1" xmlns="http://www.w3.org/2000/svg" xmlns:xlink="http://www.w3.org/1999/xlink" xmlns:sketch="http://www.bohemiancoding.com/sketch/ns">
    <!-- Generator: Sketch 3.3.2 (12043) - http://www.bohemiancoding.com/sketch -->
    <title>smartphone</title>
    <desc>Created with Sketch.</desc>
    <defs>
        <linearGradient x1="50.0152412%" y1="-0.0232469512%" x2="50.0152412%" y2="100.023247%" id="linearGradient-1">
            <stop stop-color="#EDF0F4" offset="0%"></stop>
            <stop stop-color="#E7EAF1" offset="100%"></stop>
        </linearGradient>
        <filter x="-50%" y="-50%" width="200%" height="200%" filterUnits="objectBoundingBox" id="filter-2">
            <feOffset dx="0" dy="1" in="SourceAlpha" result="shadowOffsetInner1"></feOffset>
            <feGaussianBlur stdDeviation="2" in="shadowOffsetInner1" result="shadowBlurInner1"></feGaussianBlur>
            <feComposite in="shadowBlurInner1" in2="SourceAlpha" operator="arithmetic" k2="-1" k3="1" result="shadowInnerInner1"></feComposite>
            <feColorMatrix values="0 0 0 0 0   0 0 0 0 0   0 0 0 0 0  0 0 0 0.21 0" in="shadowInnerInner1" type="matrix" result="shadowMatrixInner1"></feColorMatrix>
            <feMerge>
                <feMergeNode in="SourceGraphic"></feMergeNode>
                <feMergeNode in="shadowMatrixInner1"></feMergeNode>
            </feMerge>
        </filter>
        <filter x="-50%" y="-50%" width="200%" height="200%" filterUnits="objectBoundingBox" id="filter-3">
            <feOffset dx="0" dy="1" in="SourceAlpha" result="shadowOffsetInner1"></feOffset>
            <feGaussianBlur stdDeviation="1.5" in="shadowOffsetInner1" result="shadowBlurInner1"></feGaussianBlur>
            <feComposite in="shadowBlurInner1" in2="SourceAlpha" operator="arithmetic" k2="-1" k3="1" result="shadowInnerInner1"></feComposite>
            <feColorMatrix values="0 0 0 0 0   0 0 0 0 0   0 0 0 0 0  0 0 0 0.211022418 0" in="shadowInnerInner1" type="matrix" result="shadowMatrixInner1"></feColorMatrix>
            <feMerge>
                <feMergeNode in="SourceGraphic"></feMergeNode>
                <feMergeNode in="shadowMatrixInner1"></feMergeNode>
            </feMerge>
        </filter>
    </defs>
    <g id="smartphone" stroke="none" stroke-width="1" fill="none" fill-rule="evenodd" sketch:type="MSPage">
        <g sketch:type="MSLayerGroup" id="Shape">
            <path d="M159.2,0 L36.8,0 C16.8,0 0.4,16.3 0.4,36.4 L0.4,263.6 C0.4,283.7 16.7,300 36.8,300 L159.2,300 C179.3,300 195.6,283.7 195.6,263.6 L195.6,36.4 C195.6,16.3 179.2,0 159.2,0 L159.2,0 Z M157.7,55.3 L157.7,209.8 L38.3,209.8 L38.3,55.3 L157.7,55.3 L157.7,55.3 Z" fill="url(#linearGradient-1)" filter="url(#filter-2)" sketch:type="MSShapeGroup"></path>
            <path d="M159.2,10.2 L36.8,10.2 C22.4,10.2 10.6,22 10.6,36.4 L10.6,263.6 C10.6,278 22.4,289.8 36.8,289.8 L159.2,289.8 C173.6,289.8 185.4,278 185.4,263.6 L185.4,36.4 C185.4,22 173.6,10.2 159.2,10.2 L159.2,10.2 Z M63,23.3 L133,23.3 L133,32 L63,32 L63,23.3 L63,23.3 Z M98,272.4 C88.3,272.4 80.5,264.6 80.5,254.9 C80.5,245.2 88.3,237.4 98,237.4 C107.7,237.4 115.5,245.2 115.5,254.9 C115.5,264.5 107.7,272.4 98,272.4 L98,272.4 Z M167.9,219.9 L28.1,219.9 L28.1,45.1 L167.9,45.1 L167.9,219.9 L167.9,219.9 Z" fill="#E4E4E4" filter="url(#filter-3)" sketch:type="MSShapeGroup"></path>
        </g>
    </g>
</svg>