<?xml version="1.0" encoding="UTF-8" standalone="no"?>
<svg width="230px" height="300px" viewBox="0 0 230 300" version="1.1" xmlns="http://www.w3.org/2000/svg" xmlns:xlink="http://www.w3.org/1999/xlink" xmlns:sketch="http://www.bohemiancoding.com/sketch/ns">
    <!-- Generator: Sketch 3.3.2 (12043) - http://www.bohemiancoding.com/sketch -->
    <title>tablet</title>
    <desc>Created with Sketch.</desc>
    <defs>
        <linearGradient x1="50.0152412%" y1="-0.0232469512%" x2="50.0152412%" y2="100.023247%" id="linearGradient-1">
            <stop stop-color="#EDF0F4" offset="0%"></stop>
            <stop stop-color="#E7EAF1" offset="100%"></stop>
        </linearGradient>
        <filter x="-50%" y="-50%" width="200%" height="200%" filterUnits="objectBoundingBox" id="filter-2">
            <feOffset dx="0" dy="1" in="SourceAlpha" result="shadowOffsetInner1"></feOffset>
            <feGaussianBlur stdDeviation="2" in="shadowOffsetInner1" result="shadowBlurInner1"></feGaussianBlur>
            <feComposite in="shadowBlurInner1" in2="SourceAlpha" operator="arithmetic" k2="-1" k3="1" result="shadowInnerInner1"></feComposite>
            <feColorMatrix values="0 0 0 0 0   0 0 0 0 0   0 0 0 0 0  0 0 0 0.21 0" in="shadowInnerInner1" type="matrix" result="shadowMatrixInner1"></feColorMatrix>
            <feMerge>
                <feMergeNode in="SourceGraphic"></feMergeNode>
                <feMergeNode in="shadowMatrixInner1"></feMergeNode>
            </feMerge>
        </filter>
        <filter x="-50%" y="-50%" width="200%" height="200%" filterUnits="objectBoundingBox" id="filter-3">
            <feOffset dx="0" dy="1" in="SourceAlpha" result="shadowOffsetInner1"></feOffset>
            <feGaussianBlur stdDeviation="1.5" in="shadowOffsetInner1" result="shadowBlurInner1"></feGaussianBlur>
            <feComposite in="shadowBlurInner1" in2="SourceAlpha" operator="arithmetic" k2="-1" k3="1" result="shadowInnerInner1"></feComposite>
            <feColorMatrix values="0 0 0 0 0   0 0 0 0 0   0 0 0 0 0  0 0 0 0.211022418 0" in="shadowInnerInner1" type="matrix" result="shadowMatrixInner1"></feColorMatrix>
            <feMerge>
                <feMergeNode in="SourceGraphic"></feMergeNode>
                <feMergeNode in="shadowMatrixInner1"></feMergeNode>
            </feMerge>
        </filter>
    </defs>
    <g id="tablet" stroke="none" stroke-width="1" fill="none" fill-rule="evenodd" sketch:type="MSPage">
        <g sketch:type="MSLayerGroup" id="Shape">
            <path d="M195.2,0 L34.8,0 C15.9,0 0.5,15.4 0.5,34.2 L0.5,265.7 C0.5,284.6 15.9,299.9 34.8,299.9 L195.2,299.9 C214.1,299.9 229.5,284.5 229.5,265.7 L229.5,34.2 C229.5,15.4 214.1,0 195.2,0 L195.2,0 Z M190.8,58.4 L190.8,235.4 L39.2,235.4 L39.2,58.4 L190.8,58.4 L190.8,58.4 Z" fill="url(#linearGradient-1)" filter="url(#filter-2)" sketch:type="MSShapeGroup"></path>
            <path d="M195.2,11.8 L34.8,11.8 C22.4,11.8 12.3,21.8 12.3,34.2 L12.3,265.7 C12.3,278.1 22.4,288.1 34.8,288.1 L195.2,288.1 C207.6,288.1 217.7,278.1 217.7,265.7 L217.7,34.2 C217.7,21.9 207.6,11.8 195.2,11.8 L195.2,11.8 Z M189.9,26.3 C192.2,26.3 194,28.1 194,30.4 C194,32.7 192.2,34.5 189.9,34.5 C187.7,34.5 185.8,32.7 185.8,30.4 C185.8,28.1 187.6,26.3 189.9,26.3 L189.9,26.3 Z M75.8,27.6 L154.2,27.6 L154.2,33.2 L75.8,33.2 L75.8,27.6 L75.8,27.6 Z M115,274.7 C110.6,274.7 107,271.1 107,266.8 C107,262.4 110.6,258.9 115,258.9 C119.4,258.9 123,262.4 123,266.8 C123,271.2 119.4,274.7 115,274.7 L115,274.7 Z M202.7,247.2 L27.3,247.2 L27.3,46.5 L202.7,46.5 L202.7,247.2 L202.7,247.2 Z" fill="#E4E4E4" filter="url(#filter-3)" sketch:type="MSShapeGroup"></path>
        </g>
    </g>
</svg>