<?xml version="1.0" encoding="utf-8"?>
<!-- Generator: Adobe Illustrator 18.1.1, SVG Export Plug-In . SVG Version: 6.00 Build 0)  -->
<!DOCTYPE svg PUBLIC "-//W3C//DTD SVG 1.1//EN" "http://www.w3.org/Graphics/SVG/1.1/DTD/svg11.dtd">
<svg version="1.1" id="Слой_1" xmlns="http://www.w3.org/2000/svg" xmlns:xlink="http://www.w3.org/1999/xlink" x="0px" y="0px"
	 viewBox="0 0 300 300" enable-background="new 0 0 300 300" xml:space="preserve">
<g>
	<g>
		<path fill-rule="evenodd" clip-rule="evenodd" fill="#EA8F65" d="M182.7,221.9h-26.6v64.4h0c0,0.1,0,0.2,0,0.4
			c0,7.3,6,13.3,13.3,13.3s13.3-6,13.3-13.3c0-0.1,0-0.3,0-0.4h0V221.9z"/>
		<path fill-rule="evenodd" clip-rule="evenodd" fill="#EA8F65" d="M114.1,286.3L114.1,286.3c0,0.1,0,0.2,0,0.4
			c0,7.3,6,13.3,13.3,13.3c7.3,0,13.3-6,13.3-13.3c0-0.1,0-0.3,0-0.4h0v-64.4h-26.6V286.3z"/>
	</g>
	<path fill-rule="evenodd" clip-rule="evenodd" fill="#142D46" d="M154.4,171.9h29.9v99.9h-29.9V171.9z"/>
	<path fill-rule="evenodd" clip-rule="evenodd" fill="#142D46" d="M112.5,171.9h29.8v99.9h-29.8V171.9z"/>
	<g>
		<path fill-rule="evenodd" clip-rule="evenodd" fill="#EA8F65" d="M243.7,162.7c-0.1-0.1-0.1-0.2-0.2-0.3l0,0l-25.4-52.9
			l-21.9,10.4l25.4,52.9l0,0c0.1,0.1,0.1,0.2,0.1,0.3c2.9,6,10.1,8.6,16.2,5.7C244,175.9,246.6,168.7,243.7,162.7z"/>
		<path fill-rule="evenodd" clip-rule="evenodd" fill="#EA8F65" d="M56.4,162.3L56.4,162.3c0,0.1-0.1,0.2-0.2,0.3
			c-2.9,6-0.3,13.2,5.7,16.1c6,2.9,13.3,0.3,16.2-5.7c0.1-0.1,0.1-0.2,0.1-0.3l0,0l25.4-52.9l-21.9-10.4L56.4,162.3z"/>
	</g>
	<path fill-rule="evenodd" clip-rule="evenodd" fill="#2772B9" d="M148.8,73.6l-13.7,0.8l-16.2-0.8c0,0-9.4-0.1-14.5,0
		c-5.2,0.1-8.8,4-10.5,7.3c-1.7,3.3-13.7,28.1-16.2,32.2c-3.1,5.1-0.9,6.8,1.6,8.1c2.5,1.2,13.9,8.4,17,9.7c3,1.3,5.1-0.3,6.5-3.2
		c1.4-2.9,4.8-9.7,4.8-9.7s0,12.4,0,22.6c0,10.4-1.2,19.5,2.4,22.6c0,1.9-1.3,0.7-2.4,3.2c1,1.6,2.9,2.5,2.4,4.8
		c-0.5,2.3-2.4,6.8-0.8,11.3c-0.4,3.1,73.2,4.6,79.2,0c0.3-4.1,1.3-9,0.8-11.3c-0.5-2.3,1.4-3.2,2.4-4.8c-1.1-2.6-2.4-1.3-2.4-3.2
		c3.7-3.1,2.4-15.3,2.4-22.6c0-10.2,0-22.6,0-22.6s5.1,7.6,6.5,10.5c1.4,2.9,3.4,4.5,6.5,3.2c3-1.3,14.4-8.5,17-9.7
		c2.5-1.2,4.7-3,1.6-8.1c-2.5-4.1-16.1-29.8-17.8-33c-1.7-3.3-5.3-7.1-10.5-7.3c-5.2-0.1-14.5,0-14.5,0l-16.2,0.8L148,73.6"/>
	<path fill-rule="evenodd" clip-rule="evenodd" fill="#EA8F65" d="M160.9,59.1h-11.3h-11.3c0,7.4,1.7,15.3-5.7,15.3
		c0,0,0.3,7.5,4,11.3c4.6,4.6,12.9,4.8,12.9,4.8s8.1-0.2,12.1-4c4.4-4.2,4.8-12.1,4.8-12.1C159.2,74.4,160.9,66.5,160.9,59.1z"/>
	<path fill-rule="evenodd" clip-rule="evenodd" fill="#F3A280" d="M149.6,4.3c16.1,0,29.1,13,29.1,29s-13,29-29.1,29
		c-16.1,0-29.1-13-29.1-29S133.5,4.3,149.6,4.3z"/>
	<path fill-rule="evenodd" clip-rule="evenodd" fill="#142D46" d="M164.1,1.9c-47.4-10.7-45.2,27.4-45.2,27.4
		c8.5-3.2,21.6-14.4,21.6-14.4c-8.1,6.9-6,13.5-6,13.5c0.4-8.2,12.1-11.9,12.1-11.9c-0.7,4.4-4.3,6.8-4.3,6.8
		c5.9-0.9,12.7-8.6,17.2-14.6c8.3,17.8,20.1,17.3,20.1,17.3C176.2,5.5,164.1,1.9,164.1,1.9z"/>
	<path fill-rule="evenodd" clip-rule="evenodd" fill="#142D46" d="M139.1,26.9c2.2,0,4,1.8,4,4s-1.8,4-4,4c-2.2,0-4-1.8-4-4
		S136.9,26.9,139.1,26.9z"/>
	<path fill-rule="evenodd" clip-rule="evenodd" fill="#142D46" d="M160.1,26.9c2.2,0,4,1.8,4,4s-1.8,4-4,4s-4-1.8-4-4
		S157.9,26.9,160.1,26.9z"/>
	<path fill-rule="evenodd" clip-rule="evenodd" fill="#FFFFFF" d="M139.1,44.8c0,0,9.3,12.1,21.1,0
		C160.1,44.8,152.4,47.9,139.1,44.8z"/>
</g>
</svg>
