<?xml version="1.0" encoding="utf-8"?>
<!-- Generator: Adobe Illustrator 18.1.1, SVG Export Plug-In . SVG Version: 6.00 Build 0)  -->
<!DOCTYPE svg PUBLIC "-//W3C//DTD SVG 1.1//EN" "http://www.w3.org/Graphics/SVG/1.1/DTD/svg11.dtd">
<svg version="1.1" id="Слой_1" xmlns="http://www.w3.org/2000/svg" xmlns:xlink="http://www.w3.org/1999/xlink" x="0px" y="0px"
	 viewBox="0 0 300 300" enable-background="new 0 0 300 300" xml:space="preserve">
<g>
	<g>
		<path fill="#EA8F65" d="M150.7,286.9L150.7,286.9c0,0.1,0,0.2,0,0.4c0,7,5.7,12.7,12.7,12.7c7,0,12.7-5.7,12.7-12.7
			c0-0.1,0-0.2,0-0.4h0v-61.5h-25.4V286.9z"/>
		<path fill="#EA8F65" d="M110.6,286.9L110.6,286.9c0,0.1,0,0.2,0,0.4c0,7,5.7,12.7,12.7,12.7c7,0,12.7-5.7,12.7-12.7
			c0-0.1,0-0.2,0-0.4h0v-61.5h-25.4V286.9z"/>
		<path fill="#EA8F65" d="M244.3,13.7l-0.4,0c0.7-4.3-1-8.9-4.9-11.6c-5.3-3.6-12.5-2.3-16,2.9c-1.2,1.8-1.8,3.8-1.9,5.8l-0.1,0
			c0,0,0,0.1,0.1,0.4c-0.1,1.9,0.4,3.8,1.2,5.6c1.5,7.6,3.2,21.4,0.3,33.8C217.9,69.9,204.9,81,204.9,81L224,94.2
			c0,0,15-19.2,20.2-41.1C247.5,38.9,244.3,13.7,244.3,13.7z"/>
		<path fill="#EA8F65" d="M55.6,168.6L55.6,168.6c0,0.1-0.1,0.2-0.2,0.3c-2.8,5.8-0.3,12.6,5.5,15.4c5.8,2.7,12.7,0.3,15.4-5.4
			c0.1-0.1,0.1-0.2,0.1-0.3l0,0l24.2-50.5l-20.9-10L55.6,168.6z"/>
	</g>
	<path fill-rule="evenodd" clip-rule="evenodd" fill="#142D46" d="M149.1,177.7h28.5v95.4h-28.5V177.7z"/>
	<path fill-rule="evenodd" clip-rule="evenodd" fill="#142D46" d="M109.1,177.7h28.5v95.4h-28.5V177.7z"/>
	<path fill-rule="evenodd" clip-rule="evenodd" fill="#2772B9" d="M143.8,83.9l-13.1,0.8l-15.4-0.8c0,0-8.9-0.1-13.9,0
		c-5,0.1-8.4,3.8-10,6.9c-1.6,3.1-13,26.8-15.4,30.8c-2.9,4.9-0.9,6.5,1.5,7.7c2.4,1.2,13.3,8,16.2,9.2c2.9,1.2,4.9-0.3,6.2-3.1
		c1.3-2.8,4.6-9.2,4.6-9.2s0,11.8,0,21.5c0,9.9-1.2,18.6,2.3,21.5c0,1.9-1.3,0.6-2.3,3.1c0.9,1.5,2.8,2.4,2.3,4.6
		c-0.5,2.2-2.3,6.5-0.8,10.8c-0.4,3,69.8,4.4,75.6,0c0.3-3.9,1.2-8.6,0.8-10.8c-0.5-2.2,1.4-3.1,2.3-4.6c-1.1-2.5-2.3-1.2-2.3-3.1
		c3.5-2.9,2.3-14.6,2.3-21.5c0-9.7,0-21.5,0-21.5s43.1-31.3,45-33.6c4.8-5.7,4.9-3.4,2.9-5.8c-2.9-3.6-11.4-15.2-14.6-17.5
		c-2.6-1.9-2-4.6-5.8,0c-4,4.9-6.4,5.1-11.7,8.8c-2.9,2-7.8,6.1-12.7,6c-5-0.1-13.9,0-13.9,0l-15.4,0.8L143,83.9"/>
	<path fill-rule="evenodd" clip-rule="evenodd" fill="#EA8F65" d="M155.3,70.1h-10.8h-10.8c0,7.1,1.6,14.6-5.4,14.6
		c0,0,0.3,7.2,3.9,10.8c4.4,4.4,12.3,4.6,12.3,4.6s7.7-0.2,11.6-3.8c4.2-4,4.6-11.5,4.6-11.5C153.7,84.7,155.3,77.2,155.3,70.1z"/>
	<path fill-rule="evenodd" clip-rule="evenodd" fill="#F3A280" d="M144.5,17.8c15.3,0,27.7,12.4,27.7,27.7s-12.4,27.7-27.7,27.7
		c-15.3,0-27.7-12.4-27.7-27.7S129.2,17.8,144.5,17.8z"/>
	<path fill-rule="evenodd" clip-rule="evenodd" fill="#142D46" d="M158.4,15.5c-45.3-10.2-43.2,26.1-43.2,26.1
		c8.1-3.1,20.6-13.7,20.6-13.7c-7.7,6.6-5.8,12.9-5.8,12.9c0.4-7.8,11.5-11.3,11.5-11.3c-0.7,4.2-4.1,6.5-4.1,6.5
		c5.6-0.8,12.2-8.3,16.4-13.9c8,17,19.2,16.5,19.2,16.5C170,18.9,158.4,15.5,158.4,15.5z"/>
	<path fill-rule="evenodd" clip-rule="evenodd" fill="#142D46" d="M134.5,39.3c2.1,0,3.8,1.7,3.8,3.8s-1.7,3.8-3.8,3.8
		c-2.1,0-3.8-1.7-3.8-3.8S132.4,39.3,134.5,39.3z"/>
	<path fill-rule="evenodd" clip-rule="evenodd" fill="#142D46" d="M154.6,39.3c2.1,0,3.8,1.7,3.8,3.8s-1.7,3.8-3.8,3.8
		c-2.1,0-3.8-1.7-3.8-3.8S152.4,39.3,154.6,39.3z"/>
	<path fill-rule="evenodd" clip-rule="evenodd" fill="#FFFFFF" d="M134.5,56.4c0,0,8.8,11.6,20.1,0
		C154.6,56.4,147.1,59.4,134.5,56.4z"/>
</g>
</svg>
