<?xml version="1.0" encoding="utf-8"?>
<!-- Generator: Adobe Illustrator 18.1.1, SVG Export Plug-In . SVG Version: 6.00 Build 0)  -->
<!DOCTYPE svg PUBLIC "-//W3C//DTD SVG 1.1//EN" "http://www.w3.org/Graphics/SVG/1.1/DTD/svg11.dtd">
<svg version="1.1" id="Слой_1" xmlns="http://www.w3.org/2000/svg" xmlns:xlink="http://www.w3.org/1999/xlink" x="0px" y="0px"
	 viewBox="0 0 300 300" enable-background="new 0 0 300 300" xml:space="preserve">
<g>
	<path fill-rule="evenodd" clip-rule="evenodd" fill="#EA8F65" d="M171,234.6h-22.3v54h0c0,0.1,0,0.2,0,0.3c0,6.2,5,11.1,11.1,11.1
		c6.2,0,11.1-5,11.1-11.1c0-0.1,0-0.2,0-0.3h0V234.6z"/>
	<path fill="#EA8F65" d="M135.8,234.6h-22.3v54h0c0,0.1,0,0.2,0,0.3c0,6.2,5,11.1,11.1,11.1c6.2,0,11.1-5,11.1-11.1
		c0-0.1,0-0.2,0-0.3h0V234.6z"/>
	<path fill-rule="evenodd" clip-rule="evenodd" fill="#EA8F65" d="M230.8,48.7l-0.3,0c0.6-3.8-0.9-7.8-4.3-10.2
		c-4.6-3.2-10.9-2-14.1,2.6c-1.1,1.6-1.6,3.3-1.7,5.1l-0.1,0c0,0,0,0.1,0.1,0.3c-0.1,1.7,0.3,3.4,1.1,4.9c1.3,6.7,2.8,18.7,0.3,29.7
		c-4,17-15.5,26.7-15.5,26.7l16.8,11.6c0,0,13.2-16.8,17.7-36.1C233.6,70.8,230.8,48.7,230.8,48.7z"/>
	<path fill-rule="evenodd" clip-rule="evenodd" fill="#EA8F65" d="M104.8,149.1l-18.3-8.7l-21.2,44.3l0,0c0,0.1-0.1,0.2-0.2,0.3
		c-2.4,5-0.3,11.1,4.8,13.5c5.1,2.4,11.1,0.3,13.5-4.8c0-0.1,0.1-0.2,0.1-0.3l0,0L104.8,149.1z"/>
	<path fill-rule="evenodd" clip-rule="evenodd" fill="#7EC5F1" d="M210.1,0h20.8c2.8,0,5,2.2,5,5v43.8c0,2.8-2.2,5-5,5h-20.8
		c-2.8,0-5-2.2-5-5V5C205.1,2.2,207.4,0,210.1,0z"/>
	<path fill="#142D46" d="M233.7,0h-26.4c-1.2,0-2.2,1-2.2,2.3v51.9c0,1.2,1,2.3,2.2,2.3h26.4c1.2,0,2.2-1,2.2-2.3V2.3
		C235.9,1,234.9,0,233.7,0z M220.5,1.9c0.9,0,1.6,0.8,1.6,1.7s-0.7,1.7-1.6,1.7s-1.6-0.8-1.6-1.7S219.6,1.9,220.5,1.9z M220.6,54.5
		c-1.3,0-2.3-1.1-2.3-2.4c0-1.3,1-2.4,2.3-2.4c1.3,0,2.3,1.1,2.3,2.4C222.9,53.5,221.8,54.5,220.6,54.5z M233.2,46.1
		c0,0.6-0.5,1.1-1.1,1.1h-23.2c-0.6,0-1.1-0.5-1.1-1.1V8.3c0-0.6,0.5-1.1,1.1-1.1h23.2c0.6,0,1.1,0.5,1.1,1.1V46.1z"/>
	<path fill-rule="evenodd" clip-rule="evenodd" fill="#142D46" d="M147.3,192.7h25.1v83.7h-25.1V192.7z"/>
	<path fill-rule="evenodd" clip-rule="evenodd" fill="#142D46" d="M112.1,192.7h25v83.7h-25V192.7z"/>
	<path fill-rule="evenodd" clip-rule="evenodd" fill="#2772B9" d="M142.6,110.4l-11.5,0.7l-13.5-0.7c0,0-7.8-0.1-12.2,0
		c-4.3,0.1-7.4,3.3-8.8,6.1c-1.4,2.7-11.4,23.5-13.5,27c-2.6,4.3-0.8,5.7,1.4,6.7c2.1,1,11.7,7,14.2,8.1c2.6,1.1,4.3-0.3,5.4-2.7
		c1.1-2.4,4.1-8.1,4.1-8.1s0,10.4,0,18.9c0,8.7-1,16.3,2,18.9c0,1.6-1.1,0.5-2,2.7c0.8,1.4,2.4,2.1,2,4c-0.4,1.9-2,5.7-0.7,9.4
		c-0.3,2.6,61.3,3.8,66.3,0c0.2-3.4,1.1-7.5,0.7-9.4c-0.4-1.9,1.2-2.7,2-4c-0.9-2.2-2-1.1-2-2.7c3.1-2.6,2-12.8,2-18.9
		c0-8.5,0-18.9,0-18.9s37.8-27.5,39.5-29.5c4.2-5,4.3-3,2.6-5.1c-2.5-3.1-10-13.3-12.8-15.4c-2.3-1.7-1.8-4-5.1,0
		c-3.5,4.3-5.6,4.4-10.3,7.7c-2.5,1.8-6.8,5.3-11.2,5.2c-4.3-0.1-12.2,0-12.2,0l-13.5,0.7l-13.5-0.7"/>
	<path fill-rule="evenodd" clip-rule="evenodd" fill="#EA8F65" d="M152.7,98.2h-9.5h-9.5c0,6.2,1.4,12.8-4.7,12.8
		c0,0,0.2,6.3,3.4,9.4c3.9,3.9,10.8,4,10.8,4s6.8-0.2,10.1-3.4c3.7-3.5,4.1-10.1,4.1-10.1C151.3,111,152.7,104.4,152.7,98.2z"/>
	<path fill-rule="evenodd" clip-rule="evenodd" fill="#F3A280" d="M143.2,52.3c13.4,0,24.3,10.9,24.3,24.3s-10.9,24.3-24.3,24.3
		c-13.4,0-24.3-10.9-24.3-24.3S129.8,52.3,143.2,52.3z"/>
	<path fill-rule="evenodd" clip-rule="evenodd" fill="#142D46" d="M155.4,50.3c-39.7-8.9-37.9,22.9-37.9,22.9
		c7.1-2.7,18.1-12.1,18.1-12.1c-6.8,5.8-5.1,11.3-5.1,11.3c0.3-6.8,10.1-9.9,10.1-9.9c-0.6,3.7-3.6,5.7-3.6,5.7
		c4.9-0.7,10.7-7.2,14.4-12.2c7,14.9,16.8,14.5,16.8,14.5C165.6,53.3,155.4,50.3,155.4,50.3z"/>
	<path fill-rule="evenodd" clip-rule="evenodd" fill="#142D46" d="M134.5,72.3c1.9,0,3.4,1.5,3.4,3.4c0,1.9-1.5,3.4-3.4,3.4
		c-1.9,0-3.4-1.5-3.4-3.4C131.1,73.8,132.6,72.3,134.5,72.3z"/>
	<path fill-rule="evenodd" clip-rule="evenodd" fill="#142D46" d="M152.1,72.3c1.9,0,3.4,1.5,3.4,3.4c0,1.9-1.5,3.4-3.4,3.4
		c-1.9,0-3.4-1.5-3.4-3.4C148.7,73.8,150.2,72.3,152.1,72.3z"/>
	<path fill-rule="evenodd" clip-rule="evenodd" fill="#FFFFFF" d="M134.4,87.3c0,0,7.8,10.1,17.6,0
		C152.1,87.3,145.5,89.9,134.4,87.3z"/>
</g>
</svg>
