<?xml version="1.0" encoding="utf-8"?>
<!-- Generator: Adobe Illustrator 18.1.1, SVG Export Plug-In . SVG Version: 6.00 Build 0)  -->
<!DOCTYPE svg PUBLIC "-//W3C//DTD SVG 1.1//EN" "http://www.w3.org/Graphics/SVG/1.1/DTD/svg11.dtd">
<svg version="1.1" id="Слой_1" xmlns="http://www.w3.org/2000/svg" xmlns:xlink="http://www.w3.org/1999/xlink" x="0px" y="0px"
	 viewBox="0 0 1015 300" enable-background="new 0 0 1015 300" xml:space="preserve">
<path fill="#C6C6C6" d="M421.5,220.3c-1.2,1.6-2.5,3.1-4,4.5c16.1,15.9,28.7,29.1,34.3,34.7h248v-39.2H421.5z"/>
<path fill="#4D4D4D" d="M451.8,259.6c-6.2-6.2-20.5-21.3-38.9-39.2c-41.8-40.9-104.3-96.9-137.1-96.9
	c-47.7,0-139.3,108.9-167.1,136.7h343.7C452.2,260,452,259.8,451.8,259.6z"/>
<path fill="#1A1A1A" d="M3.6,260.2C14.5,236,47.5,181.9,69,181.9c21.4,0,56.7,44.4,68.8,78.3H3.6z"/>
<g>
	<rect y="292.6" fill="#F6F6F6" width="1015" height="6.9"/>
	<g>
		<rect y="259.6" fill="#7C7C7C" width="1015" height="26.6"/>
		<g>
			<g>
				<rect y="259.6" fill="#595959" width="1015" height="5.2"/>
			</g>
			<rect y="264.7" fill="#E9E9E9" width="1015" height="1.3"/>
		</g>
		<g>
			<g>
				<rect y="287.4" fill="#595959" width="1015" height="5.2"/>
			</g>
			<rect y="286.2" fill="#E9E9E9" width="1015" height="1.3"/>
		</g>
	</g>
</g>
<g>
	<polygon fill="#B5B5B5" points="92.5,62.8 97.8,62.8 146,111 145.6,111 145.6,259.5 140.2,259.5 49.6,259.5 44.3,259.5 44.3,111 	
		"/>
	<polygon fill="#B5B5B5" points="165.3,62.8 170.6,62.8 218.8,111 218.4,111 218.4,259.5 213,259.5 122.4,259.5 117.1,259.5 
		117.1,111 	"/>
	<polygon fill="#1D1D1B" points="95.7,64.6 49.2,111 117.1,111 163.6,64.6 	"/>
	<g>
		<rect x="94.2" y="50.1" fill="#1D1D1B" width="22.3" height="2.9"/>
		<polygon fill="#DFDFDF" points="114.4,53 114.4,72.2 111,75.6 96.3,75.6 96.3,53 		"/>
	</g>
	<circle fill="#FFFFFF" cx="167.9" cy="97.9" r="9.4"/>
	<rect x="49.2" y="111" fill="#9E9E9E" width="67.9" height="148.5"/>
	<g>
		<g>
			<rect x="158.7" y="126.3" fill="#FFFFFF" width="4.5" height="12.4"/>
			<rect x="172.3" y="126.3" fill="#FFFFFF" width="4.5" height="12.4"/>
			<rect x="163.1" y="126.3" fill="#FFFFFF" width="9.2" height="12.4"/>
		</g>
		<g>
			<rect x="188.8" y="126.3" fill="#E9E9E9" width="4.5" height="12.4"/>
			<rect x="202.5" y="126.3" fill="#E9E9E9" width="4.5" height="12.4"/>
			<rect x="193.3" y="126.3" fill="#FFFFFF" width="9.2" height="12.4"/>
		</g>
		<g>
			<rect x="142.6" y="126.3" fill="#FFFFFF" width="4.5" height="12.4"/>
			<rect x="128.9" y="126.3" fill="#FFFFFF" width="4.5" height="12.4"/>
			<rect x="133.4" y="126.3" fill="#FFFFFF" width="9.2" height="12.4"/>
		</g>
		<g>
			<rect x="158.7" y="151.1" fill="#FFFFFF" width="4.5" height="12.4"/>
			<rect x="172.3" y="151.1" fill="#E9E9E9" width="4.5" height="12.4"/>
			<rect x="163.1" y="151.1" fill="#FFFFFF" width="9.2" height="12.4"/>
		</g>
		<g>
			<rect x="188.8" y="151.1" fill="#E9E9E9" width="4.5" height="12.4"/>
			<rect x="202.5" y="151.1" fill="#E9E9E9" width="4.5" height="12.4"/>
			<rect x="193.3" y="151.1" fill="#FFFFFF" width="9.2" height="12.4"/>
		</g>
		<g>
			<rect x="142.6" y="151.1" fill="#FFFFFF" width="4.5" height="12.4"/>
			<rect x="128.9" y="151.1" fill="#FFFFFF" width="4.5" height="12.4"/>
			<rect x="133.4" y="151.1" fill="#FFFFFF" width="9.2" height="12.4"/>
		</g>
	</g>
	<g>
		<g>
			<rect x="87.2" y="126.3" fill="#FFFFFF" width="4.5" height="12.4"/>
			<rect x="100.9" y="126.3" fill="#FFFFFF" width="4.5" height="12.4"/>
			<rect x="91.7" y="126.3" fill="#FFFFFF" width="9.2" height="12.4"/>
		</g>
		<g>
			<rect x="71.5" y="126.3" fill="#FFFFFF" width="4.5" height="12.4"/>
			<rect x="57.8" y="126.3" fill="#FFFFFF" width="4.5" height="12.4"/>
			<rect x="62.3" y="126.3" fill="#FFFFFF" width="9.2" height="12.4"/>
		</g>
		<g>
			<rect x="87.2" y="151.1" fill="#FFFFFF" width="4.5" height="12.4"/>
			<rect x="100.9" y="151.1" fill="#FFFFFF" width="4.5" height="12.4"/>
			<rect x="91.7" y="151.1" fill="#FFFFFF" width="9.2" height="12.4"/>
		</g>
		<g>
			<rect x="71.5" y="151.1" fill="#FFFFFF" width="4.5" height="12.4"/>
			<rect x="57.8" y="151.1" fill="#FFFFFF" width="4.5" height="12.4"/>
			<rect x="62.3" y="151.1" fill="#FFFFFF" width="9.2" height="12.4"/>
		</g>
	</g>
	<rect x="117.1" y="215.5" fill="#C8C8C8" width="101.3" height="44"/>
	<rect x="49.2" y="215.5" fill="#ADADAD" width="67.9" height="44"/>
	<rect x="44.3" y="215.5" fill="#C8C8C8" width="4.9" height="44"/>
	<g>
		<g>
			<g>
				<rect x="59.4" y="226" fill="#F5F5F5" width="16.3" height="21.9"/>
			</g>
			<g>
				<rect x="59.4" y="226" fill="#9C9C9C" width="3.5" height="21.9"/>
			</g>
		</g>
		<g>
			<g>
				<rect x="87.8" y="226" fill="#F5F5F5" width="16.3" height="21.9"/>
			</g>
			<g>
				<rect x="87.8" y="226" fill="#9C9C9C" width="3.5" height="21.9"/>
			</g>
		</g>
	</g>
	<g>
		<g>
			<g>
				<rect x="144.1" y="226" fill="#F5F5F5" width="16.3" height="21.9"/>
			</g>
			<g>
				<rect x="156.9" y="226" fill="#BBBBBB" width="3.5" height="21.9"/>
			</g>
		</g>
		<g>
			<g>
				<rect x="175.5" y="226" fill="#F5F5F5" width="16.3" height="21.9"/>
			</g>
			<g>
				<rect x="188.3" y="226" fill="#BBBBBB" width="3.5" height="21.9"/>
			</g>
		</g>
	</g>
</g>
<g>
	<polygon fill="#6D6D6D" points="279.7,116.6 274.1,116.6 223.5,167.2 224,167.2 224,259.5 229.6,259.5 324.7,259.5 330.3,259.5 
		330.3,167.2 	"/>
	<polygon fill="#6D6D6D" points="203.3,116.6 197.7,116.6 147.1,167.2 147.5,167.2 147.5,259.5 153.2,259.5 248.3,259.5 
		253.9,259.5 253.9,167.2 	"/>
	<polygon fill="#191919" points="276.4,118.4 325.1,167.2 253.9,167.2 205.1,118.4 	"/>
	<g>
		<rect x="254.5" y="103.2" fill="#B9B9B9" width="23.4" height="3"/>
		<polygon fill="#ACACAC" points="256.7,106.2 256.7,126.3 260.3,129.9 275.7,129.9 275.7,106.2 		"/>
	</g>
	<circle fill="#FFFFFF" cx="200.5" cy="153.3" r="9.8"/>
	<rect x="253.9" y="167.2" fill="#4D4D4D" width="71.2" height="92.4"/>
	<g>
		<g>
			<rect x="205.6" y="183.2" width="4.7" height="13.1"/>
			<rect x="191.2" y="183.2" width="4.7" height="13.1"/>
			<rect x="195.9" y="183.2" fill="#FFFFFF" width="9.7" height="13.1"/>
		</g>
		<g>
			<rect x="173.9" y="183.2" width="4.7" height="13.1"/>
			<rect x="159.6" y="183.2" width="4.7" height="13.1"/>
			<rect x="164.2" y="183.2" fill="#FFFFFF" width="9.7" height="13.1"/>
		</g>
		<g>
			<rect x="222.4" y="183.2" width="4.7" height="13.1"/>
			<rect x="236.8" y="183.2" width="4.7" height="13.1"/>
			<rect x="227.1" y="183.2" fill="#FFFFFF" width="9.7" height="13.1"/>
		</g>
		<g>
			<rect x="205.6" y="209.3" width="4.7" height="13.1"/>
			<rect x="191.2" y="209.3" width="4.7" height="13.1"/>
			<rect x="195.9" y="209.3" fill="#FFFFFF" width="9.7" height="13.1"/>
		</g>
		<g>
			<rect x="173.9" y="209.3" width="4.7" height="13.1"/>
			<rect x="159.6" y="209.3" width="4.7" height="13.1"/>
			<rect x="164.2" y="209.3" fill="#FFFFFF" width="9.7" height="13.1"/>
		</g>
		<g>
			<rect x="222.4" y="209.3" width="4.7" height="13.1"/>
			<rect x="236.8" y="209.3" width="4.7" height="13.1"/>
			<rect x="227.1" y="209.3" fill="#FFFFFF" width="9.7" height="13.1"/>
		</g>
	</g>
	<g>
		<g>
			<rect x="280.6" y="183.2" width="4.7" height="13.1"/>
			<rect x="266.2" y="183.2" width="4.7" height="13.1"/>
			<rect x="270.9" y="183.2" fill="#FFFFFF" width="9.7" height="13.1"/>
		</g>
		<g>
			<rect x="297" y="183.2" width="4.7" height="13.1"/>
			<rect x="311.4" y="183.2" width="4.7" height="13.1"/>
			<rect x="301.7" y="183.2" fill="#FFFFFF" width="9.7" height="13.1"/>
		</g>
		<g>
			<rect x="280.6" y="209.3" width="4.7" height="13.1"/>
			<rect x="266.2" y="209.3" width="4.7" height="13.1"/>
			<rect x="270.9" y="209.3" fill="#FFFFFF" width="9.7" height="13.1"/>
		</g>
		<g>
			<rect x="297" y="209.3" width="4.7" height="13.1"/>
			<rect x="311.4" y="209.3" width="4.7" height="13.1"/>
			<rect x="301.7" y="209.3" fill="#FFFFFF" width="9.7" height="13.1"/>
		</g>
	</g>
	<rect x="147.5" y="244.8" fill="#9C9C9C" width="106.3" height="14.7"/>
	<rect x="253.9" y="244.8" fill="#8D8D8D" width="71.2" height="14.7"/>
	<rect x="325.1" y="244.8" fill="#6D6D6D" width="5.2" height="14.7"/>
</g>
<g>
	<path fill="#1A1A1A" d="M499.2,276.2H576c2.7,0,4.8-2.2,4.8-4.8c0-2.7-2.2-4.8-4.8-4.8h-76.8c-2.7,0-4.8,2.2-4.8,4.8
		C494.4,274.1,496.6,276.2,499.2,276.2z"/>
	<path fill="#333333" d="M495.5,245.5c0.8-14.5,10.9-30.7,16.8-30.7h24.5c3.8,0,21.4,16.6,22.9,23.2h13c4.6,0,8.4,3.8,8.4,8.4v8.4
		c0,4.6-3.8,8.4-8.4,8.4h-68.8c-4.6,0-8.4-3.8-8.4-8.4v-8.4C495.4,246.1,495.4,245.8,495.5,245.5z"/>
	<g>
		<path fill="#7F7F7F" d="M549.1,261.2c0-5.9,4.8-10.7,10.7-10.7c5.9,0,10.7,4.8,10.7,10.7c0,5.9-4.8,10.7-10.7,10.7
			C553.9,272,549.1,267.1,549.1,261.2z"/>
		<path fill="#C8C8C8" d="M554.9,261.2c0-2.7,2.2-5,5-5c2.7,0,5,2.2,5,5c0,2.7-2.2,5-5,5C557.1,266.2,554.9,263.9,554.9,261.2z"/>
	</g>
	<g>
		<path fill="#7F7F7F" d="M502.9,261.2c0-5.9,4.8-10.7,10.7-10.7c5.9,0,10.7,4.8,10.7,10.7c0,5.9-4.8,10.7-10.7,10.7
			C507.7,272,502.9,267.1,502.9,261.2z"/>
		<path fill="#C8C8C8" d="M508.7,261.2c0-2.7,2.2-5,5-5c2.7,0,5,2.2,5,5c0,2.7-2.2,5-5,5C510.9,266.2,508.7,263.9,508.7,261.2z"/>
	</g>
	<path fill="#7A7A7A" d="M511.1,220.3h26.7c3.8,3.1,15.5,15.5,11.5,15.5c-3,0-46.4,0-46.4,0C505.2,229,508.6,223,511.1,220.3z"/>
	<path fill="#DADADA" d="M495.4,246.4h2.7c0.7,0,1.4,0.6,1.4,1.4v1.4c0,0.7-0.6,1.4-1.4,1.4h-2.7L495.4,246.4
		C495.4,246.4,495.4,246.4,495.4,246.4z"/>
	<path fill="#DADADA" d="M578.9,242.9h1.3c0.5,1.1,0.8,2.2,0.8,3.5v2.6h-2.1c-1.1,0-2-0.9-2-2v-2
		C576.9,243.9,577.8,242.9,578.9,242.9z"/>
	<g>
		<path fill="#7F7F7F" d="M494.8,255c-1,0-1.8,0.8-1.8,1.8v1.8c0,1,0.8,1.8,1.8,1.8h2.8c1,0,1.8-0.8,1.8-1.8v-1.8
			c0-1-0.8-1.8-1.8-1.8H494.8z"/>
	</g>
	<g>
		<path fill="#7F7F7F" d="M579.6,255c-1,0-1.8,0.8-1.8,1.8v1.8c0,1,0.8,1.8,1.8,1.8h2.8c1,0,1.8-0.8,1.8-1.8v-1.8
			c0-1-0.8-1.8-1.8-1.8H579.6z"/>
	</g>
	<path fill="#EDEDED" d="M547.6,238.8c1.6,0,3-1.3,3-3c0-1.6-1.3-3-3-3V238.8z"/>
</g>
<g>
	<path fill="#F2F2F2" d="M452.6,82.7c-13.8,0-25-11.2-25-25c0-13.8,11.2-25,25-25c13.8,0,25,11.2,25,25
		C477.6,71.5,466.4,82.7,452.6,82.7z M452.6,35.8c-12.1,0-22,9.9-22,22c0,12.1,9.9,22,22,22s22-9.9,22-22
		C474.6,45.6,464.8,35.8,452.6,35.8z"/>
	<circle fill="#CCCCCC" cx="452.6" cy="57.8" r="19.5"/>
</g>
<g>
	<path fill="#E6E6E6" d="M581.5,58.5c-1.4-5.2-6.1-9-11.8-9c-0.7,0-1.3,0.1-2,0.2c-3.2-4.2-8.2-6.9-13.9-6.9
		c-5.6,0-10.6,2.6-13.8,6.7c-0.2,0-0.4,0-0.6,0c-5.4,0-10,3.5-11.6,8.4c-5.5,0.4-9.8,5-9.8,10.6c0,5.9,4.8,10.7,10.7,10.7h49.3v0
		c5.7-0.2,10.3-4.9,10.3-10.7C588.5,63.9,585.6,59.9,581.5,58.5z"/>
	<path fill="#F2F2F2" d="M581.5,58.5c-1.4-5.2-6.1-9-11.8-9c-0.7,0-1.3,0.1-2,0.2c-3.2-4.2-8.2-6.9-13.9-6.9c-0.2,0-0.4,0-0.5,0
		v36.4h24.8v0c5.7-0.2,10.3-4.9,10.3-10.7C588.5,63.9,585.6,59.9,581.5,58.5z"/>
</g>
<g>
	<path fill="#E6E6E6" d="M406.4,88.4c1,0,1.9,0.2,2.8,0.4c1.3-6.7,7.1-11.7,14.2-11.7c4.1,0,7.8,1.7,10.5,4.5c0.5-0.1,1-0.1,1.5-0.1
		c4.5,0,8.3,3,9.6,7.1c0.6-0.1,1.2-0.2,1.9-0.2c4.9,0,8.8,3.9,8.8,8.8c0,4.9-3.9,8.8-8.8,8.8h-40.7v0c-4.7-0.2-8.5-4-8.5-8.8
		C397.6,92.3,401.6,88.4,406.4,88.4z"/>
	<path fill="#F2F2F2" d="M423.4,77.1c-7,0-12.9,5-14.2,11.7c-0.9-0.3-1.8-0.4-2.8-0.4c-4.9,0-8.8,3.9-8.8,8.8c0,4.8,3.8,8.6,8.5,8.8
		v0h20.5V77.5C425.6,77.3,424.5,77.1,423.4,77.1z"/>
</g>
<g>
	<path fill="#7F7F7F" d="M567.4,138.7h-1.2c0-5.3-4.3-9.6-9.6-9.6c-2.8,0-5.5,1.3-7.4,3.4l-0.9-0.8c2.1-2.5,5.1-3.9,8.3-3.9
		c4.7,0,8.7,3,10.2,7.2c1.5-4.2,5.5-7.2,10.2-7.2c3.2,0,6.2,1.4,8.3,3.9l-0.9,0.8c-1.8-2.2-4.5-3.4-7.4-3.4
		C571.7,129.1,567.4,133.4,567.4,138.7z"/>
	<path fill="#7F7F7F" d="M587.5,120.6h-1.2c0-5.3-4.3-9.6-9.6-9.6c-2.8,0-5.5,1.3-7.4,3.4l-0.9-0.8c2.1-2.5,5.1-3.9,8.3-3.9
		c4.7,0,8.7,3,10.2,7.2c1.5-4.2,5.5-7.2,10.2-7.2c3.2,0,6.2,1.4,8.3,3.9l-0.9,0.8c-1.8-2.2-4.5-3.4-7.4-3.4
		C591.8,111,587.5,115.3,587.5,120.6z"/>
	<path fill="#7F7F7F" d="M610.6,133.6h-1.2c0-5.3-4.3-9.6-9.6-9.6c-2.8,0-5.5,1.3-7.4,3.4l-0.9-0.8c2.1-2.5,5.1-3.9,8.3-3.9
		c4.7,0,8.7,3,10.2,7.2c1.5-4.2,5.5-7.2,10.2-7.2c3.2,0,6.2,1.4,8.3,3.9l-0.9,0.8c-1.8-2.2-4.5-3.4-7.4-3.4
		C614.9,124,610.6,128.3,610.6,133.6z"/>
	<path fill="#7F7F7F" d="M617.4,105.2h-1.2c0-5.3-4.3-9.6-9.6-9.6c-2.8,0-5.5,1.3-7.4,3.4l-0.9-0.8c2.1-2.5,5.1-3.9,8.3-3.9
		c4.7,0,8.7,3,10.2,7.2c1.5-4.2,5.5-7.2,10.2-7.2c3.2,0,6.2,1.4,8.3,3.9l-0.9,0.8c-1.8-2.2-4.5-3.4-7.4-3.4
		C621.7,95.7,617.4,100,617.4,105.2z"/>
</g>
<g>
	<path fill="#878787" d="M393.5,232.1v28h8.9v-28c-1.5,0.2-2.9,0.3-4.4,0.3C396.4,232.4,394.9,232.3,393.5,232.1z"/>
	<path fill="#BBBBBB" d="M397.9,228.8v-54.2c-16,0-28.9,12.9-28.9,28.9c0,14.5,10.6,26.4,24.5,28.6v-3.3H397.9z"/>
	<path fill="#BBBBBB" d="M397.9,228.8h-4.4v3.3c1.5,0.2,2.9,0.3,4.4,0.3V228.8z"/>
	<path fill="#B2B2B2" d="M421.5,220.3c3.4-4.7,5.4-10.5,5.4-16.8c0-16-12.9-28.9-28.9-28.9v54.2h4.4v3.3c5.8-0.9,11-3.5,15.1-7.3
		c-1.5-1.5-3-3-4.6-4.5H421.5z"/>
	<path fill="#B2B2B2" d="M421.5,220.3h-8.6c1.6,1.5,3.1,3,4.6,4.5C419,223.5,420.3,222,421.5,220.3z"/>
	<path fill="#B2B2B2" d="M397.9,228.8v3.7c1.5,0,3-0.1,4.4-0.3v-3.3H397.9z"/>
</g>
<g>
	<rect x="353.2" y="240.3" fill="#878787" width="5.4" height="19.1"/>
	<circle fill="#BBBBBB" cx="355.9" cy="224.9" r="17.6"/>
	<path fill="#B2B2B2" d="M355.9,207.3v35.3c9.7,0,17.6-7.9,17.6-17.6C373.6,215.1,365.7,207.3,355.9,207.3z"/>
</g>
<g>
	<polygon fill="#666666" points="649.8,231.9 674,137.6 698.2,231.9 	"/>
	<polygon fill="#333333" points="674,137.6 674,231.9 698.2,231.9 	"/>
	<rect x="667.5" y="231.9" fill="#1A1A1A" width="13.1" height="27.5"/>
</g>
<g>
	<polygon fill="#666666" points="611.1,236.9 630.8,159.9 650.6,236.9 	"/>
	<polygon fill="#333333" points="630.8,159.9 630.8,236.9 650.6,236.9 	"/>
	<rect x="625.5" y="236.9" fill="#1A1A1A" width="10.7" height="22.5"/>
</g>
<g>
	<polygon fill="#BBBBBB" points="0,236.9 19.7,159.9 39.5,236.9 	"/>
	<polygon fill="#B2B2B2" points="19.7,159.9 19.7,236.9 39.5,236.9 	"/>
	<rect x="14.4" y="236.9" fill="#878787" width="10.7" height="22.5"/>
</g>
<g>
	<rect x="734.8" y="220.3" fill="#C6C6C6" width="280.2" height="39.2"/>
	<rect x="699.8" y="220.3" fill="#4D4D4D" width="35" height="39.2"/>
	<rect x="766.1" y="220.3" fill="#4D4D4D" width="35" height="39.2"/>
	<rect x="832.4" y="220.3" fill="#4D4D4D" width="35" height="39.2"/>
	<rect x="898.7" y="220.3" fill="#4D4D4D" width="35" height="39.2"/>
	<rect x="965" y="220.3" fill="#4D4D4D" width="35" height="39.2"/>
	<rect x="699.8" y="209.3" fill="#888888" width="315.2" height="11.1"/>
	<path fill="#DBDBDB" d="M700.3,209.9l5.9-28.9h59.5c0,0,10.2-59.4,92.3-59.4s92.3,59.4,92.3,59.4h57l7.5,28.9H700.3z"/>
	<rect x="774.9" y="180.7" fill="#6D6D6D" width="167.5" height="28.6"/>
	<rect x="785.9" y="172.1" fill="#838383" width="145.4" height="8.8"/>
	<rect x="794.8" y="163.3" fill="#5B5B5B" width="127.7" height="8.8"/>
	<ellipse fill="#FFFFFF" cx="859.3" cy="145.3" rx="21" ry="13.2"/>
	<rect x="804.2" y="154.1" fill="#838383" width="108.8" height="8.8"/>
	<rect x="813.4" y="145.3" fill="#5B5B5B" width="90.5" height="8.8"/>
	<rect x="788.5" y="191" fill="#838383" width="34.5" height="10"/>
	<rect x="842" y="191" fill="#5B5B5B" width="34.5" height="10"/>
	<rect x="894.9" y="191" fill="#838383" width="34.5" height="10"/>
	<polygon fill="#9C9C9C" points="813.4,133.4 774.9,170.2 774.9,180.7 776,180.9 776,170.9 785.9,161.3 785.9,172.1 786.9,172.1 
		786.9,160.4 794.8,152.8 794.8,163.3 795.7,163.3 795.7,151.9 804.2,143.6 804.2,154.1 805.2,154.1 805.2,142.7 813.4,134.9 
		813.4,145.3 814.6,145.3 814.6,133.4 	"/>
	<polygon fill="#9C9C9C" points="903.9,133.4 942.4,170.2 942.4,180.7 941.2,180.9 941.2,170.9 931.3,161.3 931.3,172.1 
		930.4,172.1 930.4,160.4 922.5,152.8 922.5,163.3 921.5,163.3 921.5,151.9 913,143.6 913,154.1 912,154.1 912,142.7 903.9,134.9 
		903.9,145.3 902.6,145.3 902.6,133.4 	"/>
	<polyline fill="none" stroke="#FFFFFF" stroke-width="2" stroke-miterlimit="10" points="724,191 724,246 986,246 986,191 	"/>
	<polyline fill="none" stroke="#FFFFFF" stroke-width="2" stroke-miterlimit="10" points="724,191 699.8,239 724,239 	"/>
	<line fill="none" stroke="#FFFFFF" stroke-miterlimit="10" x1="724" y1="207" x2="708" y2="238.8"/>
	<line fill="none" stroke="#FFFFFF" stroke-miterlimit="10" x1="724.4" y1="220.3" x2="714.8" y2="238.9"/>
	<line fill="none" stroke="#FFFFFF" stroke-miterlimit="10" x1="705.3" y1="228.1" x2="719.6" y2="240"/>
	<line fill="none" stroke="#FFFFFF" stroke-miterlimit="10" x1="708.8" y1="222.2" x2="723.1" y2="234"/>
	<line fill="none" stroke="#FFFFFF" stroke-miterlimit="10" x1="712.4" y1="214.3" x2="724.5" y2="224.4"/>
	<line fill="none" stroke="#FFFFFF" stroke-miterlimit="10" x1="716" y1="205.8" x2="724.5" y2="212.9"/>
	<polyline fill="none" stroke="#FFFFFF" stroke-width="2" stroke-miterlimit="10" points="986.5,191 1010.7,239 986.5,239 	"/>
	<line fill="none" stroke="#FFFFFF" stroke-miterlimit="10" x1="986.5" y1="207" x2="1002.5" y2="238.8"/>
	<line fill="none" stroke="#FFFFFF" stroke-miterlimit="10" x1="986.1" y1="220.3" x2="995.7" y2="238.9"/>
	<line fill="none" stroke="#FFFFFF" stroke-miterlimit="10" x1="1005.2" y1="228.1" x2="990.9" y2="240"/>
	<line fill="none" stroke="#FFFFFF" stroke-miterlimit="10" x1="1001.7" y1="222.2" x2="987.3" y2="234"/>
	<line fill="none" stroke="#FFFFFF" stroke-miterlimit="10" x1="998.1" y1="214.3" x2="986" y2="224.4"/>
	<line fill="none" stroke="#FFFFFF" stroke-miterlimit="10" x1="994.5" y1="205.8" x2="986" y2="212.9"/>
</g>
<ellipse fill="#FFFFFF" cx="859.2" cy="214.3" rx="14.2" ry="14.2"/>
<g>
	<path fill="#030303" d="M854,204.2c0.9-1.1,1.7-2.1,2.6-3.2c-0.1-0.2-0.3-0.3-0.4-0.5c1.8-0.4,3.7-0.4,5.5-0.1
		c-0.1,0.2-0.3,0.3-0.4,0.5c0.8,1,1.6,2,2.4,3c1.5,0.2,2.9,0.3,4.4,0.5c0.1-0.3,0.3-0.6,0.4-0.8c-0.2-0.1-0.3-0.3-0.5-0.4
		c-1.3-1-2.8-1.8-4.4-2.4c-2.3-0.7-4.8-0.9-7.1-0.4c-2.5,0.5-4.9,1.7-6.8,3.4c0.2,0.3,0.2,0.7,0.4,1.1
		C851.4,204.6,852.7,204.4,854,204.2z"/>
	<path fill="#030303" d="M861.3,207.5c0.8-1.2,1.5-2.4,2.3-3.6c-0.8-1-1.6-2-2.4-3c-1.5,0.1-3,0.1-4.5,0.1c-0.9,1.1-1.7,2.1-2.6,3.2
		c0.7,1.1,1.3,2.2,2,3.4C857.8,207.5,859.6,207.5,861.3,207.5z"/>
	<path fill="#030303" d="M870.7,208.2c0.5,0.1,1,0.1,1.5,0.3c-0.3-0.5-0.5-1-0.8-1.5c-0.8-1.2-1.7-2.4-2.8-3.3
		c-0.1,0.3-0.3,0.5-0.4,0.8C869,205.7,869.9,206.9,870.7,208.2z"/>
	<path fill="#030303" d="M850.1,204.9c-0.1-0.4-0.2-0.7-0.4-1.1c-1.5,1.3-2.7,2.9-3.5,4.7c-0.1,0.1-0.1,0.3-0.2,0.4
		c0.5-0.2,1.1-0.3,1.7-0.4C848.5,207.3,849.3,206.1,850.1,204.9z"/>
	<path fill="#030303" d="M861.4,216.4c0.9-1.5,1.7-3.1,2.6-4.6c-0.9-1.4-1.7-2.9-2.6-4.3c-1.8,0-3.5,0.1-5.3,0.1
		c-0.9,1.4-1.7,2.9-2.6,4.3c0.8,1.5,1.7,3,2.5,4.5C857.8,216.4,859.6,216.4,861.4,216.4z"/>
	<path fill="#030303" d="M872.3,208.5c-0.5-0.1-1-0.2-1.5-0.2c-0.6,1.3-1.1,2.5-1.7,3.8c0.7,1.4,1.4,2.9,2.1,4.3c0.7,0,1.4,0,2.2,0
		c-0.3,1.9-0.9,3.8-1.9,5.4c-0.4,0.7-0.9,1.3-1.4,1.9c-0.4-1-0.9-2-1.3-2.9c-1.6,0.1-3.2,0.1-4.7,0.2c-0.9,1.3-1.8,2.6-2.7,4
		c0.7,1,1.5,2,2.2,3c-0.1,0-0.1-0.1-0.2-0.1c-0.7-1-1.4-2-2.1-2.9c-1.6,0-3.3-0.1-4.9-0.1c-0.6,1-1.2,2-1.8,3c2.2,0.8,4.5,1,6.8,0.7
		c2-0.3,4-1,5.8-2.1c1.6-1,3-2.4,4.1-4c1.5-2.2,2.4-4.9,2.5-7.6v-0.4C873.5,212.3,873.1,210.3,872.3,208.5z"/>
	<path fill="#030303" d="M853.6,220.7c-1.4-0.1-2.8-0.3-4.2-0.4c-0.4,1-0.7,2-1,3.1c-1.1-1.4-2-3-2.6-4.7c-0.3-0.8-0.4-1.7-0.5-2.6
		c0.7,0,1.4,0.1,2.1,0.1c0.6-1.4,1.2-2.7,1.8-4.1c-0.4-1.2-0.9-2.3-1.3-3.5c-0.6,0.1-1.1,0.3-1.7,0.4c-0.7,1.6-1,3.4-1.1,5.1v0.4
		c0,2.3,0.6,4.5,1.7,6.5c1.6,3,4.2,5.3,7.4,6.6c0.1,0,0.2,0.1,0.4,0.1c0.6-1,1.2-2,1.8-3C855.3,223.4,854.5,222.1,853.6,220.7z"/>
	<path fill="#030303" d="M868.7,220.6c0.8-1.4,1.6-2.8,2.4-4.3c-0.7-1.4-1.4-2.9-2.1-4.3c-1.7-0.1-3.3-0.1-5-0.2
		c-0.9,1.5-1.7,3.1-2.6,4.6c0.8,1.4,1.6,2.9,2.5,4.3C865.5,220.8,867.1,220.7,868.7,220.6z"/>
	<path fill="#030303" d="M849.1,212.1c-0.6,1.4-1.2,2.7-1.8,4.1c0.7,1.3,1.3,2.7,2,4c1.4,0.1,2.8,0.3,4.2,0.4
		c0.8-1.4,1.5-2.8,2.3-4.2c-0.8-1.5-1.7-3-2.5-4.5C852,212,850.5,212.1,849.1,212.1z"/>
</g>
</svg>
