<?xml version="1.0" encoding="UTF-8" standalone="no"?>
<svg width="300px" height="201px" viewBox="0 0 300 201" version="1.1" xmlns="http://www.w3.org/2000/svg" xmlns:xlink="http://www.w3.org/1999/xlink" xmlns:sketch="http://www.bohemiancoding.com/sketch/ns">
    <!-- Generator: Sketch 3.3.2 (12043) - http://www.bohemiancoding.com/sketch -->
    <title>betting-selected</title>
    <desc>Created with Sketch.</desc>
    <defs>
        <linearGradient x1="50.0152412%" y1="-0.0232469512%" x2="50.0152412%" y2="100.023247%" id="linearGradient-1">
            <stop stop-color="#EDF0F4" offset="0%"></stop>
            <stop stop-color="#E7EAF1" offset="100%"></stop>
        </linearGradient>
        <filter x="-50%" y="-50%" width="200%" height="200%" filterUnits="objectBoundingBox" id="filter-2">
            <feOffset dx="0" dy="1" in="SourceAlpha" result="shadowOffsetInner1"></feOffset>
            <feGaussianBlur stdDeviation="2" in="shadowOffsetInner1" result="shadowBlurInner1"></feGaussianBlur>
            <feComposite in="shadowBlurInner1" in2="SourceAlpha" operator="arithmetic" k2="-1" k3="1" result="shadowInnerInner1"></feComposite>
            <feColorMatrix values="0 0 0 0 0   0 0 0 0 0   0 0 0 0 0  0 0 0 0.21 0" in="shadowInnerInner1" type="matrix" result="shadowMatrixInner1"></feColorMatrix>
            <feMerge>
                <feMergeNode in="SourceGraphic"></feMergeNode>
                <feMergeNode in="shadowMatrixInner1"></feMergeNode>
            </feMerge>
        </filter>
        <linearGradient x1="49.9640029%" y1="100.052183%" x2="49.9640029%" y2="0.00723492723%" id="linearGradient-3">
            <stop stop-color="#F7DE68" offset="0%"></stop>
            <stop stop-color="#FFFD72" offset="100%"></stop>
        </linearGradient>
        <filter x="-50%" y="-50%" width="200%" height="200%" filterUnits="objectBoundingBox" id="filter-4">
            <feOffset dx="0" dy="1" in="SourceAlpha" result="shadowOffsetOuter1"></feOffset>
            <feGaussianBlur stdDeviation="1" in="shadowOffsetOuter1" result="shadowBlurOuter1"></feGaussianBlur>
            <feColorMatrix values="0 0 0 0 0   0 0 0 0 0   0 0 0 0 0  0 0 0 0.35 0" in="shadowBlurOuter1" type="matrix" result="shadowMatrixOuter1"></feColorMatrix>
            <feOffset dx="0" dy="3" in="SourceAlpha" result="shadowOffsetOuter2"></feOffset>
            <feGaussianBlur stdDeviation="2" in="shadowOffsetOuter2" result="shadowBlurOuter2"></feGaussianBlur>
            <feColorMatrix values="0 0 0 0 0   0 0 0 0 0   0 0 0 0 0  0 0 0 0.209120245 0" in="shadowBlurOuter2" type="matrix" result="shadowMatrixOuter2"></feColorMatrix>
            <feOffset dx="0" dy="3" in="SourceAlpha" result="shadowOffsetInner1"></feOffset>
            <feGaussianBlur stdDeviation="1.5" in="shadowOffsetInner1" result="shadowBlurInner1"></feGaussianBlur>
            <feComposite in="shadowBlurInner1" in2="SourceAlpha" operator="arithmetic" k2="-1" k3="1" result="shadowInnerInner1"></feComposite>
            <feColorMatrix values="0 0 0 0 1   0 0 0 0 1   0 0 0 0 1  0 0 0 0.35 0" in="shadowInnerInner1" type="matrix" result="shadowMatrixInner1"></feColorMatrix>
            <feMerge>
                <feMergeNode in="shadowMatrixOuter1"></feMergeNode>
                <feMergeNode in="shadowMatrixOuter2"></feMergeNode>
                <feMergeNode in="SourceGraphic"></feMergeNode>
                <feMergeNode in="shadowMatrixInner1"></feMergeNode>
            </feMerge>
        </filter>
    </defs>
    <g id="betting-selected" stroke="none" stroke-width="1" fill="none" fill-rule="evenodd" sketch:type="MSPage">
        <g sketch:type="MSLayerGroup" id="Shape">
            <path d="M289.8,108.4 L289.5,108.4 L289.5,102.2 C289.5,96.5 284.9,92 279.3,92 L276.2,92 C273.1,92 270.3,93.4 268.5,95.5 L268.5,91.2 C268.5,85.6 264.1,81.1 258.5,81 L258.5,72.1 C258.5,66.4 253.9,61.9 248.3,61.9 L245.2,61.9 C242.8,61.9 240.7,62.7 239,64 L239,27.5 C239,21.8 234.4,17.3 228.8,17.3 L228.5,17.3 L228.5,11 C228.5,5.3 223.9,0.8 218.3,0.8 L215,0.8 C209.3,0.8 204.8,5.4 204.8,11 L204.8,17.2 L204.5,17.2 C198.8,17.2 194.3,21.8 194.3,27.4 L194.3,46.8 C192.4,44.9 189.9,43.8 187,43.8 L184,43.8 C178.3,43.8 173.8,48.4 173.8,54 L173.8,57.7 C168.2,57.8 163.7,62.3 163.7,67.9 L163.7,125.1 C163.7,126.4 164,127.7 164.4,128.8 C163.1,128.2 161.6,127.8 160,127.8 L156.9,127.8 C155.3,127.8 153.7,128.2 152.3,128.9 L152.3,124.3 C152.3,118.7 147.8,114.1 142.1,114.1 L142.1,105.1 C142.1,99.4 137.5,94.9 131.9,94.9 L128.8,94.9 C128.2,94.9 127.6,95 127,95.1 L127,51.3 C127,45.7 122.6,41.2 117,41.1 L117,36.1 C117,30.4 112.4,25.9 106.8,25.9 L103.7,25.9 C98.8,25.9 94.6,29.4 93.7,34 C92.6,33.5 91.3,33.2 90,33.1 L90,28.1 C90,22.4 85.4,17.9 79.8,17.9 L76.7,17.9 C71,17.9 66.5,22.5 66.5,28.1 L66.5,33.2 C61.5,33.8 57.6,38.1 57.6,43.4 L57.6,78.9 C55.9,77.7 53.9,77 51.7,77 L48.6,77 C46.2,77 44,77.8 42.3,79.2 L42.3,58.3 C42.3,52.9 38.2,48.5 32.9,48.1 L32.9,41 C32.9,35.3 28.3,30.8 22.7,30.8 L19.7,30.8 C14,30.8 9.4,35.4 9.4,41 L9.4,48 C4.1,48.4 0,52.8 0,58.2 L0,105.8 C0,111.2 4.1,115.6 9.4,116 L9.4,124.2 C9.4,129.9 14,134.4 19.6,134.4 L22.6,134.4 C24.5,134.4 26.4,133.8 27.9,132.9 L27.9,159.7 C27.9,165.4 32.5,169.9 38.1,169.9 L38.4,169.9 L38.4,176.1 C38.4,181.8 43,186.3 48.6,186.3 L51.7,186.3 C57.4,186.3 61.9,181.7 61.9,176.1 L61.9,169.9 L62.2,169.9 C67.9,169.9 72.4,165.3 72.4,159.7 L72.4,142.5 C73.7,143.1 75.1,143.4 76.6,143.4 L79.7,143.4 C85.4,143.4 89.9,138.8 89.9,133.2 L89.9,122.4 C92,122.3 93.9,121.6 95.5,120.4 C97.4,122.8 100.3,124.4 103.6,124.4 L106.7,124.4 C107.4,124.4 108.2,124.3 108.9,124.2 L108.9,124.4 L108.9,158.7 C108.9,164.1 113.1,168.6 118.5,168.9 L118.5,178.3 C118.5,184 123.1,188.5 128.7,188.5 L131.8,188.5 C137.4,188.5 142,184 142,178.3 C143.3,179 144.9,179.4 146.5,179.4 L146.5,183.1 C146.5,188.8 151.1,193.3 156.7,193.3 L159.8,193.3 C165.5,193.3 170,188.7 170,183.1 L170,179.4 C175.4,179.2 179.8,174.7 179.8,169.2 L179.8,150.6 C181,151.1 182.4,151.4 183.8,151.4 L186.8,151.4 C189.6,151.4 192.2,150.2 194.1,148.4 L194.1,173.7 C194.1,179.4 198.7,183.9 204.3,183.9 L204.6,183.9 L204.6,190.1 C204.6,195.8 209.2,200.3 214.8,200.3 L217.9,200.3 C223.6,200.3 228.1,195.7 228.1,190.1 L228.1,183.9 L228.4,183.9 C234.1,183.9 238.6,179.3 238.6,173.7 L238.6,153.3 C240.3,154.6 242.5,155.4 244.8,155.4 L247.9,155.4 C250.7,155.4 253.2,154.3 255.1,152.5 L255.1,170.7 C255.1,176.4 259.7,180.9 265.3,180.9 L265.6,180.9 L265.6,187.1 C265.6,192.8 270.2,197.3 275.8,197.3 L278.9,197.3 C284.6,197.3 289.1,192.7 289.1,187.1 L289.1,180.9 L289.4,180.9 C295.1,180.9 299.6,176.3 299.6,170.7 L299.6,118.5 C300,113 295.4,108.4 289.8,108.4 L289.8,108.4 Z M117.1,114.2 L117.1,107.6 C117.6,107.6 118.1,107.5 118.6,107.4 L118.6,114.2 C118.1,114.2 117.6,114.3 117.1,114.4 L117.1,114.2 L117.1,114.2 Z M170.2,140.5 L170.2,138.3 C170.2,137 169.9,135.7 169.5,134.6 C170.8,135.2 172.2,135.6 173.7,135.6 L173.7,141.4 C172.7,140.8 171.5,140.5 170.2,140.5 L170.2,140.5 Z" fill="url(#linearGradient-1)" filter="url(#filter-2)" sketch:type="MSShapeGroup"></path>
            <path d="M279.2,118.7 L279.2,102.2 L276.1,102.2 L276.1,118.7 L265.6,118.7 L265.6,170.9 L276.1,170.9 L276.1,187.4 L279.2,187.4 L279.2,170.9 L289.7,170.9 L289.7,118.7 L279.2,118.7 L279.2,118.7 Z M286.7,167.7 L268.7,167.7 L268.7,121.7 L286.7,121.7 L286.7,167.7 Z M22.6,41 L19.7,41 L19.7,58.2 L10.2,58.2 L10.2,105.8 L19.7,105.8 L19.7,124.2 L22.6,124.2 L22.6,105.8 L32,105.8 L32,58.2 L22.6,58.2 L22.6,41 Z M51.7,87.2 L48.6,87.2 L48.6,103.7 L38.2,103.7 L38.2,159.9 L48.7,159.9 L48.7,176.4 L51.8,176.4 L51.8,159.9 L62.3,159.9 L62.3,103.7 L51.7,103.7 L51.7,87.2 Z M59.3,106.7 L59.3,156.7 L41.2,156.7 L41.2,106.7 L59.3,106.7 Z M187,54.1 L184,54.1 L184,68.1 L173.9,68.1 L173.9,125.3 L184,125.3 L184,141.3 L187,141.3 L187,125.3 L197,125.3 L197,68.1 L187,68.1 L187,54.1 Z M218.1,10.9 L215,10.9 L215,27.4 L204.5,27.4 L204.5,173.8 L215,173.8 L215,190.3 L218.1,190.3 L218.1,173.8 L228.6,173.8 L228.6,27.5 L218.1,27.5 L218.1,10.9 Z M225.6,30.5 L225.6,170.7 L207.6,170.7 L207.6,30.5 L225.6,30.5 Z M79.8,28 L76.8,28 L76.8,43.3 L67.8,43.3 L67.8,112.2 L76.8,112.2 L76.8,133.3 L79.8,133.3 L79.8,112.2 L89.6,112.2 L89.6,43.3 L79.8,43.3 L79.8,28 Z M106.9,36 L103.8,36 L103.8,51.3 L95,51.3 L95,97.3 L103.8,97.3 L103.8,114.2 L106.9,114.2 L106.9,97.3 L116.8,97.3 L116.8,51.3 L106.9,51.3 L106.9,36 Z M131.9,105.1 L128.8,105.1 L128.8,124.4 L119.2,124.4 L119.2,158.7 L128.8,158.7 L128.8,178.4 L131.9,178.4 L131.9,158.7 L142.1,158.7 L142.1,124.4 L131.9,124.4 L131.9,105.1 Z M139.1,127.5 L139.1,155.6 L122.3,155.6 L122.3,127.5 L139.1,127.5 Z M248.2,72.1 L245.1,72.1 L245.1,91.2 L235.1,91.2 L235.1,125.3 L245.1,125.3 L245.1,145.3 L248.2,145.3 L248.2,125.3 L258.2,125.3 L258.2,91.2 L248.2,91.2 L248.2,72.1 Z M160,138.2 L156.9,138.2 L156.9,150.7 L146.8,150.7 L146.8,169.3 L156.9,169.3 L156.9,183.3 L160,183.3 L160,169.3 L169.8,169.3 L169.8,150.7 L160,150.7 L160,138.2 Z M166.7,153.8 L166.7,166.4 L149.9,166.4 L149.9,153.8 L166.7,153.8 L166.7,153.8 Z" fill="url(#linearGradient-3)" filter="url(#filter-4)" sketch:type="MSShapeGroup"></path>
        </g>
    </g>
</svg>