<?xml version="1.0" encoding="UTF-8" standalone="no"?>
<svg width="301px" height="178px" viewBox="0 0 301 178" version="1.1" xmlns="http://www.w3.org/2000/svg" xmlns:xlink="http://www.w3.org/1999/xlink" xmlns:sketch="http://www.bohemiancoding.com/sketch/ns">
    <!-- Generator: Sketch 3.3.2 (12043) - http://www.bohemiancoding.com/sketch -->
    <title>bingo-selected</title>
    <desc>Created with Sketch.</desc>
    <defs>
        <linearGradient x1="50.0152412%" y1="-0.0232469512%" x2="50.0152412%" y2="100.023247%" id="linearGradient-1">
            <stop stop-color="#EDF0F4" offset="0%"></stop>
            <stop stop-color="#E7EAF1" offset="100%"></stop>
        </linearGradient>
        <filter x="-50%" y="-50%" width="200%" height="200%" filterUnits="objectBoundingBox" id="filter-2">
            <feOffset dx="0" dy="1" in="SourceAlpha" result="shadowOffsetInner1"></feOffset>
            <feGaussianBlur stdDeviation="2" in="shadowOffsetInner1" result="shadowBlurInner1"></feGaussianBlur>
            <feComposite in="shadowBlurInner1" in2="SourceAlpha" operator="arithmetic" k2="-1" k3="1" result="shadowInnerInner1"></feComposite>
            <feColorMatrix values="0 0 0 0 0   0 0 0 0 0   0 0 0 0 0  0 0 0 0.21 0" in="shadowInnerInner1" type="matrix" result="shadowMatrixInner1"></feColorMatrix>
            <feMerge>
                <feMergeNode in="SourceGraphic"></feMergeNode>
                <feMergeNode in="shadowMatrixInner1"></feMergeNode>
            </feMerge>
        </filter>
        <linearGradient x1="49.9640029%" y1="100.052183%" x2="49.9640029%" y2="0.00723492723%" id="linearGradient-3">
            <stop stop-color="#F7DE68" offset="0%"></stop>
            <stop stop-color="#FFFD72" offset="100%"></stop>
        </linearGradient>
        <filter x="-50%" y="-50%" width="200%" height="200%" filterUnits="objectBoundingBox" id="filter-4">
            <feOffset dx="0" dy="1" in="SourceAlpha" result="shadowOffsetOuter1"></feOffset>
            <feGaussianBlur stdDeviation="1" in="shadowOffsetOuter1" result="shadowBlurOuter1"></feGaussianBlur>
            <feColorMatrix values="0 0 0 0 0   0 0 0 0 0   0 0 0 0 0  0 0 0 0.35 0" in="shadowBlurOuter1" type="matrix" result="shadowMatrixOuter1"></feColorMatrix>
            <feOffset dx="0" dy="3" in="SourceAlpha" result="shadowOffsetOuter2"></feOffset>
            <feGaussianBlur stdDeviation="2" in="shadowOffsetOuter2" result="shadowBlurOuter2"></feGaussianBlur>
            <feColorMatrix values="0 0 0 0 0   0 0 0 0 0   0 0 0 0 0  0 0 0 0.209120245 0" in="shadowBlurOuter2" type="matrix" result="shadowMatrixOuter2"></feColorMatrix>
            <feOffset dx="0" dy="3" in="SourceAlpha" result="shadowOffsetInner1"></feOffset>
            <feGaussianBlur stdDeviation="1.5" in="shadowOffsetInner1" result="shadowBlurInner1"></feGaussianBlur>
            <feComposite in="shadowBlurInner1" in2="SourceAlpha" operator="arithmetic" k2="-1" k3="1" result="shadowInnerInner1"></feComposite>
            <feColorMatrix values="0 0 0 0 1   0 0 0 0 1   0 0 0 0 1  0 0 0 0.35 0" in="shadowInnerInner1" type="matrix" result="shadowMatrixInner1"></feColorMatrix>
            <feMerge>
                <feMergeNode in="shadowMatrixOuter1"></feMergeNode>
                <feMergeNode in="shadowMatrixOuter2"></feMergeNode>
                <feMergeNode in="SourceGraphic"></feMergeNode>
                <feMergeNode in="shadowMatrixInner1"></feMergeNode>
            </feMerge>
        </filter>
    </defs>
    <g id="bingo-selected" stroke="none" stroke-width="1" fill="none" fill-rule="evenodd" sketch:type="MSPage">
        <g sketch:type="MSLayerGroup" id="Shape">
            <path d="M275.1,0 L164.9,0 C153.4,0 143.6,7.9 140.2,18.3 C133.2,14.6 125.3,12.8 117.2,12.8 C95.8,12.8 77.2,26.9 70.6,46.4 C69.4,46.3 68.1,46.3 66.9,46.3 C30.5,46.3 0.9,75.8 0.9,112 C0.9,148.2 30.5,177.7 66.9,177.7 C103.3,177.7 132.9,148.2 132.9,112 C132.9,110.8 132.9,109.6 132.8,108.4 C134.9,107.7 137,106.8 139,105.9 L139,146.7 C139,160.9 150.7,172.1 164.9,172.1 L275,172.1 C289.3,172.1 300.9,161 300.9,146.7 L300.9,26.7 C301,12.4 289.4,0 275.1,0 L275.1,0 Z M184.8,70.4 C184.8,69.9 184.7,69.4 184.5,68.9 L184.9,69 C185,69.3 185,69.6 185,69.8 C185,69.9 185,70.1 184.8,70.4 L184.8,70.4 L184.8,70.4 Z" fill="url(#linearGradient-1)" filter="url(#filter-2)" sketch:type="MSShapeGroup"></path>
            <path d="M275.1,11.7 L164.9,11.7 C156.7,11.7 150.1,18.3 150.1,26.4 L150.1,42.6 C143.5,31.4 131.2,23.9 117.2,23.9 C97.2,23.9 80.9,39.2 79.3,58.7 C75.3,57.8 71.2,57.3 66.9,57.3 C36.6,57.3 12,81.7 12,111.9 C12,142 36.6,166.5 66.9,166.5 C97.2,166.5 121.8,142.1 121.8,111.9 C121.8,107.7 121.3,103.5 120.4,99.6 C133.1,98.6 144,91.4 150.1,81 L150.1,146.6 C150.1,154.7 156.7,161.3 164.9,161.3 L275,161.3 C283.2,161.3 289.8,154.7 289.8,146.6 L289.8,26.6 C289.9,18.3 283.3,11.7 275.1,11.7 Z M259.2,42.2 C263.4,42.2 265.8,38.3 265.8,33.3 C265.8,28.8 263.6,24.6 259.2,24.6 C254.9,24.6 252.6,28.6 252.6,33.5 C252.5,38.3 255,42.2 259.2,42.2 Z M182.9,27.8 C182.9,25.5 181.2,24.5 178.4,24.5 C177.1,24.5 176.4,24.6 175.9,24.7 L175.9,31.2 L178.1,31.2 C181.3,31.2 182.9,29.8 182.9,27.8 Z M183.6,38.3 C183.6,35.5 181.2,34.4 178.1,34.4 L176,34.4 L176,42.2 C176.6,42.3 177.3,42.3 178.3,42.3 C181.1,42.2 183.6,41.2 183.6,38.3 Z M67,155.2 C42.9,155.2 23.3,135.7 23.3,111.8 C23.3,87.8 42.9,68.4 67,68.4 C91.1,68.4 110.7,87.9 110.7,111.8 C110.6,135.7 91.1,155.2 67,155.2 L67,155.2 Z M128.4,78.1 L110.1,78.1 C109.1,76.9 108.1,75.7 107,74.5 C107.6,74.4 108.4,74.4 109.4,74.3 C110.8,74.2 110.8,74 111.3,73.9 C112,73.7 112.5,73.3 112.9,72.8 C113.2,72.3 113.4,71.6 113.4,70.6 L113.4,52.4 L106.2,52.4 L106.2,49.7 L108,49.7 C110.4,49.7 112.5,49.3 114.3,48.4 C116.2,47.5 117.5,46.6 118.3,45.6 L122.1,45.6 C122,47 122,48.7 121.9,50.5 C121.8,52.4 121.8,54.1 121.8,55.6 L121.8,70.3 C121.8,71.1 122,71.7 122.3,72.3 C122.6,72.9 123.1,73.3 123.8,73.6 C124.4,73.8 125.3,74.1 126.6,74.2 C127.9,74.4 127.7,74.5 128.4,74.5 L128.4,78.1 L128.4,78.1 Z M259.3,21.1 C266.3,21.1 270.4,26.4 270.4,33.2 C270.4,41.2 265.5,45.7 259,45.7 C252.2,45.7 248,40.5 248,33.6 C247.9,26.2 252.6,21.1 259.3,21.1 L259.3,21.1 Z M192.1,21.5 L196.5,21.5 L196.5,45.3 L192.1,45.3 L192.1,21.5 L192.1,21.5 Z M178,21.3 C181.2,21.3 183.2,21.7 184.8,22.8 C186.3,23.7 187.3,25.2 187.3,27.3 C187.3,29.5 185.9,31.5 183.3,32.4 L183.3,32.5 C185.8,33.1 188.1,35.1 188.1,38.4 C188.1,40.5 187.2,42.2 185.8,43.3 C184.1,44.7 181.3,45.5 176.9,45.5 C174.5,45.5 172.7,45.3 171.5,45.2 L171.5,21.8 C173,21.5 175.6,21.3 178,21.3 L178,21.3 Z M196.8,147.4 L177.6,147.4 C169.4,147.4 162.8,140.8 162.8,132.7 L162.8,119 L196.8,119 L196.8,147.4 L196.8,147.4 Z M196.8,113 L162.8,113 L162.8,87.5 L196.8,87.5 L196.8,113 L196.8,113 Z M196.8,81.6 L162.8,81.6 L162.8,68.8 C162.8,60.7 169.4,54.1 177.6,54.1 L196.8,54.1 L196.8,81.6 L196.8,81.6 Z M201.5,21.5 L201.5,21.5 L206.5,21.5 L212.7,31.7 C214.3,34.4 215.7,37.1 216.8,39.7 L216.9,39.7 C216.6,36.5 216.5,33.4 216.5,29.8 L216.5,21.5 L220.5,21.5 L220.5,45.3 L216,45.3 L209.7,34.8 C208.2,32.2 206.6,29.3 205.4,26.6 L205.3,26.6 C205.5,29.7 205.5,32.8 205.5,36.7 L205.5,45.2 L201.5,45.2 L201.5,21.5 L201.5,21.5 Z M236.7,147.4 L202.7,147.4 L202.7,118.9 L236.7,118.9 L236.7,147.4 L236.7,147.4 Z M236.7,113 L202.7,113 L202.7,87.5 L236.7,87.5 L236.7,113 L236.7,113 Z M236.7,81.6 L202.7,81.6 L202.7,54.1 L236.7,54.1 L236.7,81.6 L236.7,81.6 Z M227.6,42.4 C225.5,40.4 224.3,37.2 224.3,33.6 C224.3,26 229.7,21.2 237.6,21.2 C240.5,21.2 242.9,21.8 244,22.3 L243,25.8 C241.7,25.2 240.1,24.8 237.6,24.8 C232.5,24.8 228.9,27.8 228.9,33.3 C228.9,38.7 232.2,41.9 237.2,41.9 C238.8,41.9 239.9,41.7 240.5,41.4 L240.5,35.4 L236.3,35.4 L236.3,32 L244.7,32 L244.7,44 C243.2,44.6 240.2,45.3 237,45.3 C233,45.5 229.9,44.5 227.6,42.4 L227.6,42.4 Z M277.7,132.7 C277.7,140.8 271.1,147.4 262.9,147.4 L242.7,147.4 L242.7,118.9 L277.7,118.9 L277.7,132.7 L277.7,132.7 Z M277.7,113 L242.7,113 L242.7,87.5 L277.7,87.5 L277.7,113 L277.7,113 Z M277.7,81.6 L242.7,81.6 L242.7,54.1 L262.9,54.1 C271.1,54.1 277.7,60.7 277.7,68.8 L277.7,81.6 Z M173.9,69.6 C173.9,73.3 175.9,76.1 179.6,76.1 C182.8,76.1 184.9,73.6 184.9,70.8 C184.9,67.8 182.9,65.9 180.3,65.9 C178.8,65.9 177.7,66.5 176.9,67.3 L176.8,67.3 C177.2,65.2 178.7,63.3 181.8,63 C182.4,62.9 182.8,62.9 183.2,62.9 L183.2,60.7 C182.9,60.7 182.4,60.7 181.8,60.8 C179.7,61 177.8,61.7 176.5,63 C175,64.4 173.9,66.7 173.9,69.6 Z M176.9,69.4 C177.3,68.5 178.3,67.9 179.3,67.9 C181,67.9 181.9,69.1 181.9,70.9 C181.9,72.7 181,74 179.5,74 C177.6,74 176.7,72.4 176.7,70.4 C176.7,69.9 176.8,69.7 176.9,69.4 Z M211.4,63.4 L211.5,63.4 L211.5,75.8 L214.2,75.8 L214.2,60.8 L211.9,60.8 L208.2,62.6 L208.7,64.8 L211.4,63.4 Z M223.7,70.5 C225.1,70.5 226.2,70 227,69.2 C226.7,70.6 226.1,71.7 225.1,72.5 C224.3,73.2 223.2,73.6 222.1,73.7 C221.4,73.8 221,73.8 220.5,73.7 L220.5,76 L222.2,76 C224.2,75.9 226,75.2 227.3,74 C228.9,72.5 229.9,70.2 229.9,67 C229.9,63.4 228.1,60.6 224.5,60.6 C221.3,60.6 219.1,63.1 219.1,65.9 C219.2,68.7 221.1,70.5 223.7,70.5 Z M224.5,62.7 C226.3,62.7 227.1,64.4 227.1,66.4 C227.1,66.8 227,67 226.9,67.2 C226.5,67.9 225.6,68.4 224.5,68.4 C222.9,68.4 222,67.2 222,65.7 C222,63.9 223,62.7 224.5,62.7 Z M254.2,67.8 C256,67.1 257,65.8 257,64.3 C257,62.3 255.4,60.6 252.3,60.6 C250.5,60.6 248.8,61.2 248,61.7 L248.6,63.7 C249.2,63.3 250.4,62.8 251.7,62.8 C253.4,62.8 254.1,63.6 254.1,64.7 C254.1,66.2 252.4,66.8 251.1,66.8 L249.8,66.8 L249.8,68.9 L251.1,68.9 C252.8,68.9 254.5,69.7 254.5,71.4 C254.5,72.6 253.6,73.8 251.5,73.8 C250.1,73.8 248.7,73.2 248.1,72.9 L247.5,75 C248.3,75.5 249.9,76 251.7,76 C255.4,76 257.5,74 257.5,71.5 C257.4,69.5 256,68.1 254.2,67.8 Z M266,65.8 C264.5,65.8 263.4,66.4 262.6,67.2 L262.5,67.2 C262.9,65.1 264.4,63.2 267.5,62.9 C268.1,62.8 268.5,62.8 268.9,62.8 L268.9,60.6 C268.6,60.6 268.1,60.6 267.5,60.7 C265.4,60.9 263.5,61.6 262.2,62.9 C260.6,64.4 259.6,66.7 259.6,69.6 C259.6,73.3 261.6,76.1 265.3,76.1 C268.5,76.1 270.6,73.6 270.6,70.8 C270.6,67.7 268.6,65.8 266,65.8 Z M265.3,73.9 C263.4,73.9 262.5,72.3 262.5,70.3 C262.5,69.9 262.6,69.6 262.7,69.4 C263.1,68.5 264.1,67.9 265.1,67.9 C266.8,67.9 267.7,69.1 267.7,70.9 C267.7,72.6 266.7,73.9 265.3,73.9 Z M180.4,107.8 L183.1,107.8 L183.1,104 L185,104 L185,101.9 L183.1,101.9 L183.1,92.9 L179.8,92.9 L173.7,102.2 L173.7,104 L180.5,104 L180.5,107.8 L180.4,107.8 Z M176.3,101.9 L179.1,97.8 C179.6,97 180,96.2 180.4,95.3 L180.5,95.3 C180.5,96.2 180.4,97 180.4,97.9 L180.4,102 L176.3,102 L176.3,101.9 Z M217.2,105.5 L211,105.5 L212.3,104.4 C214.9,102 216.8,99.9 216.8,97.3 C216.8,94.9 215.2,92.8 211.9,92.8 C210,92.8 208.4,93.5 207.3,94.3 L208.1,96.3 C208.9,95.7 210,95.1 211.3,95.1 C213.3,95.1 214,96.3 214,97.6 C214,99.6 212.3,101.4 208.8,104.6 L207,106.2 L207,107.9 L217.2,107.9 L217.2,105.5 Z M225.6,107.8 L228.3,107.8 L228.3,104 L230.2,104 L230.2,101.9 L228.3,101.9 L228.3,92.9 L225,92.9 L218.9,102.2 L218.9,104 L225.7,104 L225.7,107.8 L225.6,107.8 Z M221.6,101.9 L224.4,97.8 C224.9,97 225.3,96.2 225.7,95.3 L225.8,95.3 C225.8,96.2 225.7,97 225.7,97.9 L225.7,102 L221.6,102 L221.6,101.9 Z M251.7,105.8 C250.3,105.8 248.9,105.2 248.3,104.9 L247.7,107 C248.5,107.5 250.1,108 251.9,108 C255.6,108 257.7,106 257.7,103.5 C257.7,101.5 256.2,100.1 254.4,99.8 C256.2,99.2 257.2,97.9 257.2,96.3 C257.2,94.4 255.6,92.7 252.5,92.7 C250.7,92.7 249,93.3 248.2,93.8 L248.8,95.8 C249.4,95.4 250.6,94.9 251.9,94.9 C253.6,94.9 254.3,95.7 254.3,96.8 C254.3,98.3 252.6,98.9 251.3,98.9 L250,98.9 L250,101 L251.3,101 C253,101 254.7,101.8 254.7,103.5 C254.7,104.6 253.8,105.8 251.7,105.8 Z M267.4,95.3 L261.1,107.8 L264,107.8 L270.4,94.7 L270.4,92.9 L260.3,92.9 L260.3,95.2 L267.4,95.2 L267.4,95.3 Z M172.4,127.4 L172.4,139.8 L175.2,139.8 L175.2,124.9 L172.8,124.9 L169.2,126.7 L169.6,128.8 L172.4,127.4 Z M185.5,140.1 C189.1,140.1 191,137.1 191,132.3 C191,127.9 189.3,124.7 185.7,124.7 C182.2,124.7 180.2,127.8 180.2,132.5 C180.2,137 182,140.1 185.5,140.1 Z M185.6,126.8 C187.3,126.8 188.1,128.8 188.1,132.3 C188.1,135.9 187.2,137.9 185.6,137.9 C184.1,137.9 183.1,136 183.1,132.4 C183,128.7 184.1,126.8 185.6,126.8 Z M217.2,137.5 L211,137.5 L212.3,136.4 C214.9,134 216.8,131.9 216.8,129.3 C216.8,126.9 215.2,124.8 211.9,124.8 C210,124.8 208.4,125.5 207.3,126.3 L208.1,128.3 C208.9,127.7 210,127.1 211.3,127.1 C213.3,127.1 214,128.3 214,129.6 C214,131.6 212.3,133.4 208.8,136.6 L207,138.2 L207,139.9 L217.2,139.9 L217.2,137.5 Z M223.8,127.4 L223.8,139.8 L226.6,139.8 L226.6,124.9 L224.2,124.9 L220.6,126.7 L221,128.8 L223.8,127.4 Z M253,140.1 C256.2,140.1 258.3,137.6 258.3,134.8 C258.3,131.8 256.3,129.9 253.7,129.9 C252.2,129.9 251.1,130.5 250.3,131.3 L250.2,131.3 C250.6,129.2 252.1,127.3 255.2,127 C255.8,126.9 256.2,126.9 256.6,126.9 L256.6,124.7 C256.3,124.7 255.8,124.7 255.2,124.8 C253.1,125 251.2,125.7 249.9,127 C248.3,128.5 247.3,130.8 247.3,133.7 C247.4,137.3 249.4,140.1 253,140.1 Z M250.4,133.5 C250.8,132.6 251.8,132 252.8,132 C254.5,132 255.4,133.2 255.4,135 C255.4,136.8 254.5,138.1 253,138.1 C251.1,138.1 250.2,136.5 250.2,134.5 C250.2,134 250.3,133.7 250.4,133.5 Z M265.1,140.1 C268.7,140.1 270.6,137.1 270.6,132.3 C270.6,127.9 268.9,124.7 265.3,124.7 C261.8,124.7 259.8,127.8 259.8,132.5 C259.8,137 261.7,140.1 265.1,140.1 Z M265.2,126.8 C266.9,126.8 267.7,128.8 267.7,132.3 C267.7,135.9 266.8,137.9 265.2,137.9 C263.7,137.9 262.7,136 262.7,132.4 C262.7,128.7 263.7,126.8 265.2,126.8 Z M80.9,107.3 C78.8,105.9 76.7,105 74.5,104.5 C72.3,104 70.1,103.8 67.8,103.8 C64.9,103.8 62.4,104.2 60.2,105 C58,105.8 56.3,106.6 54.9,107.5 L56.5,95 L85.3,95 L85.3,84.5 L53.7,84.5 L50,112.3 L52.9,113.3 C54.2,111.8 55.6,110.5 57.2,109.6 C58.8,108.7 60.8,108.2 63.2,108.2 C66.2,108.2 68.7,109.3 70.6,111.6 C72.5,113.9 73.5,116.8 73.5,120.3 C73.5,122.7 73.2,124.9 72.6,126.9 C72,128.8 71.1,130.5 70,131.9 C69,133.1 67.8,134.1 66.4,134.7 C65,135.3 63.6,135.7 62.1,135.7 C61.4,135.7 60.6,135.7 59.8,135.5 C59,135.4 58.3,135.2 57.7,135 C58,134.2 58.3,133.1 58.8,131.6 C59.2,130.1 59.5,128.7 59.5,127.5 C59.5,125.7 58.9,124.3 57.6,123.2 C56.3,122.1 54.7,121.6 52.7,121.6 C50.8,121.6 49.2,122.2 48.1,123.5 C46.9,124.7 46.4,126.2 46.4,128 C46.4,131 48.1,133.7 51.6,135.9 C55.1,138.1 59.4,139.2 64.6,139.2 C71.3,139.2 76.9,137.4 81.2,133.9 C85.5,130.4 87.7,125.8 87.7,120.3 C87.7,117.1 87,114.5 85.8,112.4 C84.4,110.3 82.8,108.6 80.9,107.3 Z" fill="url(#linearGradient-3)" filter="url(#filter-4)" sketch:type="MSShapeGroup"></path>
        </g>
    </g>
</svg>