<?xml version="1.0" encoding="UTF-8" standalone="no"?>
<svg width="300px" height="206px" viewBox="0 0 300 206" version="1.1" xmlns="http://www.w3.org/2000/svg" xmlns:xlink="http://www.w3.org/1999/xlink" xmlns:sketch="http://www.bohemiancoding.com/sketch/ns">
    <!-- Generator: Sketch 3.3.2 (12043) - http://www.bohemiancoding.com/sketch -->
    <title>casino-selected</title>
    <desc>Created with Sketch.</desc>
    <defs>
        <linearGradient x1="50.0152412%" y1="-0.0232469512%" x2="50.0152412%" y2="100.023247%" id="linearGradient-1">
            <stop stop-color="#EDF0F4" offset="0%"></stop>
            <stop stop-color="#E7EAF1" offset="100%"></stop>
        </linearGradient>
        <filter x="-50%" y="-50%" width="200%" height="200%" filterUnits="objectBoundingBox" id="filter-2">
            <feOffset dx="0" dy="1" in="SourceAlpha" result="shadowOffsetInner1"></feOffset>
            <feGaussianBlur stdDeviation="2" in="shadowOffsetInner1" result="shadowBlurInner1"></feGaussianBlur>
            <feComposite in="shadowBlurInner1" in2="SourceAlpha" operator="arithmetic" k2="-1" k3="1" result="shadowInnerInner1"></feComposite>
            <feColorMatrix values="0 0 0 0 0   0 0 0 0 0   0 0 0 0 0  0 0 0 0.21 0" in="shadowInnerInner1" type="matrix" result="shadowMatrixInner1"></feColorMatrix>
            <feMerge>
                <feMergeNode in="SourceGraphic"></feMergeNode>
                <feMergeNode in="shadowMatrixInner1"></feMergeNode>
            </feMerge>
        </filter>
        <filter x="-50%" y="-50%" width="200%" height="200%" filterUnits="objectBoundingBox" id="filter-3">
            <feOffset dx="0" dy="1" in="SourceAlpha" result="shadowOffsetInner1"></feOffset>
            <feGaussianBlur stdDeviation="1.5" in="shadowOffsetInner1" result="shadowBlurInner1"></feGaussianBlur>
            <feComposite in="shadowBlurInner1" in2="SourceAlpha" operator="arithmetic" k2="-1" k3="1" result="shadowInnerInner1"></feComposite>
            <feColorMatrix values="0 0 0 0 0   0 0 0 0 0   0 0 0 0 0  0 0 0 0.211022418 0" in="shadowInnerInner1" type="matrix" result="shadowMatrixInner1"></feColorMatrix>
            <feMerge>
                <feMergeNode in="SourceGraphic"></feMergeNode>
                <feMergeNode in="shadowMatrixInner1"></feMergeNode>
            </feMerge>
        </filter>
    </defs>
    <g id="casino" stroke="none" stroke-width="1" fill="none" fill-rule="evenodd" sketch:type="MSPage">
        <g id="casino-selected" sketch:type="MSLayerGroup">
            <path d="M198.7,0.8 C162.4,0.8 129.5,20 111.5,50.7 C103.1,44 92.6,40.2 81.6,40.2 C55.2,40.2 33.8,61.6 33.8,88 C33.8,90.2 34,92.4 34.3,94.6 C14.3,100.3 -2.84217094e-14,118.4 -2.84217094e-14,139.8 C-2.84217094e-14,165.8 21.3,186.9 47.5,186.9 C50.6,186.9 53.7,186.6 56.8,186 C65.5,197.6 79.3,205.1 95,205.1 C112.3,205.1 127.8,195.7 136.1,181.4 C153.9,195.5 175.7,203.2 198.7,203.2 C254.5,203.2 299.9,157.8 299.9,102 C300,46.3 254.6,0.8 198.7,0.8 Z M213.7,137.6 C217.5,136.1 220.6,133.3 222.3,129.6 C224.1,125.8 224.3,121.6 222.8,117.7 C221.7,114.5 219.6,111.9 217,110.1 C217.7,109 218.2,107.7 218.7,106.5 C221.8,107.4 225.3,107.4 228.4,106.2 C228.5,106.2 228.5,106.2 228.6,106.1 C236.7,103 240.7,94.2 237.7,86 C235.4,79.9 229.7,75.9 223.2,75.9 C221.3,75.9 219.5,76.2 217.8,76.9 L217.7,76.9 C214.6,78.1 212,80.2 210.3,82.9 C209.1,82.2 207.9,81.6 206.6,81.1 C207.3,78.2 207.3,75 206.2,72.1 C206.2,72 206.1,71.9 206.1,71.8 C203.8,65.7 198.1,61.7 191.6,61.7 C189.7,61.7 187.9,62 186.1,62.7 C178,65.8 174,74.5 177,82.6 C178.1,85.6 180.1,88.2 182.6,90 C182,91 181.6,92 181.2,93.1 C178.4,92.4 175.3,92.6 172.5,93.6 C172.4,93.6 172.3,93.7 172.2,93.7 C164.1,96.8 160.1,105.6 163.1,113.8 C165.4,119.9 171.1,123.9 177.6,123.9 C179.4,123.9 181.3,123.6 183,122.9 C186,121.8 188.5,119.9 190.2,117.5 C191.2,118.1 192.2,118.5 193.3,118.9 C192.5,121.9 192.6,125.1 193.7,128.2 C193.7,128.3 193.7,128.3 193.8,128.4 C196.1,134.5 201.8,138.5 208.3,138.5 C210,138.6 211.8,138.3 213.7,137.6 Z M200.7,151.7 C200.5,151.7 199.7,151.8 198.7,151.8 C197.8,151.8 197,151.7 196.2,151.6 C194.2,151.3 192.2,151.6 190.5,152.5 C188.9,150.3 186.4,148.8 183.5,148.6 C182.8,148.4 181.5,148.1 180.2,147.4 C177.9,145.8 175.2,145.3 172.6,145.8 C172,144.2 170.8,142.5 168.5,141 C167.9,140.6 166.3,139.7 165,138 C163.7,136.4 161.9,135.4 160,134.9 L160,134.1 C160,131.3 158.7,128.7 156.6,126.9 C156.2,126.3 155.5,125.2 155,123.9 C155,123.8 154.9,123.7 154.9,123.6 L154.7,123.1 C153.9,121 152.3,119.4 150.5,118.4 C151.2,116.3 151.2,114 150.2,111.8 C150.1,111.4 149.6,109.8 149.6,107.7 C149.6,105.6 149,103.6 147.8,102 C148.1,101.7 148.5,101.3 148.8,100.9 C150.3,98.8 150.9,96.2 150.4,93.7 C150.5,93 150.7,91.9 151.1,90.7 L151.3,90.3 C152.3,87.9 152.2,85.4 151.2,83.1 C151.8,82.7 152.4,82.3 152.9,81.8 C154.3,80.4 154.9,78.9 155.2,78.2 C155.4,77.6 156.1,75.8 157.5,74.1 C158.8,72.5 159.5,70.7 159.7,68.8 C160.1,68.8 160.5,68.7 160.9,68.6 C163.4,68 165.6,66.4 166.9,64.2 C167.4,63.7 168.4,62.8 169.7,62 C169.8,62 169.8,61.9 169.9,61.9 L170.4,61.6 C172.4,60.4 173.9,58.5 174.5,56.3 C175,56.4 175.5,56.4 176,56.4 C177.8,56.4 179.6,55.9 181.1,54.9 C181.1,54.9 182.8,54 185,53.6 C187.1,53.3 188.9,52.3 190.2,50.8 C190.7,51.1 191.2,51.4 191.8,51.7 C193,52.2 194.3,52.5 195.6,52.5 C196.7,52.5 197.9,52.3 198.9,51.9 L199.9,51.9 C200.8,51.9 201.4,52 202,52.1 L202.1,52.1 L202.6,52.2 C205,52.7 207.4,52.2 209.3,51 C210.7,52.7 212.7,53.8 215.1,54.1 C215.5,54.2 217.3,54.6 219.2,55.7 C220.7,56.5 222.3,56.9 223.8,56.9 C224.1,56.9 224.5,56.9 224.8,56.8 C224.9,57.1 225,57.4 225.1,57.7 C226.1,60.3 228.1,62.4 230.8,63.3 C231.4,63.7 232.3,64.4 233.2,65.5 L233.3,65.7 C234.9,67.8 237.2,69.1 239.6,69.4 C239.6,71.9 240.6,74.3 242.5,76.1 L242.5,76.1 C242.8,76.5 243.5,77.6 244.1,79.2 C244.8,81.2 246.1,82.8 247.8,83.9 C247.6,84.3 247.5,84.7 247.4,85.1 C246.7,87.6 247,90.2 248.3,92.5 C248.5,93.2 248.7,94.4 248.7,95.9 L248.7,96.4 C248.7,98.8 249.6,101 251.1,102.7 C249.6,104.4 248.8,106.7 249,109.2 C249,109.6 248.9,111.4 248.2,113.4 C247.5,115.3 247.4,117.4 248,119.3 C247.8,119.4 247.6,119.5 247.3,119.6 C245,121 243.3,123.3 242.8,125.9 C242.5,126.5 241.9,127.7 240.9,128.9 C240.8,129.1 240.6,129.2 240.5,129.4 L240.2,129.8 C238.8,131.6 238.2,133.8 238.3,135.9 C235.9,136.4 233.8,137.7 232.4,139.7 C232,140.1 231,141.1 229.4,142 C227.6,143 226.2,144.6 225.4,146.4 C225.1,146.3 224.9,146.3 224.6,146.2 C221.9,145.8 219.1,146.5 217.1,148.3 C216.5,148.6 215.3,149.1 213.8,149.3 L213.5,149.3 L213,149.4 C210.7,149.9 208.8,151.1 207.4,152.9 C205.3,151.6 203,151.2 200.7,151.7 L200.7,151.7 Z M230.5,145 C230.5,145.4 230.5,145.8 230.6,146.2 C230.5,145.8 230.5,145.4 230.5,145 L230.5,145 Z M230.5,144.8 C230.5,144.5 230.5,144.1 230.6,143.8 C230.5,144.1 230.5,144.5 230.5,144.8 L230.5,144.8 Z M230.6,143.5 C230.7,143.2 230.7,142.8 230.8,142.5 C230.7,142.8 230.6,143.1 230.6,143.5 L230.6,143.5 Z M230.8,142.3 C230.9,141.9 231.1,141.5 231.2,141.2 C231.1,141.5 230.9,141.9 230.8,142.3 L230.8,142.3 Z M230.8,147.6 C230.7,147.2 230.6,146.7 230.5,146.3 C230.6,146.7 230.7,147.1 230.8,147.6 L230.8,147.6 Z M231.3,141 C231.5,140.6 231.7,140.2 231.9,139.9 C231.7,140.3 231.5,140.6 231.3,141 L231.3,141 Z" id="Shape" fill="url(#linearGradient-1)" filter="url(#filter-2)" sketch:type="MSShapeGroup"></path>
            <path d="M258.1,108.6 C258.1,108.6 258.3,112.2 256.7,116.5 L268.2,122.6 C273.8,114.9 271,106.9 271,106.8 L258.1,108.6 Z M175,155.3 L174.6,155 L166,166.1 L166.4,166.5 C171.3,171.6 177,172.3 180,172.3 C180.7,172.3 181.4,172.3 182,172.2 L182.5,172.1 L183,158.6 L183,158 L182.4,158 C182.2,157.9 178.8,157.5 175,155.3 Z M181.3,171 C180.9,171 180.5,171.1 180,171.1 C177.3,171.1 172,170.4 167.5,166 L174.9,156.5 C177.9,158.2 180.5,158.8 181.7,159 L181.3,171 Z M150.2,68.1 L141.5,58.4 C133.6,63.6 133.4,72.2 133.4,72.4 L146.1,75.1 C146.3,75.1 147.3,71.6 150.2,68.1 Z M240.3,59.7 L240.6,60.1 L252.5,52.7 L252.3,52.2 C248.6,43.7 240.5,41.8 239.6,41.5 L239.1,41.4 L234,54 L233.6,54.6 L234.3,54.8 C234.5,54.7 237.5,56.3 240.3,59.7 Z M239.8,42.7 C241.6,43.2 247.8,45.3 251,52.2 L240.8,58.6 C238.6,56.1 236.3,54.6 235.3,53.9 L239.8,42.7 Z M233.7,150 L238.6,162.1 C247.8,159.9 250.9,151.9 250.9,151.8 L239.8,145 C239.9,144.9 237.8,147.7 233.7,150 Z M150.6,134.2 L150,133.8 C150,133.8 147.7,131.3 146.2,127.1 L146,126.6 L132.3,129.5 L132.3,130 C133,139.3 139.8,143.9 140.6,144.3 L141,144.6 L150,134.6 L150.6,134.2 Z M141,143.2 C139.5,142.2 134.3,138 133.7,130.5 L145.5,128 C146.7,131.2 148.3,133.3 149.1,134.3 L141,143.2 Z M183.3,44.5 L182.8,31.5 C173.3,30.5 167.8,36.8 167.7,37 L175.8,47.2 C175.8,47.2 178.8,45.3 183.3,44.5 Z M268.9,81.5 L268.6,81.1 L256.7,87.5 L256.1,87.7 L256.5,88.2 C256.5,88.2 257.8,91.4 257.8,95.8 L257.8,96.3 L271.7,98.3 L271.8,97.8 C274.3,88.9 269.4,82.3 268.9,81.5 Z M270.8,97.1 L258.9,95.4 C258.8,92 258.1,89.4 257.7,88.3 L268.3,82.6 C269.4,84.2 272.7,89.8 270.8,97.1 Z M194.7,160.9 L190.7,173.3 C199.2,177.4 206.6,173.4 206.7,173.3 L202.7,160.9 C202.6,160.9 199.2,161.7 194.7,160.9 Z M127.1,97.3 L140.5,95.4 L141.2,95.4 L141,94.8 C141,94.8 140.8,91.3 142.4,87.2 L142.6,86.7 L130.2,80.1 L129.9,80.5 C124.5,88 126.7,95.9 127,96.8 L127.1,97.3 Z M130.5,81.5 L141.2,87.1 C140.1,90.3 139.9,93 139.9,94.2 L128,95.9 C127.4,94.2 126.1,87.8 130.5,81.5 Z M216.7,32 L216.2,44.9 C216.2,44.9 219.8,45.4 223.7,47.6 L231.7,37.3 C225.2,30.6 216.9,31.9 216.7,32 Z M251.7,127.6 L251.6,128.3 C251.6,128.3 250.6,131.6 247.7,135 L247.4,135.4 L256.8,145.8 L257.2,145.5 C264.9,140.3 265.4,132.1 265.4,131.2 L265.4,130.7 L252.2,127.9 L251.7,127.6 Z M264.4,131.5 C264.2,133.4 263.2,139.8 257,144.2 L248.9,135.2 C251.1,132.6 252.1,130 252.6,128.9 L264.4,131.5 Z M157.7,144.1 L146.6,151 C150.4,159.7 158.8,161.3 158.9,161.3 L163.8,149.2 C163.8,149.2 160.6,147.6 157.7,144.1 Z M159.7,40.9 C150.7,43.1 147.3,50.6 147,51.6 L146.8,52.1 L158.2,59.2 L158.7,59.6 L159,59 C159,59 161.2,56.2 164.9,54 L165.4,53.7 L160.2,40.8 L159.7,40.9 Z M158.5,57.8 L148.2,51.4 C148.9,49.7 152.1,44 159.4,41.9 L163.9,53.1 C161.1,54.9 159.2,56.9 158.5,57.8 Z M252.8,76.1 L265.5,73.4 C264.8,63.9 257.6,59.6 257.4,59.5 L248.7,69.2 C248.8,69.2 251.3,71.8 252.8,76.1 Z M222.9,155.2 L222.4,155.7 C222.4,155.7 219.5,157.6 215.1,158.3 L214.6,158.4 L215.1,172.4 L215.6,172.5 C216.3,172.6 217,172.6 217.7,172.6 C225.6,172.6 230.4,167.8 231.2,166.8 L231.6,166.4 L223.3,155.8 L222.9,155.2 Z M217.6,171.4 C217.1,171.4 216.7,171.4 216.1,171.3 L215.6,159.2 C218.9,158.5 221.4,157.3 222.4,156.8 L229.8,166.3 C228.8,167.6 224.4,171.4 217.6,171.4 Z M140.2,107.5 L127.3,105.7 C124.7,114.8 130,121.4 130.1,121.5 L141.5,115.3 C141.5,115.4 140.1,112.1 140.2,107.5 Z M195.4,43.3 L196,43 C196,43 197.4,42.6 199.7,42.6 C201.1,42.6 202.4,42.7 203.7,43 L204.2,43.1 L208.5,29.8 L208,29.6 C205.4,28.3 202.7,27.6 199.8,27.6 C195.4,27.6 192.1,29.2 191.5,29.6 L191,29.8 L195.2,42.6 L195.4,43.3 Z M198.7,10.2 C160.5,10.2 127.6,33.7 113.8,67.1 C107,56.6 95.1,49.6 81.6,49.6 C60.4,49.6 43.2,66.8 43.2,88 C43.2,93 44.1,97.7 45.9,102.2 C25.6,103 9.4,119.5 9.4,139.8 C9.4,160.7 26.5,177.6 47.5,177.6 C51,177.6 54.3,177.1 57.6,176.3 C56.8,174.7 56,172.9 55.4,171.2 C55.1,171.3 54.7,171.3 54.5,171.4 L53.8,166.8 C53.9,166.8 54,166.7 54.1,166.7 C53.5,164.3 53.2,161.8 53.1,159.3 C51.3,159.8 49.5,160 47.6,160 C36.4,160 27.3,151 27.3,139.9 C27.3,128.7 36.4,119.8 47.6,119.8 C54.9,119.8 61.3,123.6 64.8,129.3 C66.5,127.6 68.3,126.2 70.1,124.8 C71.7,125.3 73.4,125.6 75.1,125.9 C64.2,132.6 56.9,144.5 56.9,158 C56.9,178.9 74,195.8 95,195.8 C113.5,195.8 128.8,182.8 132.4,165.4 C149.2,182.9 172.7,193.9 198.8,193.9 C249.4,193.9 290.6,152.7 290.6,102.1 C290.6,51.5 249.3,10.2 198.7,10.2 Z M199.8,28.9 C202.3,28.9 204.8,29.5 207.1,30.5 L203.4,41.9 C202.2,41.7 200.9,41.6 199.7,41.6 C198.2,41.6 196.9,41.8 196.2,41.9 L192.5,30.5 C193.5,29.9 196.3,28.9 199.8,28.9 Z M208.2,116.8 L205.3,109 C208.9,106.8 210.8,102.5 210.1,98.3 L218.1,95.4 C219.7,97.5 222.5,98.4 225.1,97.5 C228.3,96.3 230,92.8 228.8,89.5 C227.6,86.3 224.1,84.6 220.8,85.8 C218.4,86.7 216.8,89.1 216.8,91.5 L208.6,94.5 C206.4,90.8 202.2,89 198.1,89.5 L195.3,82 C197.2,80.4 197.9,77.7 197.1,75.3 C195.9,72.1 192.4,70.4 189.1,71.6 C185.9,72.8 184.2,76.3 185.4,79.6 C186.3,82.2 188.9,83.8 191.5,83.6 L194.2,90.9 C190.5,93.1 188.4,97.4 189,101.7 L181.9,104.3 C180.3,102.4 177.6,101.7 175.2,102.5 C172,103.7 170.3,107.2 171.5,110.5 C172.7,113.7 176.2,115.4 179.5,114.2 C182.1,113.3 183.7,110.7 183.5,108.1 L190.5,105.6 C192.7,109.3 197.2,111.4 201.5,110.6 L204.3,118.2 C202.2,119.8 201.3,122.6 202.2,125.2 C203.4,128.4 206.9,130.1 210.2,128.9 C213.4,127.7 215.1,124.2 213.9,121 C213,118.4 210.7,116.9 208.2,116.8 Z M32.2,162.8 C35.4,165 38.6,166.5 41.7,167.1 L40.8,172.2 C40.7,172.2 35,171.2 29,167.3 L32.2,162.8 L32.2,162.8 Z M19.9,157.2 C19.8,157.1 16.7,152.6 15,146 L20.4,145.2 C21,148.9 22.2,151.9 23.8,154.5 L19.9,157.2 L19.9,157.2 Z M20.1,133.3 L15.8,132.6 C15.8,132.5 16.9,126.9 20.7,120.9 L24.4,123.6 C22.1,126.8 20.7,130.2 20.1,133.3 L20.1,133.3 Z M31.9,116.9 L28.9,112.7 C29,112.6 34.4,108.9 42.3,107.5 L43,112.5 C38.4,113 34.8,114.7 31.9,116.9 L31.9,116.9 Z M106.9,103.8 L105.4,102.7 C106,101.8 106.5,100.8 107,100 C107,100.7 106.9,101.4 106.9,102.2 C106.8,102.6 106.8,103.3 106.9,103.8 L106.9,103.8 Z M107.9,115.9 C108.3,118.2 108.7,120.7 109.3,122.9 C106.9,121.9 104.2,121.2 101.5,120.7 C103.8,119.4 105.9,117.7 107.9,115.9 L107.9,115.9 Z M111.1,129.4 C111.5,130.5 111.8,131.6 112.2,132.7 L110.2,135.3 C106.9,133 103.6,131.6 100.5,131 L101.4,125.8 C101.5,125.9 105.9,126.7 111.1,129.4 L111.1,129.4 Z M108.8,68.5 C109.8,69.9 110.8,71.4 111.5,73.1 C110.5,76.1 109.7,79.1 109,82.2 C107.7,75.9 104.7,71.5 104.7,71.4 L108.8,68.5 L108.8,68.5 Z M88,55.4 C88.1,55.4 94,56.5 100.2,60.6 L96.9,65.1 C93.6,62.7 90.2,61.4 87.1,60.7 L88,55.4 L88,55.4 Z M76.3,54.9 L77,60 C72.3,60.7 68.7,62.4 65.8,64.6 L62.7,60.3 C62.9,60.3 68.4,56.4 76.3,54.9 L76.3,54.9 Z M57.1,103.2 C55.4,102.7 53.6,102.5 51.9,102.3 C50.9,100.3 49.7,97.5 48.9,94.2 L54.3,93.5 C54.9,97.2 56.1,100.3 57.7,102.9 L57.1,103.2 L57.1,103.2 Z M54,81.4 L49.7,80.7 C49.6,80.5 50.7,74.9 54.6,68.8 L58.4,71.6 C56,74.8 54.6,78.2 54,81.4 L54,81.4 Z M63.4,116.3 C63.2,116.2 63,116 62.7,115.9 L65.2,112.4 C65.4,112.5 65.6,112.7 65.9,112.8 L63.4,116.3 L63.4,116.3 Z M74.3,120.7 L74.5,120.6 C74.6,120.7 74.6,120.7 74.7,120.8 C74.6,120.8 74.5,120.8 74.3,120.7 L74.3,120.7 Z M65.1,104.2 C56.3,95 56.4,80.6 65.4,71.7 C74.4,62.8 88.9,62.9 97.8,72 C106.7,81 106.6,95.5 97.5,104.4 C88.6,113.3 74,113.2 65.1,104.2 L65.1,104.2 Z M88.5,120.1 L87.8,115.4 C93.2,114 96.9,111.5 97,111.4 L100.3,115.9 C97,117.8 93.2,119.3 88.5,120.1 L88.5,120.1 Z M90.5,130.5 C85.9,131.2 82.3,132.8 79.3,135 L76.3,130.8 C76.4,130.7 81.2,127.4 88.2,125.8 C88.8,125.7 89.2,125.6 89.8,125.5 L90.5,130.5 L90.5,130.5 Z M67.4,175.4 C67.3,175.3 64.2,170.8 62.5,164.2 L67.9,163.4 C68.5,167.1 69.7,170.1 71.3,172.7 L67.4,175.4 L67.4,175.4 Z M67.7,151.5 L63.4,150.8 C63.4,150.7 64.5,145.1 68.3,139.1 L72,141.8 C69.6,145 68.2,148.3 67.7,151.5 L67.7,151.5 Z M88.3,190.3 C88.2,190.3 82.5,189.3 76.5,185.4 L79.8,180.9 C83,183.2 86.2,184.6 89.3,185.2 L88.3,190.3 L88.3,190.3 Z M101.9,189.5 L101.2,184.9 C106.6,183.5 110.3,181.1 110.3,181 L113.5,185.4 C110.3,187.3 106.5,188.8 101.9,189.5 L101.9,189.5 Z M94.9,178.2 C83.7,178.2 74.6,169.2 74.6,158.1 C74.6,146.9 83.7,138 94.9,138 C106.1,138 115.2,147 115.2,158.1 C115.4,169.1 106.2,178.2 94.9,178.2 L94.9,178.2 Z M122.6,175.4 L118.6,172.5 C121.8,167.5 122.6,162.8 122.6,162.8 L127.8,163.7 C127.1,167.4 125.5,171.4 122.6,175.4 L122.6,175.4 Z M198.7,180.6 C155.4,180.6 120.2,145.4 120.2,102.1 C120.2,58.8 155.4,23.6 198.7,23.6 C242,23.6 277.2,58.8 277.2,102.1 C277.2,145.4 242,180.6 198.7,180.6 Z M94.9,172.5 C102.963357,172.5 109.5,166.008129 109.5,158 C109.5,149.991871 102.963357,143.5 94.9,143.5 C86.8366427,143.5 80.3,149.991871 80.3,158 C80.3,166.008129 86.8366427,172.5 94.9,172.5 Z M47.5,125.3 C39.4,125.3 32.9,131.9 32.9,139.8 C32.9,147.9 39.5,154.3 47.5,154.3 C49.6,154.3 51.4,153.9 53.2,153.2 C53.9,146 56.7,139.3 60.8,133.7 C58.5,128.8 53.4,125.3 47.5,125.3 Z M72,85.7 C70.9,85 69.6,84.7 68.1,84.7 L68.4,83 L74.6,83 L74.6,78.9 L64.9,78.9 L63.8,87.4 L63.7,88.9 L65.2,88.7 C65.8,88.6 66.3,88.5 67.2,88.5 C70.6,88.5 70.6,90.3 70.6,90.8 C70.6,92.4 69.3,93 68,93 C66.8,93 65.7,92.5 65.2,92.3 L64,91.6 L62.8,95.4 L63.5,95.9 C64.3,96.5 66,97 68.1,97 C72,97.3 75,94.5 75,90.7 C74.8,88.6 73.8,86.7 72,85.7 Z M87.7,91 C88.5,95.5 91.3,97.3 93.8,97.3 C95.8,97.3 100.5,96.4 100.5,87.8 C100.5,82.1 98.2,78.7 94.1,78.7 C90.9,78.7 88.6,81 87.8,84.9 C87.1,81 84.9,78.7 81.7,78.7 C77.7,78.7 75,82.4 75,88.1 C75,94.8 78.2,97.3 81.3,97.3 C83,97.3 86.7,96.6 87.7,91 Z M93.9,82.7 C95.8,82.7 96,86.4 96,87.9 C96,89.2 95.8,93.3 93.9,93.3 C92.7,93.3 91.8,91.1 91.8,88.1 C91.8,84.3 92.9,82.7 93.9,82.7 L93.9,82.7 Z M79.4,88.1 C79.4,84.4 80.5,82.7 81.5,82.7 C83.4,82.7 83.6,86.4 83.6,87.9 C83.6,89.2 83.4,93.3 81.5,93.3 C80.2,93.3 79.4,91.2 79.4,88.1 L79.4,88.1 Z" id="Shape" fill="#E4E4E4" filter="url(#filter-3)" sketch:type="MSShapeGroup"></path>
        </g>
    </g>
</svg>