<?xml version="1.0" encoding="UTF-8" standalone="no"?>
<svg width="198px" height="113px" viewBox="0 0 198 113" version="1.1" xmlns="http://www.w3.org/2000/svg" xmlns:xlink="http://www.w3.org/1999/xlink" xmlns:sketch="http://www.bohemiancoding.com/sketch/ns">
    <!-- Generator: Sketch 3.3.3 (12072) - http://www.bohemiancoding.com/sketch -->
    <title>cybersport</title>
    <desc>Created with Sketch.</desc>
    <defs>
        <linearGradient x1="50.0152412%" y1="-0.0232469512%" x2="50.0152412%" y2="100.023247%" id="linearGradient-1">
            <stop stop-color="#EDF0F4" offset="0%"></stop>
            <stop stop-color="#E7EAF1" offset="100%"></stop>
        </linearGradient>
        <filter x="-50%" y="-50%" width="200%" height="200%" filterUnits="objectBoundingBox" id="filter-2">
            <feOffset dx="0" dy="1" in="SourceAlpha" result="shadowOffsetInner1"></feOffset>
            <feGaussianBlur stdDeviation="2" in="shadowOffsetInner1" result="shadowBlurInner1"></feGaussianBlur>
            <feComposite in="shadowBlurInner1" in2="SourceAlpha" operator="arithmetic" k2="-1" k3="1" result="shadowInnerInner1"></feComposite>
            <feColorMatrix values="0 0 0 0 0   0 0 0 0 0   0 0 0 0 0  0 0 0 0.21 0" in="shadowInnerInner1" type="matrix" result="shadowMatrixInner1"></feColorMatrix>
            <feMerge>
                <feMergeNode in="SourceGraphic"></feMergeNode>
                <feMergeNode in="shadowMatrixInner1"></feMergeNode>
            </feMerge>
        </filter>
        <filter x="-50%" y="-50%" width="200%" height="200%" filterUnits="objectBoundingBox" id="filter-3">
            <feOffset dx="0" dy="1" in="SourceAlpha" result="shadowOffsetInner1"></feOffset>
            <feGaussianBlur stdDeviation="1.5" in="shadowOffsetInner1" result="shadowBlurInner1"></feGaussianBlur>
            <feComposite in="shadowBlurInner1" in2="SourceAlpha" operator="arithmetic" k2="-1" k3="1" result="shadowInnerInner1"></feComposite>
            <feColorMatrix values="0 0 0 0 0   0 0 0 0 0   0 0 0 0 0  0 0 0 0.211022418 0" in="shadowInnerInner1" type="matrix" result="shadowMatrixInner1"></feColorMatrix>
            <feMerge>
                <feMergeNode in="SourceGraphic"></feMergeNode>
                <feMergeNode in="shadowMatrixInner1"></feMergeNode>
            </feMerge>
        </filter>
    </defs>
    <g id="cybersport" stroke="none" stroke-width="1" fill="none" fill-rule="evenodd" sketch:type="MSPage">
        <g sketch:type="MSLayerGroup">
            <path d="M187.7,33.9 C183.1,26.4 177.1,21.9 170,20.6 C158.4,18.4 148.3,25.8 147.9,26.1 C147.5,26.3 146.5,26.7 146.1,26.7 L141,26.7 C140.6,26.7 139.6,26.3 139.2,26.1 C138.8,25.8 128.7,18.3 117.1,20.5 C110.2,21.8 104.4,26.1 99.8,33.2 C94.5,13.9 76.6,0 56,0 C34.3,0 15.6,15.5 11.4,36.5 C4.3,41.3 0,49.3 0,58 C0,70.2 8.5,80.6 20.1,83.3 C24.8,91.7 32.3,98.2 41.3,101.6 C43.4,107.7 49.2,112.1 56,112.1 C64.6,112.1 71.6,105.2 71.6,96.6 C71.6,88 64.6,81.1 56,81.1 C51.5,81.1 47.4,83 44.5,86.2 C41.5,84.7 38.7,82.6 36.5,80 C39.7,77.2 41.6,73.1 41.6,68.6 L41.6,47.3 C41.6,43.1 39.8,39.1 36.8,36.2 C40.3,28.9 47.7,24.1 56,24.1 C64.3,24.1 71.7,28.9 75.2,36.2 C72.2,39 70.4,43 70.4,47.3 L70.4,68.6 C70.4,77.1 77.3,83.9 85.8,83.9 C87.8,83.9 89.7,83.7 91.6,83.2 C93.7,90.4 99.1,94.5 106.3,93.9 C113.1,93.3 122.5,83.3 127.6,77.2 C127.7,77.1 128,77 128.2,76.9 L158.7,76.9 C158.9,76.9 159.2,77.1 159.3,77.2 C164.4,83.2 173.8,93.3 180.6,93.9 C188.6,94.6 194.4,89.5 195.9,80.7 C196.5,78.5 200.9,55.3 187.7,33.9 L187.7,33.9 Z M175.2,48.6 C175.4,48.6 175.5,48.8 175.5,48.9 C175.5,49.1 175.4,49.2 175.2,49.2 C175,49.2 174.9,49 174.9,48.9 C174.9,48.8 175,48.6 175.2,48.6 L175.2,48.6 Z M162.2,41.7 C162,41.7 161.9,41.5 161.9,41.4 C161.9,41.2 162,41.1 162.2,41.1 C162.4,41.1 162.5,41.3 162.5,41.4 C162.5,41.5 162.4,41.7 162.2,41.7 L162.2,41.7 Z M162.2,55.2 C162.4,55.2 162.5,55.4 162.5,55.5 C162.5,55.7 162.4,55.8 162.2,55.8 C162,55.8 161.9,55.6 161.9,55.5 C162,55.4 162.1,55.2 162.2,55.2 L162.2,55.2 Z" id="Shape" fill="url(#linearGradient-1)" filter="url(#filter-2)" sketch:type="MSShapeGroup"></path>
            <path d="M189.979,79.257 C189.089,84.754 186.132,88.428 180.569,87.966 C175.008,87.509 162.953,73.154 162.953,73.154 C161.96,71.971 159.876,71.004 158.327,71.004 L127.647,71.01 C126.098,71.01 124.012,71.976 123.017,73.159 C123.017,73.159 110.965,87.512 105.413,87.973 C99.843,88.434 96.893,84.762 95.997,79.263 C95.997,79.263 95.668,77.808 95.384,75.307 C92.402,76.966 88.972,77.921 85.317,77.921 C79.84,77.921 75.398,73.513 75.398,68.082 L75.398,46.763 C75.398,42.757 77.821,39.327 81.284,37.789 C78.226,26.483 67.837,18.119 55.491,18.119 C43.145,18.119 32.756,26.483 29.699,37.789 C33.162,39.324 35.584,42.755 35.584,46.763 L35.584,68.082 C35.584,72.682 32.386,76.517 28.081,77.593 C31.894,84.605 38.366,89.991 46.143,92.425 C47.609,88.712 51.235,86.064 55.491,86.064 C61.037,86.064 65.549,90.54 65.549,96.041 C65.549,101.542 61.037,106.018 55.491,106.018 C50.205,106.018 45.903,101.936 45.512,96.789 C35.639,93.916 27.556,86.901 23.276,77.775 C13.008,76.594 5,67.924 5,57.422 C5,49.608 9.435,42.803 15.94,39.346 C18.556,19.989 35.271,5 55.491,5 C75.711,5 92.428,19.989 95.043,39.346 C96.881,40.322 98.546,41.574 100,43.032 C100.997,40.744 102.169,38.446 103.568,36.17 C116.252,15.535 135.359,29.894 135.359,29.894 C136.596,30.821 138.881,31.584 140.434,31.583 L145.552,31.579 C147.103,31.576 149.388,30.813 150.626,29.886 C150.626,29.886 169.731,15.529 182.415,36.165 C195.096,56.796 189.978,79.257 189.979,79.257 L189.979,79.257 Z M131.31,46.352 L125.097,46.352 L125.124,39.961 C125.124,39.961 123.697,39.236 121.749,39.175 C119.802,39.12 118.449,39.838 118.449,39.838 L118.449,46.354 L111.869,46.354 C111.869,46.354 110.807,48.029 111.011,50.102 C111.219,52.174 111.994,52.962 111.994,52.962 L118.208,52.962 L118.208,59.117 C118.208,59.117 119.182,60.235 121.334,60.267 C123.489,60.292 124.883,59.24 124.883,59.24 L124.883,52.961 L131.461,52.961 C131.461,52.961 132.575,51.066 132.485,49.398 C132.396,47.731 131.31,46.352 131.31,46.352 L131.31,46.352 Z M161.635,35.618 C158.753,35.618 156.431,37.919 156.431,40.775 C156.431,43.624 158.753,45.929 161.635,45.929 C164.503,45.929 166.844,43.626 166.844,40.775 C166.844,37.919 164.503,35.618 161.635,35.618 L161.635,35.618 Z M161.635,49.804 C158.753,49.804 156.431,52.105 156.431,54.961 C156.431,57.811 158.753,60.118 161.635,60.118 C164.503,60.118 166.844,57.811 166.844,54.961 C166.844,52.105 164.503,49.804 161.635,49.804 L161.635,49.804 Z M174.603,43.232 C171.721,43.232 169.399,45.536 169.399,48.389 C169.399,51.24 171.721,53.546 174.603,53.546 C177.47,53.546 179.81,51.24 179.81,48.389 C179.81,45.536 177.47,43.232 174.603,43.232 L174.603,43.232 Z" id="Shape-Copy" fill="#E4E4E4" filter="url(#filter-3)" sketch:type="MSShapeGroup"></path>
        </g>
    </g>
</svg>