<?xml version="1.0" encoding="UTF-8" standalone="no"?>
<svg width="228px" height="130px" viewBox="0 0 228 130" version="1.1" xmlns="http://www.w3.org/2000/svg" xmlns:xlink="http://www.w3.org/1999/xlink" xmlns:sketch="http://www.bohemiancoding.com/sketch/ns">
    <!-- Generator: Sketch 3.3.3 (12072) - http://www.bohemiancoding.com/sketch -->
    <title>cybersport-selected</title>
    <desc>Created with Sketch.</desc>
    <defs>
        <linearGradient x1="50.0152412%" y1="-0.0232469512%" x2="50.0152412%" y2="100.023247%" id="linearGradient-1">
            <stop stop-color="#EDF0F4" offset="0%"></stop>
            <stop stop-color="#E7EAF1" offset="100%"></stop>
        </linearGradient>
        <filter x="-50%" y="-50%" width="200%" height="200%" filterUnits="objectBoundingBox" id="filter-2">
            <feOffset dx="0" dy="1" in="SourceAlpha" result="shadowOffsetInner1"></feOffset>
            <feGaussianBlur stdDeviation="2" in="shadowOffsetInner1" result="shadowBlurInner1"></feGaussianBlur>
            <feComposite in="shadowBlurInner1" in2="SourceAlpha" operator="arithmetic" k2="-1" k3="1" result="shadowInnerInner1"></feComposite>
            <feColorMatrix values="0 0 0 0 0   0 0 0 0 0   0 0 0 0 0  0 0 0 0.21 0" in="shadowInnerInner1" type="matrix" result="shadowMatrixInner1"></feColorMatrix>
            <feMerge>
                <feMergeNode in="SourceGraphic"></feMergeNode>
                <feMergeNode in="shadowMatrixInner1"></feMergeNode>
            </feMerge>
        </filter>
        <linearGradient x1="49.9640029%" y1="100.052183%" x2="49.9640029%" y2="0.00723492723%" id="linearGradient-3">
            <stop stop-color="#F7DE68" offset="0%"></stop>
            <stop stop-color="#FFFD72" offset="100%"></stop>
        </linearGradient>
        <filter x="-50%" y="-50%" width="200%" height="200%" filterUnits="objectBoundingBox" id="filter-4">
            <feOffset dx="0" dy="1" in="SourceAlpha" result="shadowOffsetOuter1"></feOffset>
            <feGaussianBlur stdDeviation="1" in="shadowOffsetOuter1" result="shadowBlurOuter1"></feGaussianBlur>
            <feColorMatrix values="0 0 0 0 0   0 0 0 0 0   0 0 0 0 0  0 0 0 0.35 0" in="shadowBlurOuter1" type="matrix" result="shadowMatrixOuter1"></feColorMatrix>
            <feOffset dx="0" dy="3" in="SourceAlpha" result="shadowOffsetOuter2"></feOffset>
            <feGaussianBlur stdDeviation="2" in="shadowOffsetOuter2" result="shadowBlurOuter2"></feGaussianBlur>
            <feColorMatrix values="0 0 0 0 0   0 0 0 0 0   0 0 0 0 0  0 0 0 0.209120245 0" in="shadowBlurOuter2" type="matrix" result="shadowMatrixOuter2"></feColorMatrix>
            <feOffset dx="0" dy="3" in="SourceAlpha" result="shadowOffsetInner1"></feOffset>
            <feGaussianBlur stdDeviation="1.5" in="shadowOffsetInner1" result="shadowBlurInner1"></feGaussianBlur>
            <feComposite in="shadowBlurInner1" in2="SourceAlpha" operator="arithmetic" k2="-1" k3="1" result="shadowInnerInner1"></feComposite>
            <feColorMatrix values="0 0 0 0 1   0 0 0 0 1   0 0 0 0 1  0 0 0 0.35 0" in="shadowInnerInner1" type="matrix" result="shadowMatrixInner1"></feColorMatrix>
            <feMerge>
                <feMergeNode in="shadowMatrixOuter1"></feMergeNode>
                <feMergeNode in="shadowMatrixOuter2"></feMergeNode>
                <feMergeNode in="SourceGraphic"></feMergeNode>
                <feMergeNode in="shadowMatrixInner1"></feMergeNode>
            </feMerge>
        </filter>
    </defs>
    <g id="cybersport-selected" stroke="none" stroke-width="1" fill="none" fill-rule="evenodd" sketch:type="MSPage">
        <g sketch:type="MSLayerGroup">
            <path d="M216.672245,39.254902 C211.362217,30.5701891 204.436093,25.3593614 196.24018,23.8540112 C182.849673,21.3064955 171.190698,29.8754121 170.728956,30.2228006 C170.267215,30.454393 169.112861,30.9175777 168.651119,30.9175777 L162.763914,30.9175777 C162.302172,30.9175777 161.147818,30.454393 160.686076,30.2228006 C160.224335,29.8754121 148.565359,21.1906993 135.174853,23.7382151 C127.209811,25.2435653 120.514557,30.2228006 115.204529,38.4443288 C109.086453,16.0956678 88.4235162,0 64.6438239,0 C39.5943421,0 18.0079224,17.9484065 13.1596356,42.2656024 C4.96372219,47.8238186 0,57.0875123 0,67.1617792 C0,81.288912 9.81200898,93.3317138 23.2025153,96.4582104 C28.6279791,106.185089 37.2856341,113.71184 47.6748201,117.64891 C50.0989635,124.712476 56.7942167,129.807508 64.6438239,129.807508 C74.5712682,129.807508 82.6517462,121.817572 82.6517462,111.859101 C82.6517462,101.90063 74.5712682,93.9106947 64.6438239,93.9106947 C59.4492309,93.9106947 54.7163795,96.1108219 51.3687529,99.8162994 C47.9056909,98.0793568 44.6734997,95.6476372 42.1339209,92.6369368 C45.8278537,89.394644 48.0211263,84.647001 48.0211263,79.4361733 L48.0211263,54.7715889 C48.0211263,49.9081497 45.9432891,45.2763029 42.4802271,41.9182139 C46.5204661,33.4650934 55.0626857,27.9068772 64.6438239,27.9068772 C74.224962,27.9068772 82.7671816,33.4650934 86.8074206,41.9182139 C83.3443586,45.1605067 81.2665214,49.7923535 81.2665214,54.7715889 L81.2665214,79.4361733 C81.2665214,89.2788478 89.231564,97.1529874 99.043573,97.1529874 C101.352281,97.1529874 103.545554,96.9213951 105.738826,96.3424143 C108.16297,104.679739 114.396481,109.427382 122.70783,108.732605 C130.557437,108.037828 141.408365,96.4582104 147.29557,89.394644 C147.411005,89.2788478 147.757312,89.1630517 147.988182,89.0472555 L183.195979,89.0472555 C183.42685,89.0472555 183.773156,89.2788478 183.888592,89.394644 C189.775797,96.3424143 200.626725,108.037828 208.476332,108.732605 C217.711164,109.543178 224.406417,103.637573 226.137948,93.44751 C226.830561,90.8999942 231.909718,64.0352825 216.672245,39.254902 L216.672245,39.254902 Z M202.24282,56.2769391 C202.473691,56.2769391 202.589127,56.5085314 202.589127,56.6243276 C202.589127,56.8559199 202.473691,56.9717161 202.24282,56.9717161 C202.01195,56.9717161 201.896514,56.7401238 201.896514,56.6243276 C201.896514,56.5085314 202.01195,56.2769391 202.24282,56.2769391 L202.24282,56.2769391 Z M187.236218,48.2870033 C187.005348,48.2870033 186.889912,48.055411 186.889912,47.9396148 C186.889912,47.7080224 187.005348,47.5922263 187.236218,47.5922263 C187.467089,47.5922263 187.582525,47.8238186 187.582525,47.9396148 C187.582525,48.055411 187.467089,48.2870033 187.236218,48.2870033 L187.236218,48.2870033 Z M187.236218,63.9194864 C187.467089,63.9194864 187.582525,64.1510787 187.582525,64.2668749 C187.582525,64.4984672 187.467089,64.6142634 187.236218,64.6142634 C187.005348,64.6142634 186.889912,64.3826711 186.889912,64.2668749 C187.005348,64.1510787 187.120783,63.9194864 187.236218,63.9194864 L187.236218,63.9194864 Z" id="Shape" fill="url(#linearGradient-1)" filter="url(#filter-2)" sketch:type="MSShapeGroup"></path>
            <path d="M219.303018,91.7765712 C218.275643,98.1418867 214.862218,102.396238 208.440547,101.86126 C202.021184,101.332071 188.105447,84.7095309 188.105447,84.7095309 C186.959173,83.3396622 184.5535,82.2199132 182.765405,82.2199132 L147.349825,82.226861 C145.56173,82.226861 143.153748,83.345452 142.005166,84.7153207 C142.005166,84.7153207 128.092891,101.335545 121.683918,101.869365 C115.254166,102.403186 111.848822,98.1511504 110.814521,91.783519 C110.814521,91.783519 110.434738,90.0986847 110.106902,87.2026225 C106.664618,89.123681 102.705184,90.2295344 98.48602,90.2295344 C92.1636232,90.2295344 87.0359827,85.1252392 87.0359827,78.8363491 L87.0359827,54.1497634 C87.0359827,49.5109688 89.8329824,45.5391602 93.8305103,43.7582151 C90.3004958,30.6663 78.3079121,20.9811082 64.0562577,20.9811082 C49.8046032,20.9811082 37.8120195,30.6663 34.2831594,43.7582151 C38.2806873,45.5356863 41.0765326,49.5086529 41.0765326,54.1497634 L41.0765326,78.8363491 C41.0765326,84.162973 37.3849086,88.6037561 32.4154146,89.8497229 C36.8169664,97.9693505 44.2879455,104.206132 53.2653565,107.024611 C54.9576395,102.725099 59.1433271,99.6588166 64.0562577,99.6588166 C70.4583049,99.6588166 75.6667502,104.841853 75.6667502,111.211801 C75.6667502,117.581748 70.4583049,122.764785 64.0562577,122.764785 C57.9543424,122.764785 52.9883115,118.037985 52.5369591,112.077956 C41.1400221,108.751132 31.8093788,100.628031 26.8687436,90.060472 C15.0158368,88.6929192 5.77176999,78.6533912 5.77176999,66.4924773 C5.77176999,57.4441645 10.89133,49.5642351 18.4004027,45.5611614 C21.4201928,23.1464966 40.7152198,5.78980855 64.0562577,5.78980855 C87.3972955,5.78980855 106.694631,23.1464966 109.713267,45.5611614 C111.83497,46.6913321 113.756969,48.1411001 115.4354,49.8294083 C116.586291,47.1799919 117.939194,44.5189959 119.554135,41.883475 C134.195961,17.9889352 156.252203,34.6161074 156.252203,34.6161074 C157.680139,35.6895379 160.317838,36.5730626 162.110549,36.5719047 L168.018533,36.5672728 C169.808936,36.5637989 172.446635,35.6802742 173.875725,34.6068437 C173.875725,34.6068437 195.929658,17.9819874 210.571484,41.8776852 C225.209847,65.7675933 219.301864,91.7765712 219.303018,91.7765712 L219.303018,91.7765712 Z M151.578223,53.6738412 L144.406222,53.6738412 L144.43739,46.2733079 C144.43739,46.2733079 142.790126,45.4337856 140.541445,45.36315 C138.293918,45.2994621 136.732077,46.1308786 136.732077,46.1308786 L136.732077,53.6761571 L129.136427,53.6761571 C129.136427,53.6761571 127.910503,55.615743 128.145992,58.0161976 C128.386097,60.4154942 129.280722,61.3279681 129.280722,61.3279681 L136.453877,61.3279681 L136.453877,68.4552224 C136.453877,68.4552224 137.578218,69.7498236 140.062388,69.7868784 C142.550021,69.8158274 144.15919,68.5976517 144.15919,68.5976517 L144.15919,61.3268101 L151.752531,61.3268101 C151.752531,61.3268101 153.038481,59.1324727 152.934589,57.2009925 C152.831852,55.2706704 151.578223,53.6738412 151.578223,53.6738412 L151.578223,53.6738412 Z M186.584008,41.2442802 C183.25716,41.2442802 180.57675,43.9087501 180.57675,47.2158887 C180.57675,50.5149216 183.25716,53.1840234 186.584008,53.1840234 C189.894696,53.1840234 192.597038,50.5172375 192.597038,47.2158887 C192.597038,43.9087501 189.894696,41.2442802 186.584008,41.2442802 L186.584008,41.2442802 Z M186.584008,57.671125 C183.25716,57.671125 180.57675,60.3355949 180.57675,63.6427335 C180.57675,66.9429244 183.25716,69.6143421 186.584008,69.6143421 C189.894696,69.6143421 192.597038,66.9429244 192.597038,63.6427335 C192.597038,60.3355949 189.894696,57.671125 186.584008,57.671125 L186.584008,57.671125 Z M201.553671,50.0610006 C198.226823,50.0610006 195.546413,52.7289444 195.546413,56.0326092 C195.546413,59.333958 198.226823,62.0042177 201.553671,62.0042177 C204.863204,62.0042177 207.564392,59.333958 207.564392,56.0326092 C207.564392,52.7289444 204.863204,50.0610006 201.553671,50.0610006 L201.553671,50.0610006 Z" id="Shape-Copy" fill="url(#linearGradient-3)" filter="url(#filter-4)" sketch:type="MSShapeGroup"></path>
        </g>
    </g>
</svg>