<?xml version="1.0" encoding="UTF-8" standalone="no"?>
<svg width="300px" height="164px" viewBox="0 0 300 164" version="1.1" xmlns="http://www.w3.org/2000/svg" xmlns:xlink="http://www.w3.org/1999/xlink" xmlns:sketch="http://www.bohemiancoding.com/sketch/ns">
    <!-- Generator: Sketch 3.3.2 (12043) - http://www.bohemiancoding.com/sketch -->
    <title>games-selected</title>
    <desc>Created with Sketch.</desc>
    <defs>
        <linearGradient x1="50.0152412%" y1="-0.0232469512%" x2="50.0152412%" y2="100.023247%" id="linearGradient-1">
            <stop stop-color="#EDF0F4" offset="0%"></stop>
            <stop stop-color="#E7EAF1" offset="100%"></stop>
        </linearGradient>
        <filter x="-50%" y="-50%" width="200%" height="200%" filterUnits="objectBoundingBox" id="filter-2">
            <feOffset dx="0" dy="1" in="SourceAlpha" result="shadowOffsetInner1"></feOffset>
            <feGaussianBlur stdDeviation="2" in="shadowOffsetInner1" result="shadowBlurInner1"></feGaussianBlur>
            <feComposite in="shadowBlurInner1" in2="SourceAlpha" operator="arithmetic" k2="-1" k3="1" result="shadowInnerInner1"></feComposite>
            <feColorMatrix values="0 0 0 0 0   0 0 0 0 0   0 0 0 0 0  0 0 0 0.21 0" in="shadowInnerInner1" type="matrix" result="shadowMatrixInner1"></feColorMatrix>
            <feMerge>
                <feMergeNode in="SourceGraphic"></feMergeNode>
                <feMergeNode in="shadowMatrixInner1"></feMergeNode>
            </feMerge>
        </filter>
        <filter x="-50%" y="-50%" width="200%" height="200%" filterUnits="objectBoundingBox" id="filter-3">
            <feOffset dx="0" dy="1" in="SourceAlpha" result="shadowOffsetInner1"></feOffset>
            <feGaussianBlur stdDeviation="1.5" in="shadowOffsetInner1" result="shadowBlurInner1"></feGaussianBlur>
            <feComposite in="shadowBlurInner1" in2="SourceAlpha" operator="arithmetic" k2="-1" k3="1" result="shadowInnerInner1"></feComposite>
            <feColorMatrix values="0 0 0 0 0   0 0 0 0 0   0 0 0 0 0  0 0 0 0.211022418 0" in="shadowInnerInner1" type="matrix" result="shadowMatrixInner1"></feColorMatrix>
            <feMerge>
                <feMergeNode in="SourceGraphic"></feMergeNode>
                <feMergeNode in="shadowMatrixInner1"></feMergeNode>
            </feMerge>
        </filter>
    </defs>
    <g id="games" stroke="none" stroke-width="1" fill="none" fill-rule="evenodd" sketch:type="MSPage">
        <g id="games-selected" sketch:type="MSLayerGroup" transform="translate(-1.000000, 0.000000)">
            <path d="M275.2,105.8 L274.9,105.8 C273.7,105.7 272.4,105.5 271,105.5 C270.3,105.5 269.6,105.5 268.9,105.6 C268.3,104.5 267.8,103.5 267.2,102.4 C268.9,102.7 270.8,102.9 273,102.9 C276.3,102.9 280.3,102.7 285.4,100.9 C290.1,99.3 293.1,94.6 292.6,89.7 C292.3,86.9 291.9,84.2 291.3,81.6 C290.7,78.9 289.9,76.4 288.7,73.7 C286.6,68.9 283.9,64.9 280.3,61.3 C280.2,61.2 280,61 279.9,60.9 C281.1,59.2 281.8,57.1 281.8,54.8 L281.8,51.5 C281.8,45.6 277,40.8 271.1,40.8 C260.5,40.8 251,44.3 243.2,51 L243.2,42.8 C245.1,39.9 246.2,36.5 246.2,32.7 C246.2,27.8 244.3,23.1 240.8,19.7 C237.3,16.2 232.8,14.3 227.9,14.3 C224.1,14.3 220.4,15.5 217.3,17.6 L217.3,17.6 L208.5,17.6 C206.8,13.9 203.1,11.4 198.8,11.4 L168.4,11.4 C167.1,9.5 165.5,7.8 163.6,6.3 C159.1,2.7 154,0.8 148.4,0.8 C142.7,0.8 137.4,2.7 133.1,6.3 C131.3,7.8 129.7,9.5 128.4,11.4 L98.1,11.4 C93.8,11.4 90.1,14 88.4,17.6 L82.9,17.6 C77,17.6 72.2,22.4 72.2,28.3 L72.2,53.6 L71.6,53 C68.5,49.9 64.5,48.3 60.1,48.3 C55.8,48.3 51.8,49.9 48.7,52.9 C48.6,53 48.6,53 48.5,53.1 L26.9,74.8 C22,79.7 20.9,87.2 23.8,93.3 L17.3,93.3 C8.3,93.3 1,100.6 1,109.6 L1,141 C1,150 8.3,157.3 17.3,157.3 L48.5,157.3 C57.5,157.3 64.8,150 64.8,141 L64.8,123.6 C67.3,122.9 69.5,121.5 71.4,119.7 C71.5,119.6 71.5,119.6 71.6,119.5 L72.2,118.9 L72.2,152.4 C72.2,158.3 77,163.1 82.9,163.1 L217.4,163.1 C219.4,163.1 221.4,162.5 223,161.5 C226.1,162.5 229.3,163.1 232.7,163.1 C240,163.1 246.7,160.5 251.9,156.1 C257.1,160.5 263.8,163.1 271.1,163.1 C287.6,163.1 301,149.7 301,133.3 C301.1,119 290.8,108 275.2,105.8 L275.2,105.8 Z" id="Shape" fill="url(#linearGradient-1)" filter="url(#filter-2)" sketch:type="MSShapeGroup"></path>
            <path d="M273.8,116.4 C273,116.3 272,116.2 271.1,116.2 C268.4,116.2 265.9,116.6 263.6,117.4 C255.8,104.7 246.1,85.3 249.4,71.2 C249.7,72.7 250,74.1 250.3,75.4 C251.5,79.4 253.6,82.6 256.2,85.2 C258.8,87.8 262.1,89.9 266.2,91.1 C268.2,91.7 270.5,92.1 273.1,92.1 C275.7,92.1 278.5,91.9 282,90.7 C281.7,88.1 281.3,85.9 280.9,83.7 C280.4,81.6 279.8,79.7 278.9,77.8 C277.3,74.2 275.3,71.2 272.7,68.6 C270.1,66 267,63.9 263.3,62.4 C261.1,61.6 258.7,60.8 255.8,60.4 C259.1,57.7 263.5,55.8 269.1,54.6 C269.8,54.6 270.4,54.5 271.1,54.5 L271.1,51.2 C262,51.2 254.3,54.5 248.1,60.9 C239.9,69.4 235.6,82 233.3,93.5 C233.1,92.9 232.8,92.4 232.6,91.8 L232.6,38.4 C234.6,37 235.6,35.1 235.6,32.5 C235.6,30.4 234.9,28.5 233.4,27 C231.9,25.5 230.1,24.8 228,24.8 C226,24.8 224.1,25.5 222.6,27 C221.1,28.5 220.4,30.3 220.4,32.5 C220.4,35.1 221.4,37.1 223.4,38.4 L223.4,85.4 L217.5,85.4 L217.5,28.4 L199,28.4 L199,22.2 L162,22.2 C161.2,19.2 159.6,16.7 157.1,14.7 C154.6,12.7 151.8,11.6 148.6,11.6 C145.4,11.6 142.6,12.6 140.1,14.7 C137.6,16.7 136,19.3 135.2,22.2 L98.2,22.2 L98.2,28.4 L82.9,28.4 L82.9,79.6 L64,60.6 C61.9,58.5 58.3,58.5 56.1,60.6 L34.5,82.3 C32.4,84.4 32.4,88 34.5,90.2 L48.3,104 L17.3,104 C14.2,104 11.7,106.5 11.7,109.6 L11.7,140.9 C11.7,144 14.2,146.5 17.3,146.5 L48.5,146.5 C51.6,146.5 54.1,144 54.1,140.9 L54.1,109.9 L56.1,111.9 C58.2,114 61.8,114 64,111.9 L82.9,92.9 L82.9,152.3 L217.4,152.3 L217.4,144.9 C220.9,149.5 226.4,152.3 232.6,152.3 C243.3,152.3 251.8,143.7 251.8,133.2 C251.8,123.5 244.6,117.7 235.2,116.4 C234.8,116.4 234.5,116.3 234.2,116.3 C234.5,105.8 236.4,82.1 247.1,67.4 C247.1,67.4 247.1,67.4 247.1,67.5 C241.4,82.8 251.9,104.7 260.5,118.7 C255.3,121.5 251.9,126.5 251.9,133.2 C251.9,143.8 260.5,152.3 271.1,152.3 C281.8,152.3 290.3,143.7 290.3,133.2 C290.4,123.6 283.2,117.7 273.8,116.4 Z M149.9,46.5 C145.9,46.5 141.8,47.5 137.6,49.5 L137.6,46.5 L134.6,46.5 L134.6,64.8 L137.6,64.8 C137.6,64.6 137.7,64.3 137.8,64.1 C137.9,63.8 138.1,63.4 138.3,62.6 C138.5,61.9 138.8,61.3 139.2,60.6 C139.6,60 140.2,59.5 141,59.1 C141.8,58.7 142.8,58.5 144,58.5 L148.2,58.7 C148.2,58.7 149.9,58.6 153.3,58.5 C152.3,59.1 151.1,59.9 149.7,61 C148.3,62.1 146.4,64.2 144.2,67.3 C141.9,70.5 140.8,73.6 140.8,76.8 L156.3,76.8 C156.3,75.4 156.4,73.7 156.5,71.6 C156.6,69.6 157.4,66.1 159,61.3 C160.6,56.5 162.7,52.5 165.2,49.3 L162.2,46.3 C158.2,48.4 154.1,48.4 149.9,46.5 Z M107.3,46.5 C103.1,46.5 99,47.5 95,49.5 L95,46.5 L92,46.5 L92,64.8 L95,64.8 C95,64.2 95.1,63.6 95.2,62.8 C95.3,62.1 95.9,61.2 96.9,60.1 C97.9,59 99.3,58.5 101.1,58.5 C101.3,58.5 102.8,58.6 105.6,58.7 C108.4,58.8 110,58.8 110.3,58.5 C109.5,59.1 108.4,59.9 107,61 C105.6,62.1 103.7,64.2 101.5,67.3 C99.2,70.5 98.1,73.6 98.1,76.8 L113.3,76.8 C113.3,75.4 113.4,73.7 113.6,71.6 C113.8,69.6 114.6,66.1 116.1,61.3 C117.6,56.5 119.7,52.5 122.5,49.3 L119.5,46.3 C115.4,48.4 111.3,48.4 107.3,46.5 Z M181.6,61 C182.8,59.4 184.5,58.7 186.7,58.7 L191.1,58.9 C191.1,58.9 192.8,58.8 196,58.7 C195,59.3 193.9,60.1 192.6,61.2 C191.3,62.3 189.5,64.4 187.2,67.5 C184.9,70.7 183.8,73.8 183.8,77 L199,77 C199,75.6 199.1,73.9 199.3,71.8 C199.5,69.8 200.3,66.3 201.8,61.5 C203.3,56.7 205.4,52.7 208.2,49.5 L205.2,46.5 C200.9,48.5 196.8,48.5 192.9,46.5 C188.7,46.5 184.6,47.5 180.6,49.5 L180.6,46.5 L177.3,46.5 L177.3,64.8 L180.6,64.8 L181.6,61 Z M251.8,63.4 C256.5,68.5 271.6,82.7 271.6,82.7 C256.8,73.1 250.7,64.8 250.7,64.8 L251.8,63.4 L251.8,63.4 Z M21.8,138.3 C19.5,138.3 17.6,136.4 17.6,134.1 C17.6,131.8 19.5,129.9 21.8,129.9 C24.1,129.9 26,131.8 26,134.1 C26,136.3 24,138.3 21.8,138.3 L21.8,138.3 Z M21.8,121.4 C19.5,121.4 17.6,119.5 17.6,117.2 C17.6,114.9 19.5,113 21.8,113 C24.1,113 26,114.9 26,117.2 C26,119.5 24,121.4 21.8,121.4 L21.8,121.4 Z M32.9,138.3 C30.6,138.3 28.7,136.4 28.7,134.1 C28.7,131.8 30.6,129.9 32.9,129.9 C35.2,129.9 37.1,131.8 37.1,134.1 C37,136.3 35.2,138.3 32.9,138.3 L32.9,138.3 Z M32.9,121.4 C30.6,121.4 28.7,119.5 28.7,117.2 C28.7,114.9 30.6,113 32.9,113 C35.2,113 37.1,114.9 37.1,117.2 C37.1,119.5 35.2,121.4 32.9,121.4 L32.9,121.4 Z M44,138.3 C41.7,138.3 39.8,136.4 39.8,134.1 C39.8,131.8 41.7,129.9 44,129.9 C46.3,129.9 48.2,131.8 48.2,134.1 C48.2,136.3 46.3,138.3 44,138.3 L44,138.3 Z M44,121.4 C41.7,121.4 39.8,119.5 39.8,117.2 C39.8,114.9 41.7,113 44,113 C46.3,113 48.2,114.9 48.2,117.2 C48.2,119.5 46.3,121.4 44,121.4 L44,121.4 Z M55.1,69.6 C56.8,67.9 59.4,67.9 61,69.6 C62.7,71.3 62.7,73.9 61,75.5 C59.3,77.2 56.7,77.2 55.1,75.5 C53.5,74 53.5,71.3 55.1,69.6 L55.1,69.6 Z M43.3,87.4 C41.6,85.7 41.6,83.1 43.3,81.5 C45,79.8 47.6,79.8 49.2,81.5 C50.9,83.2 50.9,85.8 49.2,87.4 C47.5,89 44.9,89 43.3,87.4 L43.3,87.4 Z M51.2,95.2 C49.5,93.5 49.5,90.9 51.2,89.3 C52.9,87.6 55.5,87.6 57.1,89.3 C58.8,91 58.8,93.6 57.1,95.2 C55.4,96.9 52.8,96.9 51.2,95.2 L51.2,95.2 Z M64.9,103.1 C63.2,104.8 60.6,104.8 59,103.1 C57.3,101.4 57.3,98.8 59,97.2 C60.7,95.5 63.3,95.5 64.9,97.2 C66.6,98.9 66.6,101.6 64.9,103.1 L64.9,103.1 Z M63,83.4 C61.3,81.7 61.3,79.1 63,77.5 C64.7,75.8 67.3,75.8 68.9,77.5 C70.6,79.2 70.6,81.8 68.9,83.4 C67.2,85.1 64.6,85.1 63,83.4 L63,83.4 Z M76.7,91.3 C75,93 72.4,93 70.8,91.3 C69.1,89.6 69.1,87 70.8,85.4 C72.5,83.7 75.1,83.7 76.7,85.4 C78.4,87.1 78.4,89.7 76.7,91.3 L76.7,91.3 Z M131.7,40.5 L168.4,40.5 L168.4,82.7 L131.7,82.7 L131.7,40.5 L131.7,40.5 Z M88.8,40.5 L125.5,40.5 L125.5,82.7 L88.8,82.7 L88.8,40.5 L88.8,40.5 Z M198.9,137.1 L98.1,137.1 L98.1,116.1 L198.9,116.1 L198.9,137.1 L198.9,137.1 Z M211.1,82.7 L174.4,82.7 L174.4,40.5 L211.1,40.5 L211.1,82.7 L211.1,82.7 Z M230.9,116.2 C225.4,116.7 220.5,118.8 217.3,122.3 L217.3,109.9 L226.2,109.9 L226.2,109 C228.5,108.2 230.3,106.9 231.6,105.3 C231.2,109.6 231,113.4 230.9,116.2 L230.9,116.2 Z" id="Shape" fill="#E4E4E4" filter="url(#filter-3)" sketch:type="MSShapeGroup"></path>
        </g>
    </g>
</svg>