<?xml version="1.0" encoding="UTF-8" standalone="no"?>
<svg width="300px" height="239px" viewBox="0 0 300 239" version="1.1" xmlns="http://www.w3.org/2000/svg" xmlns:xlink="http://www.w3.org/1999/xlink" xmlns:sketch="http://www.bohemiancoding.com/sketch/ns">
    <!-- Generator: Sketch 3.3.2 (12043) - http://www.bohemiancoding.com/sketch -->
    <title>live-casino-selected</title>
    <desc>Created with Sketch.</desc>
    <defs>
        <linearGradient x1="50.0152412%" y1="-0.0232469512%" x2="50.0152412%" y2="100.023247%" id="linearGradient-1">
            <stop stop-color="#EDF0F4" offset="0%"></stop>
            <stop stop-color="#E7EAF1" offset="100%"></stop>
        </linearGradient>
        <filter x="-50%" y="-50%" width="200%" height="200%" filterUnits="objectBoundingBox" id="filter-2">
            <feOffset dx="0" dy="1" in="SourceAlpha" result="shadowOffsetInner1"></feOffset>
            <feGaussianBlur stdDeviation="2" in="shadowOffsetInner1" result="shadowBlurInner1"></feGaussianBlur>
            <feComposite in="shadowBlurInner1" in2="SourceAlpha" operator="arithmetic" k2="-1" k3="1" result="shadowInnerInner1"></feComposite>
            <feColorMatrix values="0 0 0 0 0   0 0 0 0 0   0 0 0 0 0  0 0 0 0.21 0" in="shadowInnerInner1" type="matrix" result="shadowMatrixInner1"></feColorMatrix>
            <feMerge>
                <feMergeNode in="SourceGraphic"></feMergeNode>
                <feMergeNode in="shadowMatrixInner1"></feMergeNode>
            </feMerge>
        </filter>
        <filter x="-50%" y="-50%" width="200%" height="200%" filterUnits="objectBoundingBox" id="filter-3">
            <feOffset dx="0" dy="1" in="SourceAlpha" result="shadowOffsetInner1"></feOffset>
            <feGaussianBlur stdDeviation="1.5" in="shadowOffsetInner1" result="shadowBlurInner1"></feGaussianBlur>
            <feComposite in="shadowBlurInner1" in2="SourceAlpha" operator="arithmetic" k2="-1" k3="1" result="shadowInnerInner1"></feComposite>
            <feColorMatrix values="0 0 0 0 0   0 0 0 0 0   0 0 0 0 0  0 0 0 0.211022418 0" in="shadowInnerInner1" type="matrix" result="shadowMatrixInner1"></feColorMatrix>
            <feMerge>
                <feMergeNode in="SourceGraphic"></feMergeNode>
                <feMergeNode in="shadowMatrixInner1"></feMergeNode>
            </feMerge>
        </filter>
    </defs>
    <g id="live-casino" stroke="none" stroke-width="1" fill="none" fill-rule="evenodd" sketch:type="MSPage">
        <g id="live-casino-selected" sketch:type="MSLayerGroup">
            <path d="M300,116.8 C300,73.3 264.717608,37.9 221.362126,37.9 C200.631229,37.9 181.096346,46 166.245847,60.6 C156.27907,70.5 149.202658,82.6 145.51495,95.8 C143.122924,94 140.531561,92.4 137.940199,90.8 L137.44186,90.5 C143.920266,81.2 147.707641,69.9 147.707641,57.7 C147.707641,26.4 122.591362,0.9 91.7940199,0.9 C60.9966777,0.9 35.9800664,26.4 35.9800664,57.8 C35.9800664,70 39.8671096,81.2 46.2458472,90.5 L45.448505,91 C21.3289037,105.3 5.58139535,129.9 1.09634551,160.5 C1.09634551,160.7 1.09634551,160.8 0.996677741,161 L0.996677741,161.8 C0.697674419,164.5 1.59468439,167.2 3.38870432,169.2 L3.88704319,169.8 C27.2093023,198.4 58.5049834,214.1 91.7940199,214.1 C106.843854,214.1 121.295681,211 135.049834,204.8 C140.431894,217.6 152.890365,226.5 167.44186,226.5 C169.036545,226.5 170.631229,226.4 172.126246,226.2 C178.604651,234 188.272425,238.9 199.036545,238.9 C218.372093,238.9 234.119601,222.9 234.119601,203.3 C234.119601,200.4 233.72093,197.5 233.023256,194.7 C270.996678,189.1 300,156.3 300,116.8 Z M239.601329,94.5 C237.906977,94.5 236.212625,94.8 234.518272,95.4 C232.923588,96 231.528239,96.8 230.232558,97.9 C230.232558,96.4 229.933555,94.9 229.435216,93.4 C227.44186,87.6 222.059801,83.8 215.880399,83.8 C214.186047,83.8 212.491694,84.1 210.797342,84.7 C207.209302,86 204.318937,88.6 202.724252,92.1 C201.129568,95.6 200.930233,99.7 202.325581,103.4 C202.82392,104.8 203.521595,106 204.418605,107.1 C203.122924,107.2 201.827243,107.5 200.631229,107.9 C196.943522,109.2 194.053156,111.8 192.358804,115.4 C190.76412,118.9 190.564784,122.9 191.960133,126.5 C193.953488,132.2 199.335548,136 205.415282,136 C207.209302,136 208.903654,135.7 210.598007,135 C211.79402,134.5 212.890365,133.9 213.986711,133.2 C214.086379,134.6 214.285714,135.9 214.684385,137.3 L214.684385,137.4 C216.677741,143.2 222.059801,147 228.239203,147 C229.933555,147 231.627907,146.7 233.322259,146.1 C236.910299,144.8 239.800664,142.2 241.395349,138.7 C242.990033,135.2 243.189369,131.2 241.79402,127.5 C241.196013,126 240.498339,124.6 239.501661,123.4 C241.096346,123.4 242.69103,123.2 244.186047,122.6 L244.285714,122.6 C247.973422,121.3 250.863787,118.7 252.55814,115.1 C254.152824,111.6 254.352159,107.6 252.956811,104 C251.063123,98.3 245.681063,94.5 239.601329,94.5 Z M250.963455,134.9 C249.568106,136.3 248.770764,138 248.372093,139.7 C246.877076,140.4 245.481728,141.4 244.48505,143 C244.285714,143.2 243.687708,143.8 242.890365,144.2 C241.594684,144.9 240.598007,145.9 239.800664,147 C237.508306,146.9 235.215947,147.6 233.421927,149 C233.023256,149.1 232.524917,149.3 231.827243,149.4 C231.627907,149.4 231.328904,149.5 231.129568,149.5 L230.730897,149.6 C229.435216,149.9 228.239203,150.5 227.142857,151.3 C225.548173,150.8 223.754153,150.8 221.960133,151.3 L221.262458,151.3 C220.863787,151.3 220.465116,151.3 220.066445,151.2 C218.571429,150.9 217.17608,151 215.780731,151.3 C214.186047,149.9 212.192691,149 210,148.9 C209.601329,148.8 209.10299,148.6 208.405316,148.3 C206.810631,147.2 204.916944,146.7 203.122924,146.7 C202.325581,145.5 201.129568,144.4 199.734219,143.7 C199.435216,143.5 198.637874,142.9 197.740864,141.9 C196.843854,140.9 195.847176,140.1 194.651163,139.5 C194.352159,137.3 193.255814,135.2 191.66113,133.7 C191.461794,133.5 191.262458,133.1 191.063123,132.6 C190.564784,130.6 189.368771,128.9 187.873754,127.7 C188.07309,126.1 187.873754,124.5 187.17608,123 C187.17608,123 186.877076,121.9 186.877076,120.8 C186.877076,119.4 186.578073,118.1 186.079734,116.8 C187.275748,114.9 187.774086,112.7 187.475083,110.5 C187.475083,110.1 187.674419,109.4 187.873754,108.8 C187.973422,108.5 188.07309,108.1 188.172757,107.8 L188.272425,107.4 C188.571429,106 188.671096,104.7 188.372093,103.3 C189.368771,102.4 190.166113,101.2 190.76412,99.7 C191.262458,98.6 191.760797,97.8 192.159468,97.3 C193.056478,96.3 193.654485,95.1 193.953488,93.8 C196.146179,93.1 198.039867,91.6 199.23588,89.7 C199.534884,89.4 199.933555,89.1 200.531561,88.8 C200.730897,88.7 200.830565,88.6 201.0299,88.5 L201.328904,88.3 C202.624585,87.4 203.621262,86.3 204.318937,85.1 C206.41196,85 207.906977,84.2 208.604651,83.9 C209.003322,83.7 209.900332,83.2 210.996678,83 C212.392027,82.8 213.687708,82.2 214.784053,81.5 C215.980066,82 217.17608,82.2 218.372093,82.2 C219.368771,82.2 220.365449,82 221.362126,81.7 L221.66113,81.7 C222.059801,81.7 222.358804,81.7 222.55814,81.8 L222.657807,81.8 C224.551495,82.3 226.345515,82.2 228.039867,81.6 C229.335548,82.6 230.830565,83.2 232.624585,83.4 C232.923588,83.5 233.820598,83.7 234.717608,84.2 C235.913621,84.9 237.209302,85.3 238.504983,85.5 C239.601329,87.5 241.395349,89.1 243.488372,89.9 C243.687708,90.1 243.986711,90.3 244.285714,90.6 C245.481728,92.3 247.076412,93.5 248.870432,94.1 C248.9701,94.7 249.169435,95.2 249.368771,95.7 C249.86711,96.8 250.564784,97.8 251.362126,98.6 C251.561462,98.8 251.860465,99.4 252.059801,100.1 C252.55814,101.5 253.255814,102.7 254.252492,103.7 C253.754153,105.9 254.152824,108.3 255.149502,110.3 C255.249169,110.7 255.348837,111.2 255.348837,111.8 L255.348837,112.2 C255.348837,113.9 255.747508,115.5 256.54485,116.9 C255.847176,118.3 255.448505,120 255.548173,121.7 C255.548173,122 255.448505,123 255.049834,124.1 C254.551495,125.4 254.451827,126.7 254.551495,128 C252.757475,129.4 251.461794,131.5 250.963455,133.8 C251.461794,134.3 251.262458,134.6 250.963455,134.9 L250.963455,134.9 Z M255.847176,101.4 C255.747508,101.4 255.747508,101.4 255.647841,101.3 C255.747508,101.3 255.747508,101.4 255.847176,101.4 L255.847176,101.4 L255.847176,101.4 Z M254.352159,100.8 C254.651163,101 255.049834,101.1 255.348837,101.2 C255.049834,101.1 254.651163,100.9 254.352159,100.8 L254.352159,100.8 Z" id="Shape" fill="url(#linearGradient-1)" filter="url(#filter-2)" sketch:type="MSShapeGroup"></path>
            <path d="M91.8936877,104.8 C117.30897,104.8 138.039867,83.7 138.039867,57.8 C138.039867,31.8 117.408638,10.8 91.8936877,10.8 C66.4784053,10.8 45.7475083,31.9 45.7475083,57.8 C45.8471761,83.6 66.5780731,104.8 91.8936877,104.8 Z M199.136213,213.3 C204.530622,213.3 208.903654,208.867619 208.903654,203.4 C208.903654,197.932381 204.530622,193.5 199.136213,193.5 C193.741803,193.5 189.368771,197.932381 189.368771,203.4 C189.368771,208.867619 193.741803,213.3 199.136213,213.3 Z M167.541528,181.1 C162.159468,181.1 157.774086,185.6 157.774086,191 C157.774086,196.5 162.159468,200.9 167.541528,200.9 C168.837209,200.9 170.13289,200.6 171.328904,200.2 C171.92691,195.2 173.621262,190.8 176.312292,186.9 C174.916944,183.5 171.528239,181.1 167.541528,181.1 Z M265.913621,121.8 C265.913621,121.8 266.013289,124.5 264.916944,127.7 L273.58804,132.3 C277.774086,126.5 275.681063,120.5 275.681063,120.4 L265.913621,121.8 Z M203.621262,156.8 L203.322259,156.6 L196.943522,164.9 L197.242525,165.2 C200.830565,168.9 205.116279,169.5 207.508306,169.5 C208.106312,169.5 208.504983,169.5 209.003322,169.4 L209.401993,169.4 L209.700997,159.2 L209.700997,158.8 L209.302326,158.8 C209.10299,158.9 206.511628,158.5 203.621262,156.8 Z M208.305648,168.7 L207.30897,168.7 C205.215947,168.7 201.328904,168.2 198.039867,164.9 L203.621262,157.8 C205.813953,159 207.906977,159.5 208.704319,159.7 L208.305648,168.7 Z M185.083056,91.3 L178.604651,84 C172.724252,88 172.524917,94.4 172.524917,94.5 L182.093023,96.5 C182.093023,96.5 182.890365,93.9 185.083056,91.3 Z M252.55814,85 L252.757475,85.3 L261.627907,79.7 L261.428571,79.3 C258.637874,72.9 252.55814,71.4 251.960133,71.3 L251.561462,71.2 L247.873754,80.6 L247.574751,81.1 L248.07309,81.2 C248.172757,81.2 250.564784,82.4 252.55814,85 Z M252.259136,72.2 C253.654485,72.6 258.239203,74.2 260.730897,79.3 L253.056478,84.1 C251.362126,82.2 249.667774,81 248.870432,80.5 L252.259136,72.2 Z M247.774086,152.8 L251.362126,161.9 C258.239203,160.2 260.531561,154.3 260.631229,154.1 L252.358804,149 C252.259136,149 250.76412,151.1 247.774086,152.8 Z M185.38206,141 L184.983389,140.7 C184.983389,140.7 183.189369,138.8 182.093023,135.7 L181.993355,135.3 L171.727575,137.4 L171.727575,137.8 C172.225914,144.8 177.30897,148.2 178.006645,148.5 L178.305648,148.7 L184.983389,141.1 L185.38206,141 Z M178.106312,147.8 C177.009967,147 173.122924,143.9 172.624585,138.2 L181.495017,136.3 C182.392027,138.6 183.58804,140.3 184.186047,141.1 L178.106312,147.8 Z M209.800664,73.6 L209.401993,63.8 C202.325581,63.1 198.139535,67.8 198.139535,67.9 L204.219269,75.6 C204.219269,75.6 206.511628,74.1 209.800664,73.6 Z M264.418605,106.1 L264.717608,106.5 C264.717608,106.5 265.714286,108.9 265.714286,112.2 L265.714286,112.6 L276.079734,114 L276.179402,113.6 C278.172757,106.9 274.385382,101.9 274.086379,101.4 L273.887043,101.1 L264.916944,105.9 L264.418605,106.1 Z M273.58804,102.2 C274.385382,103.3 276.976744,107.5 275.581395,113.1 L266.611296,111.9 C266.611296,109.4 265.913621,107.4 265.714286,106.6 L273.58804,102.2 Z M224.352159,161 C224.352159,161 221.760797,161.7 218.372093,161 L215.38206,170.3 C221.760797,173.5 227.342193,170.4 227.44186,170.3 L224.352159,161 Z M167.740864,113.2 L177.707641,111.8 L178.20598,111.8 L178.106312,111.3 C178.106312,111.3 178.006645,108.7 179.10299,105.6 L179.202658,105.2 L169.933555,100.2 L169.734219,100.5 C165.647841,106.1 167.44186,112.1 167.641196,112.7 L167.740864,113.2 Z M170.232558,101.4 L178.20598,105.6 C177.408638,107.9 177.30897,110.1 177.30897,110.9 L168.33887,112.2 C167.940199,110.9 166.943522,106.1 170.232558,101.4 Z M246.179402,68.2 C241.196013,63.1 235.016611,64.1 234.817276,64.1 L234.518272,73.9 C234.518272,73.9 237.209302,74.3 240.099668,76 L246.179402,68.2 Z M261.129568,136 L261.129568,136.5 C261.129568,136.5 260.431894,139 258.239203,141.5 L257.940199,141.8 L264.916944,149.7 L265.215947,149.5 C270.996678,145.6 271.395349,139.4 271.495017,138.8 L271.495017,138.4 L261.627907,136.3 L261.129568,136 Z M270.598007,138.9 C270.498339,140.3 269.800664,145.2 265.116279,148.4 L259.036545,141.7 C260.631229,139.7 261.428571,137.9 261.727575,137 L270.598007,138.9 Z M190.664452,148.4 L182.392027,153.6 C185.282392,160.1 191.561462,161.4 191.66113,161.4 L195.249169,152.3 C195.249169,152.3 192.857143,151 190.664452,148.4 Z M192.159468,70.7 C185.481728,72.4 182.890365,78.1 182.69103,78.7 L182.491694,79.1 L191.063123,84.4 L191.461794,84.7 L191.66113,84.2 C191.66113,84.2 193.255814,82.1 196.146179,80.5 L196.445183,80.3 L192.55814,70.6 L192.159468,70.7 Z M191.162791,83.6 L183.488372,78.8 C184.086379,77.5 186.478405,73.2 191.960133,71.7 L195.348837,80.1 C193.255814,81.4 191.760797,82.9 191.162791,83.6 Z M261.92691,97.3 L271.395349,95.2 C270.89701,88.1 265.415282,84.8 265.315615,84.7 L258.837209,92 C258.936877,92.1 260.830565,94 261.92691,97.3 Z M239.501661,156.8 L239.10299,157.2 C239.10299,157.2 236.910299,158.6 233.621262,159.2 L233.222591,159.3 L233.621262,169.8 L234.019934,169.8 C234.61794,169.9 235.016611,169.9 235.614618,169.9 C241.495017,169.9 245.083056,166.3 245.780731,165.5 L246.079734,165.2 L239.800664,157.3 L239.501661,156.8 Z M235.614618,169 L234.518272,169 L234.219269,159.9 C236.710963,159.4 238.504983,158.5 239.302326,158 L244.883721,165.1 C243.887043,166.1 240.697674,169 235.614618,169 Z M177.508306,120.9 L167.840532,119.5 C165.847176,126.3 169.933555,131.3 169.933555,131.4 L178.504983,126.8 C178.504983,126.8 177.508306,124.3 177.508306,120.9 Z M218.870432,72.6 L219.368771,72.4 C219.368771,72.4 220.465116,72.1 222.159468,72.1 C223.156146,72.1 224.252492,72.2 225.149502,72.4 L225.548173,72.5 L228.837209,62.5 L228.438538,62.3 C226.445183,61.4 224.451827,60.9 222.259136,60.9 C218.870432,60.9 216.478405,62.1 215.980066,62.4 L215.681063,62.6 L218.870432,72.2 L218.870432,72.6 Z M290.232558,116.8 C290.232558,78.8 259.435216,47.7 221.362126,47.7 C183.787375,47.7 153.189369,78.1 152.491694,115.6 C147.009967,109.2 140.431894,103.6 133.056478,99.3 L131.461794,98.4 L130.265781,99.7 C120.099668,110.5 106.445183,116.6 91.7940199,116.6 C77.1428571,116.6 63.4883721,110.6 53.3222591,99.7 L52.1262458,98.4 L50.6312292,99.3 C29.10299,112.1 14.9501661,134.2 10.8637874,161.9 L10.7641196,162.8 L11.461794,163.5 C32.8903654,189.8 61.4950166,204.3 91.8936877,204.3 C109.734219,204.3 126.777409,199.3 142.325581,190 C142.325581,190.3 142.225914,190.7 142.225914,190.9 C142.225914,205.1 153.58804,216.7 167.541528,216.7 C169.833887,216.7 172.126246,216.4 174.219269,215.8 C173.621262,214.7 173.122924,213.6 172.724252,212.3 C172.524917,212.3 172.325581,212.4 172.026578,212.4 L171.528239,209.2 C171.627907,209.2 171.627907,209.2 171.727575,209.1 C171.328904,207.5 171.129568,205.8 171.0299,204.1 C169.933555,204.5 168.637874,204.7 167.44186,204.7 C159.966777,204.7 153.887043,198.5 153.887043,191 C153.887043,183.4 159.966777,177.3 167.44186,177.3 C172.325581,177.3 176.511628,179.9 178.903654,183.7 C180.099668,182.4 181.495017,181.3 182.890365,180.2 C182.69103,179.9 182.591362,179.8 182.591362,179.8 L185.282392,177.8 C185.481728,178 185.581395,178.2 185.780731,178.5 C186.578073,178 187.475083,177.8 188.272425,177.4 C189.169435,177.9 190.166113,178.4 191.063123,178.9 C180.89701,182.3 173.621262,192 173.621262,203.4 C173.621262,217.6 184.983389,229.2 198.936877,229.2 C212.890365,229.2 224.252492,217.7 224.252492,203.4 C224.252492,196.6 221.66113,190.4 217.375415,185.7 C218.671096,185.8 219.86711,185.8 221.162791,185.8 C259.435216,185.9 290.232558,154.9 290.232558,116.8 Z M222.259136,61.8 C224.152824,61.8 225.946844,62.2 227.740864,63 L224.950166,71.6 C224.053156,71.4 223.056478,71.4 222.159468,71.4 C221.063123,71.4 220.066445,71.5 219.568106,71.6 L216.777409,63 C217.475083,62.6 219.568106,61.8 222.259136,61.8 Z M223.654485,123.1 L225.747508,128.8 C224.152824,130 223.554817,132.2 224.152824,134.1 C224.950166,136.5 227.740864,137.7 230.13289,136.8 C232.524917,136 233.72093,133.2 232.82392,130.8 C232.126246,128.9 230.431894,127.8 228.538206,127.8 L226.445183,121.9 C229.136213,120.2 230.531561,117 230.033223,113.9 L236.013289,111.7 C237.209302,113.3 239.401993,113.9 241.295681,113.3 C243.687708,112.5 244.883721,109.7 243.986711,107.3 C243.189369,104.9 240.398671,103.7 238.006645,104.6 C236.112957,105.3 235.016611,107 235.016611,108.9 L228.936877,111.1 C227.242525,108.4 224.152824,106.9 221.063123,107.4 L218.9701,101.7 C220.365449,100.5 220.963455,98.4 220.265781,96.6 C219.468439,94.2 216.677741,93 214.285714,93.9 C211.893688,94.7 210.697674,97.5 211.594684,99.9 C212.292359,101.9 214.186047,103.1 216.179402,102.9 L218.272425,108.4 C215.481728,110.1 213.887043,113.3 214.48505,116.5 L209.202658,118.5 C208.006645,117.1 205.913621,116.5 204.119601,117.2 C201.727575,118 200.531561,120.8 201.428571,123.2 C202.225914,125.6 205.016611,126.8 207.408638,125.9 C209.401993,125.2 210.598007,123.3 210.398671,121.3 L215.581395,119.3 C217.076412,122.2 220.365449,123.7 223.654485,123.1 Z M114.219269,147 C114.219269,148.2 113.521595,149.3 112.225914,149.9 C111.627907,150.2 111.129568,150.3 110.431894,150.3 C109.734219,150.3 108.936877,150.1 108.33887,149.7 L98.6710963,144 C96.7774086,145.2 94.4850498,146 91.9933555,146 C89.5016611,146 87.1096346,145.3 85.3156146,144 L75.5481728,149.7 C74.8504983,150.1 74.1528239,150.3 73.4551495,150.3 C72.7574751,150.3 72.2591362,150.2 71.6611296,149.9 C70.4651163,149.3 69.6677741,148.2 69.6677741,147 L69.6677741,125.4 C69.6677741,124.2 70.3654485,123.1 71.6611296,122.5 C72.8571429,121.9 74.3521595,122 75.448505,122.7 L85.2159468,128.4 C87.1096346,127.2 89.4019934,126.4 91.8936877,126.4 C94.3853821,126.4 96.7774086,127.1 98.5714286,128.4 L108.33887,122.7 C109.435216,122 110.930233,122 112.126246,122.5 C113.322259,123.1 114.119601,124.2 114.119601,125.4 L114.119601,147 L114.219269,147 Z M149.800664,185.1 C149.700997,185.6 149.501661,186 149.401993,186.5 L148.106312,186.3 C148.604651,186 149.202658,185.6 149.800664,185.1 L149.800664,185.1 Z M149.202658,202.8 C149.202658,202.7 147.109635,199.7 145.913621,195.1 L149.501661,194.5 C149.900332,197 150.697674,199.1 151.694352,200.9 L149.202658,202.8 L149.202658,202.8 Z M157.475083,206.7 C159.568106,208.3 161.760797,209.1 163.853821,209.6 L163.255814,213.1 C163.156146,213.1 159.468439,212.4 155.38206,209.7 L157.475083,206.7 L157.475083,206.7 Z M177.707641,175.6 C175.614618,174 173.322259,173.1 171.229236,172.6 L171.827243,169 C171.92691,169 175.714286,169.7 179.800664,172.5 L177.707641,175.6 L177.707641,175.6 Z M170.930233,165.5 C171.229236,165.2 171.528239,164.8 171.727575,164.6 C172.225914,165.1 172.524917,165.5 173.023256,166 C172.325581,165.7 171.627907,165.6 170.930233,165.5 L170.930233,165.5 Z M195.647841,181.2 L196.146179,184.6 C193.056478,185.1 190.664452,186.2 188.671096,187.7 L186.578073,184.8 C186.777409,184.8 190.465116,182.2 195.647841,181.2 L195.647841,181.2 Z M180.797342,215.2 C180.797342,215.1 178.704319,212.1 177.508306,207.5 L181.096346,206.9 C181.495017,209.4 182.292359,211.5 183.289037,213.3 L180.797342,215.2 L180.797342,215.2 Z M180.996678,198.9 L178.106312,198.4 C178.106312,198.3 178.803987,194.5 181.395349,190.5 L183.887043,192.4 C182.292359,194.5 181.395349,196.7 180.996678,198.9 L180.996678,198.9 Z M194.750831,225.4 C194.651163,225.4 190.963455,224.7 186.877076,222 L188.9701,218.9 C191.063123,220.5 193.255814,221.3 195.348837,221.8 L194.750831,225.4 L194.750831,225.4 Z M203.72093,224.9 L203.222591,221.7 C206.810631,220.8 209.302326,219.1 209.302326,219 L211.395349,222 C209.302326,223.4 206.710963,224.4 203.72093,224.9 L203.72093,224.9 Z M199.136213,217.1 C191.66113,217.1 185.581395,210.9 185.581395,203.4 C185.581395,195.8 191.66113,189.7 199.136213,189.7 C206.611296,189.7 212.69103,195.9 212.69103,203.4 C212.591362,211 206.611296,217.1 199.136213,217.1 L199.136213,217.1 Z M202.82392,185 L203.122924,183.4 C205.813953,184.1 208.504983,184.7 211.295681,185.2 L209.302326,188 C207.109635,186.4 204.916944,185.4 202.82392,185 L202.82392,185 Z M217.475083,215.2 L214.883721,213.2 C216.976744,209.8 217.574751,206.7 217.574751,206.6 L221.063123,207.3 C220.465116,209.8 219.468439,212.5 217.475083,215.2 L217.475083,215.2 Z M220.76412,199.3 L217.375415,199.8 C216.677741,195.3 214.48505,192.2 214.385382,192.1 L217.076412,190.1 C218.770764,192.7 220.166113,195.6 220.76412,199.3 L220.76412,199.3 Z M162.55814,116.8 C162.55814,84.3 188.870432,57.7 221.461794,57.7 C253.853821,57.7 280.365449,84.1 280.365449,116.8 C280.365449,149.4 254.053156,175.9 221.461794,175.9 C188.9701,175.9 162.55814,149.3 162.55814,116.8 L162.55814,116.8 Z" id="Shape" fill="#E4E4E4" filter="url(#filter-3)" sketch:type="MSShapeGroup"></path>
        </g>
    </g>
</svg>