<?xml version="1.0" encoding="UTF-8" standalone="no"?>
<svg width="301px" height="172px" viewBox="0 0 301 172" version="1.1" xmlns="http://www.w3.org/2000/svg" xmlns:xlink="http://www.w3.org/1999/xlink" xmlns:sketch="http://www.bohemiancoding.com/sketch/ns">
    <!-- Generator: Sketch 3.3.2 (12043) - http://www.bohemiancoding.com/sketch -->
    <title>poker-selected</title>
    <desc>Created with Sketch.</desc>
    <defs>
        <linearGradient x1="50.0152412%" y1="-0.0232469512%" x2="50.0152412%" y2="100.023247%" id="linearGradient-1">
            <stop stop-color="#EDF0F4" offset="0%"></stop>
            <stop stop-color="#E7EAF1" offset="100%"></stop>
        </linearGradient>
        <filter x="-50%" y="-50%" width="200%" height="200%" filterUnits="objectBoundingBox" id="filter-2">
            <feOffset dx="0" dy="1" in="SourceAlpha" result="shadowOffsetInner1"></feOffset>
            <feGaussianBlur stdDeviation="2" in="shadowOffsetInner1" result="shadowBlurInner1"></feGaussianBlur>
            <feComposite in="shadowBlurInner1" in2="SourceAlpha" operator="arithmetic" k2="-1" k3="1" result="shadowInnerInner1"></feComposite>
            <feColorMatrix values="0 0 0 0 0   0 0 0 0 0   0 0 0 0 0  0 0 0 0.21 0" in="shadowInnerInner1" type="matrix" result="shadowMatrixInner1"></feColorMatrix>
            <feMerge>
                <feMergeNode in="SourceGraphic"></feMergeNode>
                <feMergeNode in="shadowMatrixInner1"></feMergeNode>
            </feMerge>
        </filter>
        <linearGradient x1="49.9640029%" y1="100.052183%" x2="49.9640029%" y2="0.00723492723%" id="linearGradient-3">
            <stop stop-color="#F7DE68" offset="0%"></stop>
            <stop stop-color="#FFFD72" offset="100%"></stop>
        </linearGradient>
        <filter x="-50%" y="-50%" width="200%" height="200%" filterUnits="objectBoundingBox" id="filter-4">
            <feOffset dx="0" dy="1" in="SourceAlpha" result="shadowOffsetOuter1"></feOffset>
            <feGaussianBlur stdDeviation="1" in="shadowOffsetOuter1" result="shadowBlurOuter1"></feGaussianBlur>
            <feColorMatrix values="0 0 0 0 0   0 0 0 0 0   0 0 0 0 0  0 0 0 0.35 0" in="shadowBlurOuter1" type="matrix" result="shadowMatrixOuter1"></feColorMatrix>
            <feOffset dx="0" dy="3" in="SourceAlpha" result="shadowOffsetOuter2"></feOffset>
            <feGaussianBlur stdDeviation="2" in="shadowOffsetOuter2" result="shadowBlurOuter2"></feGaussianBlur>
            <feColorMatrix values="0 0 0 0 0   0 0 0 0 0   0 0 0 0 0  0 0 0 0.209120245 0" in="shadowBlurOuter2" type="matrix" result="shadowMatrixOuter2"></feColorMatrix>
            <feOffset dx="0" dy="3" in="SourceAlpha" result="shadowOffsetInner1"></feOffset>
            <feGaussianBlur stdDeviation="1.5" in="shadowOffsetInner1" result="shadowBlurInner1"></feGaussianBlur>
            <feComposite in="shadowBlurInner1" in2="SourceAlpha" operator="arithmetic" k2="-1" k3="1" result="shadowInnerInner1"></feComposite>
            <feColorMatrix values="0 0 0 0 1   0 0 0 0 1   0 0 0 0 1  0 0 0 0.35 0" in="shadowInnerInner1" type="matrix" result="shadowMatrixInner1"></feColorMatrix>
            <feMerge>
                <feMergeNode in="shadowMatrixOuter1"></feMergeNode>
                <feMergeNode in="shadowMatrixOuter2"></feMergeNode>
                <feMergeNode in="SourceGraphic"></feMergeNode>
                <feMergeNode in="shadowMatrixInner1"></feMergeNode>
            </feMerge>
        </filter>
    </defs>
    <g id="poker-selected" stroke="none" stroke-width="1" fill="none" fill-rule="evenodd" sketch:type="MSPage">
        <g sketch:type="MSLayerGroup" id="Shape">
            <path d="M297.3,39.3 C293.6,32.9 287.7,28.4 280.6,26.5 L254.2,19.5 C250.7,8.4 240.3,0.4 228.1,0.4 L165.1,0.4 C150,0.4 137.7,12.7 137.7,27.9 L137.7,54 C136.2,52.2 134.7,50.4 133.2,48.6 C133.3,48 133.3,47.5 133.3,46.9 C133.3,43.7 132,40.8 130,38.6 C131.1,35.7 132.5,32.6 133.5,30.8 C134.8,28.3 135.1,25.4 134.1,22.7 C133.2,20 131.2,17.8 128.6,16.7 C126,15.5 112.5,9.6 103,9.6 C98.5,9.6 94.7,10.9 91.9,13.4 C89.2,15.8 88.3,18.6 88.1,21.3 C85.5,21.7 83.2,23.1 81.5,25.3 C79.1,28.5 78.8,32.9 80.7,36.4 C81.1,37.1 81.9,38.7 82.7,40.4 C81.5,42.3 80.8,44.5 80.8,46.9 L80.8,47.7 C68.4,60.8 58.7,78.2 54.1,95.8 C49.6,98.1 46.2,101.3 44.2,105.1 C40,103.6 35.3,102.8 30.4,102.8 C13.5,102.8 0.7,112 0.7,124.2 C0.7,125 0.8,125.8 0.9,126.5 C1,127.2 1,127.9 1,128.6 C1,129.4 1.1,130.2 1.2,130.9 C1,131.7 1,132.4 1,133.1 C1,145.3 13.8,154.5 30.7,154.5 C35,154.5 39.1,153.9 42.7,152.8 C44.6,163.5 56.6,171.2 72.1,171.2 C82.7,171.2 91.7,167.6 96.9,161.8 C100.4,162.4 103.8,162.8 107.2,162.8 C124,162.8 140.4,155.3 150.9,143.5 C155.1,146 160,147.4 165,147.4 L178.1,147.4 C179.1,149.4 180.7,151.1 182.8,152.2 C184.4,153 186,153.6 187.6,154.1 L243,168.8 C245.3,169.4 247.6,169.7 250,169.7 L250,169.7 C262.4,169.7 273.3,161.3 276.5,149.2 L299.9,60.2 C301.9,53.1 301,45.6 297.3,39.3 L297.3,39.3 Z M223.5,55.3 L223.5,56.2 C223.2,55.9 223,55.6 222.7,55.2 C223,55.2 223.2,55.3 223.5,55.3 L223.5,55.3 Z M189.3,112.4 C191.6,112.7 194.1,112.7 196.8,112.7 C204.2,112.7 210.1,112.7 213.5,107.2 C215,104.7 215.4,101.7 214.7,99 C218,98.2 221,96.8 223.6,94.8 L223.6,115.5 L188.4,115.5 L189.3,112.4 L189.3,112.4 Z M203.2,37.6 C202.9,37.4 202.7,37.2 202.5,37.1 C200.8,35.9 198.6,35.3 196.6,35.3 C194.5,35.3 192.4,35.9 190.7,37.1 C186.6,40 176.8,47.3 169.6,56.4 L169.6,32.3 L204.9,32.3 L203.2,37.6 L203.2,37.6 Z M255.5,76.7 C256.4,76.8 257.3,76.8 258.1,76.7 C259,77.4 260.1,78 261.4,78.4 C261.6,78.5 261.8,78.5 261.9,78.6 L262,78.6 L255.3,104 L255.3,76.7 L255.5,76.7 Z" fill="url(#linearGradient-1)" filter="url(#filter-2)" sketch:type="MSShapeGroup"></path>
            <path d="M278,36.4 L251,29.2 L251,41.1 L275,47.5 C278.1,48.3 279.8,51.5 279.1,54.6 L255.7,143.7 C254.9,146.8 251.8,148.6 248.7,147.8 L230.3,142.9 C229.6,143 228.9,143.1 228.2,143.1 L187.6,143.1 C188.5,143.6 189.5,143.9 190.5,144.2 L245.8,158.9 C254.9,161.3 264.3,155.8 266.8,146.6 L290.2,57.5 C292.6,48.3 287.1,38.8 278,36.4 Z M181.2,102.7 L178,102.7 C177.7,102.7 177.5,102.8 177.4,102.9 C177.3,103 177.2,103.3 177.1,103.6 L176.3,106.7 L171.2,106.7 L170.3,103.5 C170.2,103.2 170.1,103 169.9,102.9 C169.8,102.8 169.6,102.7 169.3,102.7 L166.4,102.7 C166.2,102.7 166.1,102.7 166,102.8 C165.9,102.9 165.9,103.1 166,103.4 L170.9,119.2 C171,119.5 171.1,119.7 171.2,119.8 C171.3,119.9 171.6,120 171.9,120 L175.2,120 C175.6,120 175.8,119.9 175.9,119.8 C176,119.7 176.1,119.4 176.2,119.2 L181.4,103.4 C181.5,103.2 181.5,103 181.4,102.9 C181.5,102.8 181.4,102.7 181.2,102.7 Z M245.3,119.9 L245.3,27.8 C245.3,18.3 237.6,10.6 228.2,10.6 L165.2,10.6 C155.7,10.6 148.1,18.3 148.1,27.8 L148.1,92 C143.2,78.8 134.4,64.3 122.2,51.5 C121.9,51.6 121.6,51.6 121.4,51.6 L93.4,51.6 C92.9,51.6 92.5,51.5 92,51.3 C77,65.5 67.4,85.1 63.8,101.1 C66.4,100.4 69.3,100 72.4,100 C81,100 88.2,103 91.7,107.4 L91.8,107.2 L91.9,107.6 C93.2,109.4 94,111.2 94,113.4 C94,113.7 94,114 93.9,114.2 L94,114.2 L94,150.7 C98.3,151.9 102.9,152.7 107.4,152.7 C125.7,152.7 143,142.2 149.7,127.4 C152.4,133.3 158.4,137.4 165.3,137.4 L228.3,137.4 C237.6,137.3 245.3,129.5 245.3,119.9 Z M174.6,112.6 L173.8,115.8 L173.7,115.8 L172.9,112.6 L172.2,109.7 L175.6,109.7 L174.6,112.6 Z M120.6,128 C108.2,128 98.1,117.9 98.1,105.5 C98.1,93.1 108.2,83 120.6,83 C133,83 143.1,93.1 143.1,105.5 C143.1,118 133,128 120.6,128 L120.6,128 Z M165.1,125.7 C162,125.7 159.4,123.1 159.4,119.9 L159.4,27.8 C159.4,24.6 162,22 165.1,22 L228.1,22 C231.3,22 233.8,24.6 233.8,27.8 L233.8,120 C233.8,123.2 231.2,125.8 228.1,125.8 L165.1,125.8 L165.1,125.7 Z M196.7,45.5 C196.6,45.5 171.5,63 171.5,76.3 C171.5,84.2 176.8,89.3 184.5,89.3 C188.1,89.3 192.4,86.5 194.7,84.4 C194.7,84.4 192.7,93.6 188.8,101.6 C188.3,102.5 205.2,102.5 204.7,101.6 C200.9,94.1 198.7,84.4 198.7,84.4 C200.9,86.6 204.9,89.2 208.9,89.2 C216.4,89.2 221.8,84.1 221.8,76.2 C221.7,62.9 196.7,45.5 196.7,45.5 Z M221.8,28.1 C221.7,28 221.4,27.9 221.1,27.9 L217.8,27.9 C217.4,27.9 217.2,28 217.1,28.1 C217,28.2 216.9,28.4 216.8,28.7 L211.9,44.5 C211.8,44.8 211.8,45 211.9,45.1 C212,45.2 212.1,45.2 212.3,45.2 L215.2,45.2 C215.5,45.2 215.7,45.1 215.8,45 C215.9,44.9 216.1,44.7 216.2,44.4 L217.1,41.2 L222.2,41.2 L223,44.3 C223.1,44.6 223.2,44.8 223.3,44.9 C223.4,45 223.6,45.1 223.9,45.1 L227.1,45.1 C227.3,45.1 227.4,45 227.5,44.9 L227.5,44.4 L222.3,28.7 C222,28.3 221.9,28.2 221.8,28.1 Z M217.7,38 L218.4,35.1 L219.2,31.9 L219.3,31.9 L220.1,35.1 L221,38 L217.7,38 Z M264.2,68.3 C264.3,68.5 264.5,68.6 264.8,68.7 L267.9,69.5 C268.1,69.6 268.2,69.5 268.3,69.4 C268.4,69.3 268.4,69.2 268.4,68.9 L267.5,52.2 C267.5,51.9 267.4,51.7 267.4,51.5 C267.3,51.3 267.1,51.2 266.7,51.1 L263.5,50.3 C263.1,50.2 262.9,50.2 262.8,50.3 C262.6,50.4 262.5,50.6 262.3,50.8 L253.4,64.8 C253.2,65.1 253.2,65.3 253.2,65.4 C253.2,65.5 253.4,65.6 253.6,65.6 L256.6,66.4 C256.9,66.5 257.1,66.5 257.2,66.4 C257.4,66.3 257.5,66.2 257.7,65.9 L259.4,63.1 L264.3,64.4 L264.3,67.6 C264.1,67.9 264.1,68.1 264.2,68.3 Z M260.9,60.3 L262.4,57.7 L264.1,54.9 L264.2,54.9 L264.2,58.2 L264.2,61.2 L260.9,60.3 Z M93.3,44.9 C92.2,44.9 91.3,45.7 91.3,46.8 C91.3,47.8 92.2,48.7 93.3,48.7 L121.2,48.7 C122.3,48.7 123.2,47.9 123.2,46.8 C123.2,45.8 122.3,44.9 121.2,44.9 L93.3,44.9 Z M118.3,42.2 C119.6,35.2 124.5,25.9 124.5,25.9 C124.5,25.9 103.8,16.5 99,20.9 C97,22.7 101.8,29.4 100,31.3 C98.3,33.2 89.9,31.3 89.9,31.3 C89.9,31.3 93.2,37.2 94.7,42.2 L118.3,42.2 L118.3,42.2 Z M132.2,105.2 C131.1,104.5 129,103.7 126.1,102.8 L126.1,93.3 C127.9,93.4 129.3,94 130,95.3 C130.5,96 130.7,96.9 130.8,97.9 L134.2,97.9 C134.1,95.7 133.5,93.9 132.1,92.6 C130.7,91.3 128.7,90.5 126.1,90.3 L126.1,87.8 L124.2,87.8 L124.2,90.4 C121.6,90.4 119.5,91.2 118.1,92.8 C116.6,94.4 116,96.2 116,98.1 C116,100.3 116.7,102 118,103.3 C119.4,104.5 121.4,105.4 124.2,106 L124.2,116.6 C122,116.4 120.5,115.6 119.6,114.1 C119.1,113.3 118.9,112 118.8,110.2 L115.4,110.2 C115.4,112.4 115.8,114.2 116.5,115.5 C117.9,117.9 120.4,119.2 124.2,119.5 L124.2,123.3 L126.1,123.3 L126.1,119.5 C128.4,119.2 130.3,118.7 131.5,117.9 C133.7,116.4 134.9,114 134.9,110.5 C134.8,108.2 133.9,106.4 132.2,105.2 Z M124.3,102.4 L124.3,102.4 C122.7,102.1 121.6,101.6 120.8,100.9 C120,100.2 119.5,99.1 119.5,97.9 C119.5,96.8 119.9,95.9 120.6,94.8 C121.3,93.8 122.6,93.3 124.3,93.2 L124.3,102.4 L124.3,102.4 Z M130.6,114.3 C129.8,115.8 128.2,116.6 125.9,116.7 L125.9,106.5 C127.5,107 128.7,107.4 129.3,107.9 C130.5,108.7 131.1,109.9 131.1,111.6 C131.2,112.6 131.1,113.5 130.6,114.3 Z M72.2,102 C61.4,102 52.7,107 52.7,113.2 C52.7,119.3 61.5,124.4 72.2,124.4 C83,124.4 91.7,119.4 91.7,113.2 C91.7,107 83,102 72.2,102 Z M79.8,110.4 C79.1,110.2 78.3,110 77.5,110 C76.1,110 75,110.3 74.3,110.9 C73.8,111.3 73.5,111.8 73.1,112.6 L82,112.6 C81.9,111.6 81.1,110.8 79.8,110.4 Z M62.9,115.5 C63.7,115.9 64.7,116.1 65.6,116.1 C66.7,116.1 67.6,115.9 68.2,115.4 C68.9,114.9 69.3,114.4 69.5,113.7 L61.6,113.7 C61.5,114.5 62,115.1 62.9,115.5 Z M87.6,113.7 L84.4,113.7 C84.2,115.6 83,116.9 80.9,117.5 C79.8,117.9 78.2,118.1 76.2,118.1 L76.2,116.3 C77.8,116.2 78.9,116.1 79.6,115.9 C80.9,115.5 81.6,114.8 81.7,113.7 L72.5,113.7 C72,115.1 71.3,116.1 70.2,116.8 C69.1,117.5 67.6,117.8 65.6,117.8 C63.8,117.8 62.3,117.4 60.9,116.7 C59.5,116 58.9,114.9 58.8,113.6 L56.6,113.6 L56.6,112.7 L58.8,112.7 C59,111.4 59.6,110.4 60.8,109.7 C62,109 63.5,108.7 65.5,108.6 L65.5,110.3 C64.7,110.4 63.9,110.5 63.3,110.7 C62.2,111.1 61.5,111.7 61.5,112.7 L69.8,112.7 C70.5,111.2 71.2,110.2 71.8,109.6 C72.8,108.8 74.4,108.3 76.6,108.3 C79.6,108.3 81.7,108.9 83,110 C83.7,110.7 84.2,111.5 84.4,112.7 L87.7,112.7 L87.7,113.7 L87.6,113.7 Z M72.2,125.9 C62.3,125.9 54.1,121.7 52.9,116.2 C52.8,116.7 52.7,117.2 52.7,117.7 C52.7,123.8 61.5,128.9 72.2,128.9 C83,128.9 91.7,123.9 91.7,117.7 C91.7,117.2 91.6,116.7 91.5,116.2 C90.2,121.6 82.1,125.9 72.2,125.9 Z M72.2,130.4 C62.3,130.4 54.1,126.2 52.9,120.7 C52.8,121.2 52.7,121.7 52.7,122.2 C52.7,128.3 61.5,133.4 72.2,133.4 C83,133.4 91.7,128.4 91.7,122.2 C91.7,121.7 91.6,121.2 91.5,120.7 C90.2,126.2 82.1,130.4 72.2,130.4 Z M72.2,134.8 C62.3,134.8 54.1,130.6 52.9,125.1 C52.8,125.6 52.7,126.1 52.7,126.6 C52.7,132.7 61.5,137.8 72.2,137.8 C83,137.8 91.7,132.8 91.7,126.6 C91.7,126.1 91.6,125.6 91.5,125.1 C90.2,130.7 82.1,134.8 72.2,134.8 Z M72.2,139.3 C62.3,139.3 54.1,135.1 52.9,129.6 C52.8,130.1 52.7,130.6 52.7,131.1 C52.7,137.2 61.5,142.3 72.2,142.3 C83,142.3 91.7,137.3 91.7,131.1 C91.7,130.6 91.6,130.1 91.5,129.6 C90.2,135.1 82.1,139.3 72.2,139.3 Z M72.2,144.5 C62.3,144.5 54.1,140.3 52.9,134.8 C52.8,135.3 52.7,135.8 52.7,136.3 C52.7,142.4 61.5,147.5 72.2,147.5 C83,147.5 91.7,142.5 91.7,136.3 C91.7,135.8 91.6,135.3 91.5,134.8 C90.2,140.3 82.1,144.5 72.2,144.5 Z M72.2,149 C62.3,149 54.1,144.8 52.9,139.3 C52.8,139.8 52.7,140.3 52.7,140.8 C52.7,146.9 61.5,152 72.2,152 C83,152 91.7,147 91.7,140.8 C91.7,140.3 91.6,139.8 91.5,139.3 C90.2,144.7 82.1,149 72.2,149 Z M72.2,153.5 C62.3,153.5 54.1,149.3 52.9,143.8 C52.8,144.3 52.7,144.8 52.7,145.3 C52.7,151.4 61.5,156.5 72.2,156.5 C83,156.5 91.7,151.5 91.7,145.3 C91.7,144.8 91.6,144.3 91.5,143.8 C90.2,149.2 82.1,153.5 72.2,153.5 Z M72.2,158 C62.3,158 54.1,153.8 52.9,148.3 C52.8,148.8 52.7,149.3 52.7,149.8 C52.7,155.9 61.5,161 72.2,161 C83,161 91.7,156 91.7,149.8 C91.7,149.3 91.6,148.8 91.5,148.3 C90.2,153.8 82.1,158 72.2,158 Z M30.7,113 C19.9,113 11.2,118 11.2,124.2 C11.2,130.3 20,135.4 30.7,135.4 C41.5,135.4 50.2,130.4 50.2,124.2 C50.3,118 41.5,113 30.7,113 Z M38.3,121.3 C37.6,121.1 36.8,121 36,121 C34.6,121 33.5,121.3 32.7,121.9 C32.2,122.3 31.9,122.8 31.5,123.6 L40.4,123.6 C40.3,122.5 39.7,121.8 38.3,121.3 Z M21.4,126.5 C22.2,126.9 23.2,127.1 24.1,127.1 C25.2,127.1 26.1,126.9 26.7,126.4 C27.4,125.9 27.8,125.4 28,124.7 L20,124.7 C20.1,125.4 20.5,126.1 21.4,126.5 Z M46.3,124.6 L42.9,124.6 C42.7,126.5 41.5,127.8 39.4,128.4 C38.3,128.8 36.7,129 34.7,129 L34.7,127.3 C36.3,127.2 37.4,127.1 38.1,126.9 C39.4,126.5 40.1,125.8 40.2,124.7 L31,124.7 C30.5,126.1 29.8,127.1 28.7,127.9 C27.6,128.6 26.1,128.9 24.2,128.9 C22.4,128.9 20.9,128.5 19.5,127.8 C18.1,127.1 17.5,126 17.4,124.7 L15.3,124.7 L15.3,123.8 L17.5,123.8 C17.7,122.5 18.3,121.6 19.5,120.8 C20.7,120.1 22.2,119.8 24.2,119.7 L24.2,121.4 C23.4,121.4 22.6,121.6 22,121.8 C20.9,122.2 20.2,122.8 20.2,123.8 L28.5,123.8 C29.2,122.3 29.9,121.3 30.5,120.7 C31.5,119.9 33.2,119.4 35.3,119.4 C38.3,119.4 40.4,120 41.7,121.1 C42.4,121.8 42.8,122.6 43.1,123.8 L46.4,123.8 L46.4,124.6 L46.3,124.6 Z M30.7,136.8 C20.8,136.8 12.6,132.6 11.4,127.1 C11.3,127.6 11.2,128.1 11.2,128.6 C11.2,134.7 20,139.8 30.7,139.8 C41.5,139.8 50.2,134.8 50.2,128.6 C50.2,128.1 50.1,127.6 50,127.1 C48.8,132.6 40.7,136.8 30.7,136.8 Z M30.7,141.3 C20.8,141.3 12.6,137.1 11.4,131.6 C11.3,132.1 11.2,132.6 11.2,133.1 C11.2,139.2 20,144.3 30.7,144.3 C41.5,144.3 50.2,139.3 50.2,133.1 C50.2,132.6 50.1,132.1 50,131.6 C48.8,137.1 40.7,141.3 30.7,141.3 Z" fill="url(#linearGradient-3)" filter="url(#filter-4)" sketch:type="MSShapeGroup"></path>
        </g>
    </g>
</svg>