<?xml version="1.0" encoding="UTF-8" standalone="no"?>
<svg width="301px" height="151px" viewBox="0 0 301 151" version="1.1" xmlns="http://www.w3.org/2000/svg" xmlns:xlink="http://www.w3.org/1999/xlink" xmlns:sketch="http://www.bohemiancoding.com/sketch/ns">
    <!-- Generator: Sketch 3.3.2 (12043) - http://www.bohemiancoding.com/sketch -->
    <title>sport-selected</title>
    <desc>Created with Sketch.</desc>
    <defs>
        <linearGradient x1="50.0152412%" y1="-0.0232469512%" x2="50.0152412%" y2="100.023247%" id="linearGradient-1">
            <stop stop-color="#EDF0F4" offset="0%"></stop>
            <stop stop-color="#E7EAF1" offset="100%"></stop>
        </linearGradient>
        <filter x="-50%" y="-50%" width="200%" height="200%" filterUnits="objectBoundingBox" id="filter-2">
            <feOffset dx="0" dy="1" in="SourceAlpha" result="shadowOffsetInner1"></feOffset>
            <feGaussianBlur stdDeviation="2" in="shadowOffsetInner1" result="shadowBlurInner1"></feGaussianBlur>
            <feComposite in="shadowBlurInner1" in2="SourceAlpha" operator="arithmetic" k2="-1" k3="1" result="shadowInnerInner1"></feComposite>
            <feColorMatrix values="0 0 0 0 0   0 0 0 0 0   0 0 0 0 0  0 0 0 0.21 0" in="shadowInnerInner1" type="matrix" result="shadowMatrixInner1"></feColorMatrix>
            <feMerge>
                <feMergeNode in="SourceGraphic"></feMergeNode>
                <feMergeNode in="shadowMatrixInner1"></feMergeNode>
            </feMerge>
        </filter>
        <linearGradient x1="49.9640029%" y1="100.052183%" x2="49.9640029%" y2="0.00723492723%" id="linearGradient-3">
            <stop stop-color="#F7DE68" offset="0%"></stop>
            <stop stop-color="#FFFD72" offset="100%"></stop>
        </linearGradient>
        <filter x="-50%" y="-50%" width="200%" height="200%" filterUnits="objectBoundingBox" id="filter-4">
            <feOffset dx="0" dy="1" in="SourceAlpha" result="shadowOffsetOuter1"></feOffset>
            <feGaussianBlur stdDeviation="1" in="shadowOffsetOuter1" result="shadowBlurOuter1"></feGaussianBlur>
            <feColorMatrix values="0 0 0 0 0   0 0 0 0 0   0 0 0 0 0  0 0 0 0.35 0" in="shadowBlurOuter1" type="matrix" result="shadowMatrixOuter1"></feColorMatrix>
            <feOffset dx="0" dy="3" in="SourceAlpha" result="shadowOffsetOuter2"></feOffset>
            <feGaussianBlur stdDeviation="2" in="shadowOffsetOuter2" result="shadowBlurOuter2"></feGaussianBlur>
            <feColorMatrix values="0 0 0 0 0   0 0 0 0 0   0 0 0 0 0  0 0 0 0.209120245 0" in="shadowBlurOuter2" type="matrix" result="shadowMatrixOuter2"></feColorMatrix>
            <feOffset dx="0" dy="3" in="SourceAlpha" result="shadowOffsetInner1"></feOffset>
            <feGaussianBlur stdDeviation="1.5" in="shadowOffsetInner1" result="shadowBlurInner1"></feGaussianBlur>
            <feComposite in="shadowBlurInner1" in2="SourceAlpha" operator="arithmetic" k2="-1" k3="1" result="shadowInnerInner1"></feComposite>
            <feColorMatrix values="0 0 0 0 1   0 0 0 0 1   0 0 0 0 1  0 0 0 0.35 0" in="shadowInnerInner1" type="matrix" result="shadowMatrixInner1"></feColorMatrix>
            <feMerge>
                <feMergeNode in="shadowMatrixOuter1"></feMergeNode>
                <feMergeNode in="shadowMatrixOuter2"></feMergeNode>
                <feMergeNode in="SourceGraphic"></feMergeNode>
                <feMergeNode in="shadowMatrixInner1"></feMergeNode>
            </feMerge>
        </filter>
    </defs>
    <g id="sport-selected" stroke="none" stroke-width="1" fill="none" fill-rule="evenodd" sketch:type="MSPage">
        <g sketch:type="MSLayerGroup" id="Shape">
            <path d="M295.3,47.8 C295,46.7 294.5,45.6 293.9,44.6 C290.6,37.8 286,31.6 280.5,26.6 C279.6,25.5 278.5,24.5 277.3,23.9 C266.6,15.1 253,10.3 238.9,10.3 C224.3,10.3 210.1,15.6 199,25.2 C198.5,25.5 198.1,25.8 197.6,26.2 C194.8,28.8 192.2,31.6 189.9,34.6 C188.6,32.3 187.2,30.2 185.7,28.1 C185.3,27.5 184.7,27 184.2,26.5 C181.5,23.5 178.5,21.2 175,19.4 C174.6,17.1 173.4,14.9 171.4,13.4 C163,7.1 153.1,2.8 142.8,1 C141.3,0.7 139.7,0.9 138.2,1.3 C137.1,0.7 135.8,0.2 134.5,0.1 C133.1,0 131.7,0 130.7,0 C117.7,0 109.7,3.6 108.9,4 C108.6,4.2 108.3,4.3 108,4.5 C106.8,4.5 105.6,4.7 104.4,5.2 C92.3,10.3 81.8,19 74.5,29.8 L72.2,29.8 C56,29.8 33.6,34.8 19.5,49 C10.5,58 4.1,71.7 1.5,87.4 C-0.7,100.6 0.1,113.4 3.6,120.7 C4.6,122.8 6.3,124.4 8.3,125.3 C9.3,127.2 10.9,128.6 12.9,129.4 C18.5,131.7 25.6,132.2 30.6,132.2 C46.1,132.2 67.2,127.6 81.4,114.8 C90.5,124.5 102.3,131.3 115.4,134.4 C116.1,134.6 116.8,134.6 117.5,134.6 C118.3,134.6 119.1,134.5 119.9,134.3 C121.1,135.1 122.5,135.6 124,135.7 C126.2,135.9 128.5,136 130.8,136 C138.9,136 146.8,134.5 154.5,131.7 C159.8,142.7 171.1,150.3 184.1,150.3 C198.3,150.3 210.5,141.2 215,128.5 C215.3,128.6 215.6,128.7 215.8,128.8 C216.5,129.3 217.2,129.7 218,130 C224.8,132.4 231.7,133.6 238.7,133.6 C272.5,133.6 300.1,106.1 300.1,72.2 C300.2,63.7 298.7,55.5 295.3,47.8 L295.3,47.8 Z M207,51.5 L210.8,45.5 L214.9,44.8 L216.1,46.9 L211.9,53.9 L208,54 L207,51.5 L207,51.5 Z M192.7,114.7 L192.7,114.7 C192.5,115.2 192.1,115.4 191.7,115.5 L191.7,115.5 L192,114.4 C192.2,114.5 192.4,114.6 192.7,114.7 L192.7,114.7 Z M191.4,114.3 L191.7,115.5 C191.1,115.3 190.5,115 190.2,114.6 C190.6,114.4 191,114.3 191.4,114.3 L191.4,114.3 Z M191.2,117.8 L190.8,119.4 C190.5,119.3 190.1,119.2 189.8,119 C190.1,118.4 190.5,118 191.2,117.8 L191.2,117.8 Z M191.7,119.5 L191.2,117.8 C192.1,118 192.8,118.5 193.1,119.1 C192.6,119.3 192.2,119.5 191.7,119.5 L191.7,119.5 Z M268.3,53.8 L261.3,53.6 L257.3,46.9 L259.6,43.4 L266,44.1 L270.1,50.1 L268.3,53.8 L268.3,53.8 Z M232.9,100.8 L228.8,94.6 L231.9,88.8 L241.1,88.8 L244.7,95.2 L240.8,101 L232.9,100.8 L232.9,100.8 Z" fill="url(#linearGradient-1)" filter="url(#filter-2)" sketch:type="MSShapeGroup"></path>
            <path d="M34.1,75.7 L36.4,73.1 L40.2,76.4 C40.9,75.6 41.6,74.9 42.3,74.1 L38.5,70.8 L40.8,68.2 L44.7,71.6 C45.4,70.9 45.9,70.3 46.6,69.6 L42.8,66.3 L45.1,63.7 L49.1,67.2 C49.9,66.4 50.7,65.6 51.5,64.9 L47.6,61.5 L49.9,58.9 L54.1,62.6 C54.9,61.9 55.5,61.3 56.3,60.6 L51.9,56.8 L54.2,54.2 L59,58.3 C67.4,51.3 76.7,45.3 86.7,41.5 C86.4,41.4 86,41.2 85.7,41.1 C92.5,38.4 99.7,37 107.6,37 L109.9,37 C112.2,32.9 114.7,28.9 117.6,25.2 C110.7,22.8 108.6,17.7 108.3,13.9 C96.1,19.1 86.1,28.2 79.7,39.7 C77.4,39.4 75,39.2 72.4,39.2 C58,39.2 38.3,43.6 26.3,55.6 C8.4,72.9 7,106.3 11.8,116.6 C11.8,116.6 21.6,98 37.8,78.9 L34.1,75.7 Z M100.1,70.5 C96.9,71 94.1,71.8 91.7,72.9 C92,71 92.3,69.1 92.5,67.4 C94.9,66.6 97.7,66 100.6,65.5 C101.5,57.2 103.7,49.1 107.1,41.7 C101,41.7 95.3,42.6 90.1,44.3 C90.1,44.2 90,44.1 90,44.1 C90,44.1 88.9,44.5 87,45.4 C82.5,47.2 78.4,49.5 74.6,52.4 C70.9,54.7 66.9,57.7 62.5,61.3 L64.8,63.3 L62.5,65.9 L59.8,63.6 C59,64.3 58.3,64.9 57.5,65.6 L60.4,68.1 L58.1,70.7 L54.8,67.9 C54,68.7 53.2,69.4 52.4,70.2 L55.7,73 L53.4,75.6 L49.9,72.7 C49.2,73.4 48.7,74 48,74.6 L51.4,77.5 L49.1,80.1 L45.6,77.1 C44.9,77.9 44.2,78.6 43.5,79.4 L47.1,82.4 L44.8,85 L41.2,82 C32.8,92.4 24,105 16.2,120.6 C19.4,121.9 24.5,122.7 30.4,122.7 C44.8,122.7 64.5,118.3 76.5,106.3 C78.6,104.2 80.3,102 81.9,99.6 C82,100.2 82.2,100.6 82.3,101.1 C90.5,113 102.8,121.7 117.4,125.1 C106.4,111.5 100,94 100,74.3 C100,73 100.1,71.7 100.1,70.5 Z M120.5,21 C124.3,16.7 128.8,12.7 133.4,9.4 C132.5,9.3 131.4,9.3 130.5,9.3 C119.2,9.3 112.7,12.4 112.7,12.4 C112.7,13 112,19 120.5,21 Z M126.2,22 C139.1,24.3 144.8,23.7 147.3,22.6 C151.4,20.9 158.4,19.4 165.6,20.8 C158.5,15.5 150.1,11.7 141,10.1 C135.6,13.4 130.6,17.4 126.2,22 Z M134.4,98.3 C129.5,74.1 115.1,69.9 105,70.2 C104.9,71.6 104.9,73 104.9,74.3 C104.9,94.5 112.1,112.8 124.7,126.3 C126.6,126.5 128.5,126.6 130.5,126.6 C138.1,126.6 145.4,125.1 152.1,122.5 C143,119.3 137,111.2 134.4,98.3 Z M286.2,50 C286.1,50.1 286.2,50.1 286.2,50.2 L286.2,50 Z M246.3,46.6 L254.7,33.4 L245.9,22.5 L229.3,23 L219.8,34.6 L227,46.9 L246.3,46.6 Z M201.6,63.6 L195.3,78.7 L202.6,93.4 L218,94.9 L226.3,79.5 L217.2,63.1 L201.6,63.6 Z M273,94.8 L281.9,79.1 L274.2,63.4 L256.1,62.8 L246.7,79.6 L255.7,95.5 L273,94.8 Z M246.5,79.5 L255.8,62.6 L246.3,46.9 L227,47.1 L217.5,63 L226.6,79.4 L246.5,79.5 Z M286.1,50.1 L280.6,49.3 L274.4,63.2 L282,79 L289.9,79 C288.6,88.8 284.9,97.3 277.6,105.8 C277.6,105.8 273.2,95.9 272.8,95.1 L255.5,95.9 L245.6,110.4 L253.5,121.5 L253.3,121.7 L245.3,110.5 L227.5,110 L221,120.7 C220.9,120.7 220.9,120.6 220.8,120.7 L221,120.8 L221,121 C226.5,123 232.4,124.1 238.5,124.1 C267.3,124.1 290.6,100.7 290.6,71.9 C290.9,64 289.2,56.7 286.1,50.1 Z M205.4,36.9 L219.6,34.6 L229.1,23 C228.8,22.7 227.7,21.2 227.7,21.2 C232.5,20.1 239.7,19.4 247.6,20.7 C247.6,20.7 246.4,22.1 246.2,22.4 L255,33.4 L271.1,35.3 L272.6,32.3 C272.7,32.4 272.7,32.4 272.8,32.5 L271.3,35.3 L280.6,49.1 L286,49.9 C282.9,43.2 278.4,37.2 272.8,32.4 L272.9,32.3 L272.6,32.2 L272.5,32.3 C263.5,24.4 251.7,19.7 238.7,19.7 C225.3,19.7 213.1,24.9 203.9,33.1 L204.1,33 L205.4,36.9 Z M227.4,109.7 L217.9,95.2 L202.6,93.7 L200.3,100.5 C198.1,98.4 195.5,96.7 192.7,95.5 C190.3,90.8 188.7,85.9 187.7,80.7 C187.9,79.9 188.1,78.9 188.3,78 C190.2,78 194.3,78.4 195,78.5 L201.5,63.5 L196.7,50.6 L190.9,52 L190.8,51.7 L196.7,50.3 L205.1,37 L203.8,33.1 C196.5,39.8 190.9,48.4 188.3,58.2 C186.8,49.1 183.2,40.7 178,33.5 L177.9,33.6 C166.9,19.9 149.2,27 149,27.1 C144.2,29.1 135.4,28.8 122.2,26.3 C119.4,29.7 116.9,33.3 114.6,37.2 C115.5,37.3 116.6,37.4 117.5,37.6 C139.8,40.8 159.6,52.5 173.1,70.6 C177.8,76.9 181.5,83.7 184.4,90.8 C185.6,87.8 186.7,84.7 187.4,81.6 C188.3,86.5 189.9,91.2 192.2,95.5 C189.6,94.5 186.8,93.9 183.9,93.9 C182.7,93.9 181.6,94 180.4,94.2 C170.7,67.5 146.9,46.8 116.8,42.4 C115.2,42.2 113.7,42 112.1,41.9 C108.6,49.1 106.4,56.9 105.3,65.2 C115.8,65.2 133.4,69.5 139,97.3 C141.7,111.1 148.4,118 159.4,118.9 C159.8,118.7 160.1,118.5 160.4,118.2 C160.9,130.8 171.2,140.8 183.9,140.8 C196.8,140.8 207.4,130.3 207.4,117.3 C207.4,115.8 207.2,114.4 207,113 C211.1,116.2 215.8,118.8 220.9,120.6 L227.4,109.7 Z M190.9,129.9 C184,129.9 178.3,124.3 178.3,117.3 C178.3,110.4 183.9,104.7 190.9,104.7 C197.8,104.7 203.5,110.3 203.5,117.3 C203.4,124.3 197.8,129.9 190.9,129.9 Z M194,116.5 C195.3,115.7 196,114.6 196,113.5 C196,111.9 194.7,110.1 191.6,110.1 C189,110.1 186.9,111.6 186.9,113.9 C186.9,115 187.6,116.2 188.8,116.8 C187.4,117.5 186.5,118.5 186.5,120.1 C186.5,121.9 188.1,123.8 191.4,123.8 C194.5,123.8 196.5,122.2 196.5,119.8 C196.5,118.1 195.4,116.9 194,116.5 Z M191.4,112.2 C192.5,112.2 193,113 193,113.9 C193,114.7 192.3,115.4 191.7,115.6 C190.7,115.3 189.8,114.7 189.8,113.8 C189.8,112.9 190.4,112.2 191.4,112.2 L191.4,112.2 Z M191.5,121.6 C190.4,121.6 189.6,120.7 189.6,119.7 C189.6,118.8 190.2,118 191.2,117.7 C192.4,118 193.3,118.7 193.3,119.9 C193.3,121 192.5,121.6 191.5,121.6 L191.5,121.6 Z" fill="url(#linearGradient-3)" filter="url(#filter-4)" sketch:type="MSShapeGroup"></path>
        </g>
    </g>
</svg>