<?xml version="1.0" encoding="UTF-8" standalone="no"?>
<svg width="192px" height="129px" viewBox="0 0 192 129" version="1.1" xmlns="http://www.w3.org/2000/svg" xmlns:xlink="http://www.w3.org/1999/xlink" xmlns:sketch="http://www.bohemiancoding.com/sketch/ns">
    <!-- Generator: Sketch 3.3.3 (12072) - http://www.bohemiancoding.com/sketch -->
    <title>totalizator-selected</title>
    <desc>Created with Sketch.</desc>
    <defs>
        <linearGradient x1="50.0152412%" y1="-0.0232469512%" x2="50.0152412%" y2="100.023247%" id="linearGradient-1">
            <stop stop-color="#EDF0F4" offset="0%"></stop>
            <stop stop-color="#E7EAF1" offset="100%"></stop>
        </linearGradient>
        <filter x="-50%" y="-50%" width="200%" height="200%" filterUnits="objectBoundingBox" id="filter-2">
            <feOffset dx="0" dy="1" in="SourceAlpha" result="shadowOffsetInner1"></feOffset>
            <feGaussianBlur stdDeviation="2" in="shadowOffsetInner1" result="shadowBlurInner1"></feGaussianBlur>
            <feComposite in="shadowBlurInner1" in2="SourceAlpha" operator="arithmetic" k2="-1" k3="1" result="shadowInnerInner1"></feComposite>
            <feColorMatrix values="0 0 0 0 0   0 0 0 0 0   0 0 0 0 0  0 0 0 0.21 0" in="shadowInnerInner1" type="matrix" result="shadowMatrixInner1"></feColorMatrix>
            <feMerge>
                <feMergeNode in="SourceGraphic"></feMergeNode>
                <feMergeNode in="shadowMatrixInner1"></feMergeNode>
            </feMerge>
        </filter>
        <linearGradient x1="49.9640029%" y1="100.052183%" x2="49.9640029%" y2="0.00723492723%" id="linearGradient-3">
            <stop stop-color="#F7DE68" offset="0%"></stop>
            <stop stop-color="#FFFD72" offset="100%"></stop>
        </linearGradient>
        <filter x="-50%" y="-50%" width="200%" height="200%" filterUnits="objectBoundingBox" id="filter-4">
            <feOffset dx="0" dy="1" in="SourceAlpha" result="shadowOffsetOuter1"></feOffset>
            <feGaussianBlur stdDeviation="1" in="shadowOffsetOuter1" result="shadowBlurOuter1"></feGaussianBlur>
            <feColorMatrix values="0 0 0 0 0   0 0 0 0 0   0 0 0 0 0  0 0 0 0.264996603 0" in="shadowBlurOuter1" type="matrix" result="shadowMatrixOuter1"></feColorMatrix>
            <feOffset dx="0" dy="3" in="SourceAlpha" result="shadowOffsetOuter2"></feOffset>
            <feGaussianBlur stdDeviation="2" in="shadowOffsetOuter2" result="shadowBlurOuter2"></feGaussianBlur>
            <feColorMatrix values="0 0 0 0 0   0 0 0 0 0   0 0 0 0 0  0 0 0 0.160515738 0" in="shadowBlurOuter2" type="matrix" result="shadowMatrixOuter2"></feColorMatrix>
            <feOffset dx="0" dy="3" in="SourceAlpha" result="shadowOffsetInner1"></feOffset>
            <feGaussianBlur stdDeviation="1.5" in="shadowOffsetInner1" result="shadowBlurInner1"></feGaussianBlur>
            <feComposite in="shadowBlurInner1" in2="SourceAlpha" operator="arithmetic" k2="-1" k3="1" result="shadowInnerInner1"></feComposite>
            <feColorMatrix values="0 0 0 0 1   0 0 0 0 1   0 0 0 0 1  0 0 0 0.35 0" in="shadowInnerInner1" type="matrix" result="shadowMatrixInner1"></feColorMatrix>
            <feMerge>
                <feMergeNode in="shadowMatrixOuter1"></feMergeNode>
                <feMergeNode in="shadowMatrixOuter2"></feMergeNode>
                <feMergeNode in="SourceGraphic"></feMergeNode>
                <feMergeNode in="shadowMatrixInner1"></feMergeNode>
            </feMerge>
        </filter>
    </defs>
    <g id="totalizator-selected" stroke="none" stroke-width="1" fill="none" fill-rule="evenodd" sketch:type="MSPage">
        <g sketch:type="MSLayerGroup" transform="translate(0.000000, -1.000000)" id="Shape">
            <path d="M191.130952,46.7380952 L191.130952,21.9761905 C191.130952,10.5238095 181.690476,1.08333333 170.238095,1.08333333 L145.47619,1.08333333 C137.428571,1.08333333 130.309524,5.72619048 126.904762,12.3809524 C123.5,5.57142857 116.380952,1.08333333 108.333333,1.08333333 L83.5714286,1.08333333 C75.5238095,1.08333333 68.4047619,5.72619048 65,12.3809524 C61.5952381,5.57142857 54.4761905,1.08333333 46.4285714,1.08333333 L21.6666667,1.08333333 C10.2142857,1.08333333 0.773809524,10.5238095 0.773809524,21.9761905 L0.773809524,46.7380952 C0.773809524,54.7857143 5.41666667,61.9047619 12.0714286,65.3095238 C5.26190476,68.7142857 0.773809524,75.8333333 0.773809524,83.8809524 L0.773809524,108.642857 C0.773809524,120.095238 10.2142857,129.535714 21.6666667,129.535714 L46.4285714,129.535714 C54.4761905,129.535714 61.5952381,124.892857 65,118.238095 C68.4047619,125.047619 75.5238095,129.535714 83.5714286,129.535714 L108.333333,129.535714 C116.380952,129.535714 123.5,124.892857 126.904762,118.238095 C130.309524,125.047619 137.428571,129.535714 145.47619,129.535714 L170.238095,129.535714 C181.690476,129.535714 191.130952,120.095238 191.130952,108.642857 L191.130952,83.8809524 C191.130952,75.8333333 186.488095,68.7142857 179.833333,65.3095238 C186.488095,61.75 191.130952,54.7857143 191.130952,46.7380952 L191.130952,46.7380952 Z M56.0238095,65.3095238 C59.8928571,63.297619 63.1428571,60.202381 65,56.3333333 C67.0119048,60.202381 70.1071429,63.452381 73.9761905,65.3095238 C70.1071429,67.3214286 66.8571429,70.4166667 65,74.2857143 C62.9880952,70.4166667 59.8928571,67.3214286 56.0238095,65.3095238 L56.0238095,65.3095238 Z M117.928571,65.3095238 C121.797619,63.297619 125.047619,60.202381 126.904762,56.3333333 C128.916667,60.202381 132.011905,63.452381 135.880952,65.3095238 C132.011905,67.3214286 128.761905,70.4166667 126.904762,74.2857143 C124.892857,70.4166667 121.797619,67.3214286 117.928571,65.3095238 L117.928571,65.3095238 Z" fill="url(#linearGradient-1)" filter="url(#filter-2)" sketch:type="MSShapeGroup"></path>
            <path d="M170.238095,119.166667 L145.47619,119.166667 C139.493095,119.166667 134.642857,114.316429 134.642857,108.333333 L134.642857,83.5714286 C134.642857,77.5883333 139.493095,72.7380952 145.47619,72.7380952 L170.238095,72.7380952 C176.22119,72.7380952 181.071429,77.5883333 181.071429,83.5714286 L181.071429,108.333333 C181.071429,114.316429 176.22119,119.166667 170.238095,119.166667 L170.238095,119.166667 Z M174.880952,86.6666667 C174.880952,82.3936905 171.415833,78.9285714 167.142857,78.9285714 L148.571429,78.9285714 C144.298452,78.9285714 140.833333,82.3936905 140.833333,86.6666667 L140.833333,105.238095 C140.833333,109.511071 144.298452,112.97619 148.571429,112.97619 L167.142857,112.97619 C171.415833,112.97619 174.880952,109.511071 174.880952,105.238095 L174.880952,86.6666667 L174.880952,86.6666667 Z M150.83869,100.130952 L155.890119,95.9910714 C157.775119,94.4295238 158.513333,93.6061905 158.513333,92.3495238 C158.513333,91.0696429 157.666786,90.3763095 156.475119,90.3763095 C155.305119,90.3763095 154.501905,91.0263095 153.375238,92.4145238 L151.03369,90.5279762 C152.530238,88.4897619 153.981905,87.3847619 156.691786,87.3847619 C159.835,87.3847619 161.916548,89.2264286 161.916548,92.1096429 C161.916548,94.6461905 160.615,95.9044048 157.926786,97.9859524 L155.456786,99.892619 L162.068214,99.892619 L162.068214,102.775833 L150.83869,102.775833 L150.83869,100.130952 L150.83869,100.130952 Z M170.238095,57.2619048 L145.47619,57.2619048 C139.493095,57.2619048 134.642857,52.4116667 134.642857,46.4285714 L134.642857,21.6666667 C134.642857,15.6835714 139.493095,10.8333333 145.47619,10.8333333 L170.238095,10.8333333 C176.22119,10.8333333 181.071429,15.6835714 181.071429,21.6666667 L181.071429,46.4285714 C181.071429,52.4116667 176.22119,57.2619048 170.238095,57.2619048 L170.238095,57.2619048 Z M174.880952,24.7619048 C174.880952,20.4889286 171.415833,17.0238095 167.142857,17.0238095 L148.571429,17.0238095 C144.298452,17.0238095 140.833333,20.4889286 140.833333,24.7619048 L140.833333,43.3333333 C140.833333,47.6063095 144.298452,51.0714286 148.571429,51.0714286 L167.142857,51.0714286 C171.415833,51.0714286 174.880952,47.6063095 174.880952,43.3333333 L174.880952,24.7619048 L174.880952,24.7619048 Z M150.83869,38.2261905 L155.890119,34.0863095 C157.775119,32.5247619 158.513333,31.7014286 158.513333,30.4447619 C158.513333,29.164881 157.666786,28.4715476 156.475119,28.4715476 C155.305119,28.4715476 154.501905,29.1215476 153.375238,30.5097619 L151.03369,28.6232143 C152.530238,26.585 153.981905,25.48 156.691786,25.48 C159.835,25.48 161.916548,27.3216667 161.916548,30.204881 C161.916548,32.7414286 160.615,33.9996429 157.926786,36.0811905 L155.456786,37.9878571 L162.068214,37.9878571 L162.068214,40.8710714 L150.83869,40.8710714 L150.83869,38.2261905 L150.83869,38.2261905 Z M108.333333,119.166667 L83.5714286,119.166667 C77.5883333,119.166667 72.7380952,114.316429 72.7380952,108.333333 L72.7380952,83.5714286 C72.7380952,77.5883333 77.5883333,72.7380952 83.5714286,72.7380952 L108.333333,72.7380952 C114.316429,72.7380952 119.166667,77.5883333 119.166667,83.5714286 L119.166667,108.333333 C119.166667,114.316429 114.316429,119.166667 108.333333,119.166667 L108.333333,119.166667 Z M112.97619,86.6666667 C112.97619,82.3936905 109.511071,78.9285714 105.238095,78.9285714 L86.6666667,78.9285714 C82.3936905,78.9285714 78.9285714,82.3936905 78.9285714,86.6666667 L78.9285714,105.238095 C78.9285714,109.511071 82.3936905,112.97619 86.6666667,112.97619 L105.238095,112.97619 C109.511071,112.97619 112.97619,109.511071 112.97619,105.238095 L112.97619,86.6666667 L112.97619,86.6666667 Z M106.954405,109.625595 C106.836786,109.783452 106.644881,109.890238 106.391071,109.8825 C104.283214,109.82369 102.127381,107.804048 100.657143,106.483929 C98.9655952,104.965714 97.4288095,103.305119 95.9430952,101.602738 C94.9108333,102.314643 93.8538095,102.995595 92.82,103.684286 C90.4645238,105.255119 88.6785714,106.971429 86.7007143,108.904405 C86.4871429,109.113333 86.072381,109.001905 86.0120238,108.723333 C84.8853571,108.817738 83.7169048,107.684881 83.005,106.988452 C82.485,106.479286 81.8860714,105.830833 81.522381,105.126667 C81.5007143,105.162262 81.4775,105.19631 81.4558333,105.233452 C81.2917857,105.515119 80.8538095,105.504286 80.6866667,105.233452 C79.8679762,103.890119 81.6461905,101.78381 82.4277381,100.807262 C84.195119,98.5941667 86.2952381,96.6271429 88.4247619,94.7375 C88.7358333,94.4620238 89.0577381,94.1942857 89.3734524,93.9219048 C87.0241667,91.3219048 84.4860714,88.8936905 81.4604762,87.0752381 C81.0364286,86.8214286 81.229881,86.3138095 81.6028571,86.2209524 C81.627619,86.1064286 81.6895238,85.9965476 81.7963095,85.9036905 C82.6057143,85.1933333 83.4244048,84.4922619 84.2245238,83.772619 C84.8822619,83.179881 85.5245238,82.5035714 86.275119,82.0191667 C86.4221429,81.9232143 86.58,81.8922619 86.7332143,81.9015476 C86.8477381,81.7808333 87.0257143,81.7235714 87.1959524,81.8380952 C90.232381,83.8917857 93.1852381,86.1141667 96.0328571,88.4696429 C99.0414286,86.0445238 101.998929,83.5683333 104.612857,80.7392857 C105.0075,80.3105952 105.535238,80.4529762 105.824643,80.7980952 C106.82131,80.4607143 108.06869,81.8040476 108.649048,82.3859524 C109.09631,82.8332143 109.532738,83.2944048 109.935119,83.7803571 C110.035714,83.9010714 110.16881,84.0264286 110.249286,84.1579762 C110.297262,84.2369048 110.419524,84.8838095 110.357619,84.5711905 C110.400952,84.7909524 110.422619,84.9580952 110.380833,85.1778571 C110.374643,85.2041667 110.360714,85.2227381 110.352976,85.2475 C110.387024,85.3357143 110.40869,85.430119 110.394762,85.54 C110.080595,87.8939286 107.689524,90.1565476 106.11869,91.8929762 C105.180833,92.9314286 104.22131,93.9559524 103.254048,94.9727381 C105.948452,97.6083333 108.503571,100.356905 110.880714,103.196786 C111.089643,103.4475 111.136071,103.726071 111.083452,103.981429 C111.991905,104.880595 110.900833,106.480833 110.224524,107.229881 C109.342381,108.204881 108.201786,109.111786 106.954405,109.625595 L106.954405,109.625595 Z M85.1778571,105.713214 C85.1221429,105.705476 85.0679762,105.69619 85.0153571,105.680714 C84.8327381,105.801429 84.6516667,105.922143 84.4659524,106.039762 C84.5108333,106.08 84.5572619,106.120238 84.6036905,106.160476 C84.6609524,106.087738 84.7305952,106.022738 84.8172619,105.968571 C84.942619,105.89119 85.0695238,105.815357 85.1964286,105.737976 C85.1902381,105.72869 85.1840476,105.720952 85.1778571,105.713214 L85.1778571,105.713214 Z M98.9578571,96.7370238 C98.9532143,96.7339286 98.9485714,96.7292857 98.9439286,96.7261905 L98.9547619,96.740119 C98.9547619,96.740119 98.9563095,96.7385714 98.9578571,96.7370238 L98.9578571,96.7370238 Z M87.9945238,90.1936905 C87.9527381,90.1379762 87.9310714,90.0791667 87.9094048,90.0203571 C87.8815476,89.9971429 87.8552381,89.9739286 87.827381,89.9507143 C87.6416667,89.8640476 87.4575,89.7727381 87.2764286,89.679881 C87.6014286,89.947619 87.9217857,90.22 88.2375,90.500119 C88.1570238,90.3964286 88.0734524,90.297381 87.9945238,90.1936905 L87.9945238,90.1936905 Z M108.333333,57.2619048 L83.5714286,57.2619048 C77.5883333,57.2619048 72.7380952,52.4116667 72.7380952,46.4285714 L72.7380952,21.6666667 C72.7380952,15.6835714 77.5883333,10.8333333 83.5714286,10.8333333 L108.333333,10.8333333 C114.316429,10.8333333 119.166667,15.6835714 119.166667,21.6666667 L119.166667,46.4285714 C119.166667,52.4116667 114.316429,57.2619048 108.333333,57.2619048 L108.333333,57.2619048 Z M112.97619,24.7619048 C112.97619,20.4889286 109.511071,17.0238095 105.238095,17.0238095 L86.6666667,17.0238095 C82.3936905,17.0238095 78.9285714,20.4889286 78.9285714,24.7619048 L78.9285714,43.3333333 C78.9285714,47.6063095 82.3936905,51.0714286 86.6666667,51.0714286 L105.238095,51.0714286 C109.511071,51.0714286 112.97619,47.6063095 112.97619,43.3333333 L112.97619,24.7619048 L112.97619,24.7619048 Z M99.1667857,40.8710714 L95.7620238,35.6679762 L92.3371429,40.8710714 L88.5439286,40.8710714 L93.8336905,33.1546429 L88.7605952,25.6966667 L92.6621429,25.6966667 L95.8486905,30.6180952 L99.0584524,25.6966667 L102.851667,25.6966667 L97.7785714,33.1097619 L103.068333,40.8710714 L99.1667857,40.8710714 L99.1667857,40.8710714 Z M46.4285714,119.166667 L21.6666667,119.166667 C15.6835714,119.166667 10.8333333,114.316429 10.8333333,108.333333 L10.8333333,83.5714286 C10.8333333,77.5883333 15.6835714,72.7380952 21.6666667,72.7380952 L46.4285714,72.7380952 C52.4116667,72.7380952 57.2619048,77.5883333 57.2619048,83.5714286 L57.2619048,108.333333 C57.2619048,114.316429 52.4116667,119.166667 46.4285714,119.166667 L46.4285714,119.166667 Z M51.0714286,86.6666667 C51.0714286,82.3936905 47.6063095,78.9285714 43.3333333,78.9285714 L24.7619048,78.9285714 C20.4889286,78.9285714 17.0238095,82.3936905 17.0238095,86.6666667 L17.0238095,105.238095 C17.0238095,109.511071 20.4889286,112.97619 24.7619048,112.97619 L43.3333333,112.97619 C47.6063095,112.97619 51.0714286,109.511071 51.0714286,105.238095 L51.0714286,86.6666667 L51.0714286,86.6666667 Z M32.9209524,90.8746429 L30.2760714,91.5246429 L29.5827381,88.7930952 L33.9392857,87.4930952 L36.2158333,87.4930952 L36.2158333,102.775833 L32.9209524,102.775833 L32.9209524,90.8746429 L32.9209524,90.8746429 Z M46.4285714,57.2619048 L21.6666667,57.2619048 C15.6835714,57.2619048 10.8333333,52.4116667 10.8333333,46.4285714 L10.8333333,21.6666667 C10.8333333,15.6835714 15.6835714,10.8333333 21.6666667,10.8333333 L46.4285714,10.8333333 C52.4116667,10.8333333 57.2619048,15.6835714 57.2619048,21.6666667 L57.2619048,46.4285714 C57.2619048,52.4116667 52.4116667,57.2619048 46.4285714,57.2619048 L46.4285714,57.2619048 Z M51.0714286,24.7619048 C51.0714286,20.4889286 47.6063095,17.0238095 43.3333333,17.0238095 L24.7619048,17.0238095 C20.4889286,17.0238095 17.0238095,20.4889286 17.0238095,24.7619048 L17.0238095,43.3333333 C17.0238095,47.6063095 20.4889286,51.0714286 24.7619048,51.0714286 L43.3333333,51.0714286 C47.6063095,51.0714286 51.0714286,47.6063095 51.0714286,43.3333333 L51.0714286,24.7619048 L51.0714286,24.7619048 Z M45.0496429,47.7208333 C44.9320238,47.8786905 44.740119,47.9854762 44.4863095,47.9777381 C42.3784524,47.9189286 40.222619,45.8992857 38.752381,44.5791667 C37.4554762,43.4169048 36.2653571,42.1571429 35.1046429,40.8710714 L32.9209524,40.8710714 L32.9209524,40.442381 C32.2508333,40.8896429 31.5791667,41.3369048 30.9152381,41.7795238 C28.5597619,43.3503571 26.7738095,45.0666667 24.7959524,46.9996429 C24.582381,47.2085714 24.167619,47.0971429 24.1072619,46.8185714 C22.9805952,46.9129762 21.8121429,45.780119 21.1002381,45.0836905 C20.5802381,44.5745238 19.9813095,43.9260714 19.617619,43.2219048 C19.5959524,43.2575 19.5727381,43.2915476 19.5510714,43.3286905 C19.3870238,43.6103571 18.9490476,43.5995238 18.7819048,43.3286905 C17.9632143,41.9853571 19.7414286,39.8790476 20.5229762,38.9025 C22.2903571,36.6894048 24.3904762,34.722381 26.52,32.8327381 C26.8310714,32.5572619 27.1529762,32.2895238 27.4686905,32.0171429 C25.1194048,29.4171429 22.5813095,26.9889286 19.5557143,25.1704762 C19.1316667,24.9166667 19.325119,24.4090476 19.6980952,24.3161905 C19.7228571,24.2016667 19.7847619,24.0917857 19.8915476,23.9989286 C20.7009524,23.2885714 21.5196429,22.5875 22.3197619,21.8678571 C22.9775,21.275119 23.6197619,20.5988095 24.3703571,20.1144048 C24.517381,20.0184524 24.6752381,19.9875 24.8284524,19.9967857 C24.9429762,19.8760714 25.1209524,19.8188095 25.2911905,19.9333333 C27.994881,21.762619 30.6211905,23.7435714 33.1778571,25.8158333 L33.9392857,25.5883333 L35.3228571,25.5883333 C37.9135714,23.4696429 40.442381,21.2875 42.7080952,18.8345238 C43.1027381,18.4058333 43.6304762,18.5482143 43.919881,18.8933333 C44.9165476,18.5559524 46.1639286,19.8992857 46.7442857,20.4811905 C47.1915476,20.9284524 47.6279762,21.3896429 48.0303571,21.8755952 C48.1309524,21.9963095 48.2640476,22.1216667 48.3445238,22.2532143 C48.3925,22.3321429 48.5147619,22.9790476 48.4528571,22.6664286 C48.4961905,22.8861905 48.5178571,23.0533333 48.4760714,23.2730952 C48.469881,23.2994048 48.4559524,23.3179762 48.4482143,23.3427381 C48.4822619,23.4309524 48.5039286,23.5253571 48.49,23.6352381 C48.1758333,25.9891667 45.7847619,28.2517857 44.2139286,29.9882143 C43.2760714,31.0266667 42.3165476,32.0511905 41.3492857,33.0679762 C44.0436905,35.7035714 46.5988095,38.4521429 48.9759524,41.2920238 C49.184881,41.5427381 49.2313095,41.8213095 49.1786905,42.0766667 C50.0871429,42.9758333 48.9960714,44.5760714 48.3197619,45.325119 C47.437619,46.300119 46.2970238,47.2070238 45.0496429,47.7208333 L45.0496429,47.7208333 Z M23.2730952,43.8084524 C23.217381,43.8007143 23.1632143,43.7914286 23.1105952,43.7759524 C22.9279762,43.8966667 22.7469048,44.017381 22.5611905,44.135 C22.6060714,44.1752381 22.6525,44.2154762 22.6989286,44.2557143 C22.7561905,44.1829762 22.8258333,44.1179762 22.9125,44.0638095 C23.0378571,43.9864286 23.1647619,43.9105952 23.2916667,43.8332143 C23.2854762,43.8239286 23.2792857,43.8161905 23.2730952,43.8084524 L23.2730952,43.8084524 Z M26.0897619,28.2889286 C26.0479762,28.2332143 26.0263095,28.1744048 26.0046429,28.1155952 C25.9767857,28.092381 25.9504762,28.0691667 25.922619,28.0459524 C25.7369048,27.9592857 25.5527381,27.8679762 25.3716667,27.775119 C25.6966667,28.0428571 26.0170238,28.3152381 26.3327381,28.5953571 C26.2522619,28.4916667 26.1686905,28.392619 26.0897619,28.2889286 L26.0897619,28.2889286 Z M36.2158333,34.0630952 L36.2158333,34.125 C36.379881,34.2983333 36.5454762,34.470119 36.7095238,34.6434524 C36.8116667,34.7177381 36.9153571,34.7920238 37.0190476,34.8663095 C37.029881,34.8554762 37.0407143,34.8430952 37.0530952,34.8322619 C36.7683333,34.5815476 36.4928571,34.32 36.2158333,34.0630952 L36.2158333,34.0630952 Z" fill="url(#linearGradient-3)" filter="url(#filter-4)" sketch:type="MSShapeGroup"></path>
        </g>
    </g>
</svg>