<?xml version="1.0" encoding="UTF-8" standalone="no"?>
<svg width="300px" height="264px" viewBox="0 0 300 264" version="1.1" xmlns="http://www.w3.org/2000/svg" xmlns:xlink="http://www.w3.org/1999/xlink" xmlns:sketch="http://www.bohemiancoding.com/sketch/ns">
    <!-- Generator: Sketch 3.3.2 (12043) - http://www.bohemiancoding.com/sketch -->
    <title>Untitled</title>
    <desc>Created with Sketch.</desc>
    <defs>
        <linearGradient x1="50.0152412%" y1="-0.0232469512%" x2="50.0152412%" y2="100.023247%" id="linearGradient-1">
            <stop stop-color="#EDF0F4" offset="0%"></stop>
            <stop stop-color="#E7EAF1" offset="100%"></stop>
        </linearGradient>
        <filter x="-50%" y="-50%" width="200%" height="200%" filterUnits="objectBoundingBox" id="filter-2">
            <feOffset dx="0" dy="1" in="SourceAlpha" result="shadowOffsetInner1"></feOffset>
            <feGaussianBlur stdDeviation="1.5" in="shadowOffsetInner1" result="shadowBlurInner1"></feGaussianBlur>
            <feComposite in="shadowBlurInner1" in2="SourceAlpha" operator="arithmetic" k2="-1" k3="1" result="shadowInnerInner1"></feComposite>
            <feColorMatrix values="0 0 0 0 0   0 0 0 0 0   0 0 0 0 0  0 0 0 0.0697067482 0" in="shadowInnerInner1" type="matrix" result="shadowMatrixInner1"></feColorMatrix>
            <feMerge>
                <feMergeNode in="SourceGraphic"></feMergeNode>
                <feMergeNode in="shadowMatrixInner1"></feMergeNode>
            </feMerge>
        </filter>
        <filter x="-50%" y="-50%" width="200%" height="200%" filterUnits="objectBoundingBox" id="filter-3">
            <feOffset dx="0" dy="2" in="SourceAlpha" result="shadowOffsetInner1"></feOffset>
            <feGaussianBlur stdDeviation="2" in="shadowOffsetInner1" result="shadowBlurInner1"></feGaussianBlur>
            <feComposite in="shadowBlurInner1" in2="SourceAlpha" operator="arithmetic" k2="-1" k3="1" result="shadowInnerInner1"></feComposite>
            <feColorMatrix values="0 0 0 0 0   0 0 0 0 0   0 0 0 0 0  0 0 0 0.28 0" in="shadowInnerInner1" type="matrix" result="shadowMatrixInner1"></feColorMatrix>
            <feMerge>
                <feMergeNode in="SourceGraphic"></feMergeNode>
                <feMergeNode in="shadowMatrixInner1"></feMergeNode>
            </feMerge>
        </filter>
    </defs>
    <g id="Page-1" stroke="none" stroke-width="1" fill="none" fill-rule="evenodd" sketch:type="MSPage">
        <path d="M290.4,10.4 C284,4 276.2,0.8 267.2,0.8 L32.8,0.8 C23.9,0.8 15.9,4.1 9.6,10.4 C3.2,16.7 0,24.5 0,33.5 L0,192.9 C0,201.8 3.3,209.8 9.6,216.1 C16,222.5 23.8,225.7 32.8,225.7 L100.8,225.7 C99.7,228.4 98.5,231.1 97.1,233.7 C94.7,238.3 93.7,241.5 93.7,244.5 C93.7,249.5 95.6,254.1 99.2,257.7 C102.8,261.3 107.4,263.2 112.4,263.2 L187.4,263.2 C192.4,263.2 197,261.3 200.6,257.7 C204.2,254.1 206.1,249.5 206.1,244.5 C206.1,241.5 205,238.2 202.6,233.7 C201.4,231.5 200.2,228.9 199,225.8 L267.1,225.8 C276,225.8 284,222.5 290.3,216.2 C296.7,209.8 299.9,202 299.9,193 L299.9,33.6 C300.1,24.7 296.8,16.7 290.4,10.4 L290.4,10.4 Z M16.2,17 C14.8,18.4 13.7,19.8 12.7,21.3 C13.7,19.8 14.9,18.3 16.2,17 C16.5,16.7 16.8,16.4 17.1,16.2 C16.8,16.4 16.5,16.7 16.2,17 L16.2,17 Z M28.1,155.5 L28.1,155.5 C28.1,155.8 28.1,156.1 28.2,156.4 C28.1,156.1 28.1,155.8 28.1,155.5 L28.1,155.5 Z M29.5,158.8 C29.3,158.6 29.1,158.3 28.9,158.1 C29.1,158.3 29.3,158.5 29.5,158.8 C29.7,159 30,159.2 30.2,159.4 C30,159.2 29.7,159 29.5,158.8 L29.5,158.8 Z M173.3,60.8 L174.9,60.1 C175.9,60.7 176.8,61.4 177.7,62.1 L177.5,63.7 L175.8,79.7 L158.7,67 L173.3,60.8 L173.3,60.8 Z M130.7,60.1 L132.3,60.8 L146.8,67 L129.6,79.6 L128,63.7 L127.8,62.1 C128.8,61.4 129.7,60.7 130.7,60.1 L130.7,60.1 Z M103.1,244.5 L103.1,244.5 C103.1,244.3 103.1,244.1 103.2,243.8 C103.1,244 103.1,244.3 103.1,244.5 L103.1,244.5 Z M110.1,227.8 C109.7,228.8 109.3,229.7 108.9,230.6 C109.3,229.7 109.7,228.8 110.1,227.8 C110.7,226.3 111.2,224.9 111.5,223.5 C111.2,224.9 110.7,226.3 110.1,227.8 L110.1,227.8 Z M37.5,150.8 L37.5,38.2 L114.8,38.2 C97.2,50.3 85.6,70.6 85.6,93.5 C85.6,117.7 98.5,138.9 117.7,150.7 L37.5,150.7 L37.5,150.8 Z M116.7,107.9 L115.1,107.6 C114.7,106.5 114.3,105.4 114,104.3 L115,103.2 L123.9,93.2 L129.6,110.7 L116.7,107.9 L116.7,107.9 Z M155.3,131.9 L154.2,133.6 L152.7,133.6 L151.2,133.6 L150.2,131.9 L144.3,122.1 L161.3,122.1 L155.3,131.9 L155.3,131.9 Z M175.8,110.7 L181.5,93.1 L190.5,103.1 L191.4,104.1 C191.1,105.2 190.7,106.4 190.3,107.5 L188.7,107.8 L175.8,110.7 L175.8,110.7 Z M194.5,238.1 C193.8,236.8 193.2,235.5 192.5,234.1 C193.2,235.5 193.8,236.9 194.5,238.1 C195.1,239.2 195.6,240.2 195.9,241.1 C195.6,240.2 195.1,239.2 194.5,238.1 L194.5,238.1 Z M196.9,244.5 C196.9,244.2 196.9,243.8 196.8,243.4 C196.8,243.8 196.9,244.2 196.9,244.5 L196.9,244.5 L196.9,244.5 Z M262.6,150.8 L187.7,150.8 C206.9,139 219.8,117.8 219.8,93.6 C219.8,70.7 208.2,50.4 190.6,38.3 L262.5,38.3 L262.5,150.8 L262.6,150.8 Z M270.6,158.8 C270.5,158.9 270.3,159 270.2,159.1 C270.3,159 270.4,158.9 270.6,158.8 C270.7,158.7 270.8,158.6 270.9,158.5 C270.7,158.5 270.7,158.7 270.6,158.8 L270.6,158.8 Z M283.8,17 C282,15.2 280.1,13.8 278,12.7 C280.1,13.7 282,15.2 283.8,17 C284.3,17.5 284.8,18.1 285.3,18.6 C284.8,18.1 284.3,17.5 283.8,17 L283.8,17 Z M290.6,192.9 C290.6,194.3 290.5,195.7 290.3,197 C290.5,195.7 290.6,194.3 290.6,192.9 L290.6,33.5 L290.6,32.3 L290.6,33.5 L290.6,192.9 L290.6,192.9 Z" id="Shape" fill="url(#linearGradient-1)" filter="url(#filter-2)" sketch:type="MSShapeGroup"></path>
        <path d="M282.1,16.9 C277.5,12.3 272.1,10.1 265.8,10.1 L34.3,10.1 C28,10.1 22.5,12.4 18,16.9 C13.4,21.5 11.2,26.9 11.2,33.2 L11.2,190.5 C11.2,196.8 13.5,202.3 18,206.8 C22.6,211.4 28,213.6 34.3,213.6 L113,213.6 C113,217.3 112.2,221 110.7,224.9 C109.2,228.8 107.6,232.1 106.1,235 C104.6,237.9 103.8,240 103.8,241.3 C103.8,243.8 104.7,246 106.6,247.8 C108.4,249.6 110.6,250.6 113.1,250.6 L187.1,250.6 C189.6,250.6 191.8,249.7 193.6,247.8 C195.4,246 196.4,243.8 196.4,241.3 C196.4,240.1 195.6,237.9 194.1,235 C192.5,232.1 191,228.7 189.5,224.7 C188,220.8 187.2,217.1 187.2,213.5 L265.9,213.5 C272.2,213.5 277.7,211.2 282.2,206.7 C286.8,202.1 289,196.7 289,190.4 L289,33.2 C288.9,26.9 286.6,21.4 282.1,16.9 L282.1,16.9 Z M270.4,153.6 C270.4,154.8 270,155.9 269,156.9 C268.1,157.8 267,158.3 265.7,158.3 L34.3,158.3 C33.1,158.3 32,157.9 31,156.9 C30.1,156 29.6,154.9 29.6,153.6 L29.6,33.2 C29.6,32 30,30.9 31,29.9 C31.9,29 33,28.5 34.3,28.5 L265.7,28.5 C266.9,28.5 268,28.9 269,29.9 C269.9,30.8 270.4,31.9 270.4,33.2 L270.4,153.6 Z M132.8,88.2 L140.3,111.4 L165.1,111.4 L172.7,88.2 L152.7,73.5 L132.8,88.2 Z M152.7,35.5 C121.3,35.5 95.7,61.1 95.7,92.5 C95.7,123.9 121.3,149.5 152.7,149.5 C184.1,149.5 209.7,123.9 209.7,92.5 C209.7,61.1 184.1,35.5 152.7,35.5 Z M196.9,95.8 L201.6,90.9 C201.6,91.4 201.7,91.9 201.7,92.5 C201.6,103.9 197.7,114.3 191.2,122.6 L190.2,115.8 L172.6,119.6 L163.1,135.2 L169.6,138.3 C164.3,140.3 158.6,141.4 152.7,141.4 C146.8,141.4 141,140.3 135.8,138.3 L142.3,135.2 L132.9,119.6 L115.3,115.8 L114.3,122.6 C107.8,114.3 103.9,103.9 103.9,92.5 C103.9,92 104,91.4 104,90.9 L108.7,95.8 L121,82 L119.1,64 L112.2,65.3 C118.6,55.8 128.3,48.6 139.6,45.4 L136.2,51.6 L152.8,58.7 L169.4,51.6 L166,45.4 C177.3,48.6 187,55.7 193.4,65.3 L186.5,64 L184.6,82.1 L196.9,95.8 L196.9,95.8 Z" id="Shape" fill="#E4E4E4" filter="url(#filter-3)" sketch:type="MSShapeGroup"></path>
    </g>
</svg>